<?xml version="1.0" encoding="UTF-8" standalone="no"?>
<!-- Generator: Adobe Illustrator 16.0.0, SVG Export Plug-In . SVG Version: 6.00 Build 0)  -->

<svg
   xmlns:dc="http://purl.org/dc/elements/1.1/"
   xmlns:cc="http://creativecommons.org/ns#"
   xmlns:rdf="http://www.w3.org/1999/02/22-rdf-syntax-ns#"
   xmlns:svg="http://www.w3.org/2000/svg"
   xmlns="http://www.w3.org/2000/svg"
   xmlns:sodipodi="http://sodipodi.sourceforge.net/DTD/sodipodi-0.dtd"
   xmlns:inkscape="http://www.inkscape.org/namespaces/inkscape"
   version="1.1"
   id="Capa_1"
   x="0px"
   y="0px"
   width="512px"
   height="512px"
   viewBox="0 0 297.472 297.472"
   style="enable-background:new 0 0 297.472 297.472;"
   xml:space="preserve"
   inkscape:version="0.91 r13725"
   sodipodi:docname="ctic.svg"><metadata
     id="metadata4458"><rdf:RDF><cc:Work
         rdf:about=""><dc:format>image/svg+xml</dc:format><dc:type
           rdf:resource="http://purl.org/dc/dcmitype/StillImage" /></cc:Work></rdf:RDF></metadata><defs
     id="defs4456" /><sodipodi:namedview
     pagecolor="#ffffff"
     bordercolor="#666666"
     borderopacity="1"
     objecttolerance="10"
     gridtolerance="10"
     guidetolerance="10"
     inkscape:pageopacity="0"
     inkscape:pageshadow="2"
     inkscape:window-width="1920"
     inkscape:window-height="993"
     id="namedview4454"
     showgrid="false"
     inkscape:zoom="0.4609375"
     inkscape:cx="256"
     inkscape:cy="256"
     inkscape:window-x="0"
     inkscape:window-y="24"
     inkscape:window-maximized="1"
     inkscape:current-layer="Capa_1" /><g
     id="g4412"
     transform="matrix(0.86440687,0,0,0.90450432,20.167548,14.203633)"><g
       id="g4414"><path
         d="m 9.367,70.347 c -9.623,32.603 -25.524,114.907 34.421,174.852 40.273,40.273 91.449,48.729 127.292,48.729 20.51,0 38.115,-2.701 49.271,-4.956 6.185,-1.249 10.617,-4.794 12.151,-9.765 1.579,-5.078 -0.117,-10.68 -4.662,-15.366 l -49.602,-51.45 c -3.026,-3.143 -5.017,-6.312 -4.585,-7.16 0.254,-0.497 0.478,-1.025 0.64,-1.594 3.301,-11.232 8.744,-39.624 -12.151,-60.515 -11.073,-11.075 -26.289,-16.93 -43.993,-16.93 -6.959,0 -12.949,0.909 -16.732,1.683 -0.617,0.12 -1.193,0.302 -1.739,0.531 -0.924,0.386 -4.06,-1.706 -7.084,-4.845 L 35.479,64.337 C 31.929,60.648 27.618,58.624 23.335,58.624 16.857,58.625 11.5,63.111 9.367,70.347 Z m 144.403,81.149 c 11.024,11.029 12.675,24.998 11.608,36.104 -0.411,4.348 -3.677,5.246 -6.697,2.107 l -43.793,-45.43 c -3.026,-3.146 -3.532,-5.949 -1.115,-6.099 1.47,-0.089 2.925,-0.135 4.377,-0.135 14.711,-0.009 26.687,4.518 35.62,13.453 z m 65.556,120.561 c 1.666,1.732 2.031,3.123 1.864,3.646 -0.117,0.371 -0.925,1.198 -3.174,1.65 -10.629,2.158 -27.391,4.723 -46.926,4.723 -33.608,0 -81.514,-7.851 -118.921,-45.26 C -3.271,181.359 11.713,104.263 20.737,73.698 c 0.158,-0.538 1.018,-3.224 2.598,-3.224 1.002,0 2.354,0.774 3.61,2.087 l 192.381,199.496 z"
         id="path4416"
         inkscape:connector-curvature="0"
         style="fill:#ffffff" /><path
         d="m 212.517,175.408 c 1.412,0.762 3.026,0.944 4.591,0.482 1.513,-0.447 2.803,-1.493 3.58,-2.88 14.005,-25.598 10.187,-57.292 -9.491,-78.86 -17.986,-19.718 -46.026,-27.16 -71.455,-18.992 -2.41,0.76 -4.804,1.699 -7.157,2.766 -3.042,1.376 -4.385,4.986 -3.011,7.979 0.284,0.6 0.609,1.115 1.051,1.604 1.77,1.91 4.55,2.496 6.937,1.407 1.889,-0.849 3.872,-1.623 5.871,-2.27 20.916,-6.723 44.021,-0.599 58.848,15.666 16.209,17.76 19.348,43.838 7.836,64.932 -1.576,2.829 -0.474,6.597 2.4,8.166 z"
         id="path4418"
         inkscape:connector-curvature="0"
         style="fill:#ffffff" /><path
         d="m 246.488,186.32 c 3.017,1.392 6.602,0.046 8.008,-2.945 17.356,-37.754 10.461,-82.012 -17.544,-112.718 -24.887,-27.249 -62.733,-39.207 -98.8,-31.151 -4.029,0.909 -8.063,2.054 -11.984,3.438 -1.516,0.536 -2.732,1.618 -3.42,3.087 -0.704,1.455 -0.774,3.098 -0.244,4.631 0.267,0.757 0.693,1.453 1.224,2.054 1.635,1.785 4.171,2.425 6.469,1.602 3.476,-1.216 7.038,-2.234 10.585,-3.042 31.852,-7.109 65.27,3.43 87.248,27.507 24.72,27.099 30.812,66.179 15.478,99.523 -1.325,2.922 0.025,6.623 2.98,8.014 z"
         id="path4420"
         inkscape:connector-curvature="0"
         style="fill:#ffffff" /><path
         d="m 276.911,200.311 c 3.026,1.406 6.626,0.097 8.018,-2.93 C 307.917,147.342 298.807,88.725 261.702,48.055 226.02,8.99 170.345,-6.062 119.841,9.724 c -1.612,0.536 -3.24,1.066 -4.834,1.65 -1.541,0.521 -2.757,1.62 -3.46,3.09 -0.688,1.452 -0.767,3.072 -0.213,4.613 0.277,0.742 0.688,1.438 1.216,2.039 1.627,1.785 4.171,2.425 6.477,1.617 1.47,-0.551 2.955,-1.018 4.44,-1.482 46.04,-14.412 96.799,-0.681 129.318,34.949 33.819,37.074 42.137,90.494 21.17,136.117 -1.351,2.941 -0.03,6.637 2.956,7.994 z"
         id="path4422"
         inkscape:connector-curvature="0"
         style="fill:#ffffff" /></g></g><g
     id="g4424" /><g
     id="g4426" /><g
     id="g4428" /><g
     id="g4430" /><g
     id="g4432" /><g
     id="g4434" /><g
     id="g4436" /><g
     id="g4438" /><g
     id="g4440" /><g
     id="g4442" /><g
     id="g4444" /><g
     id="g4446" /><g
     id="g4448" /><g
     id="g4450" /><g
     id="g4452" /></svg>