<?xml version="1.0" encoding="iso-8859-1"?>
<!-- Generator: Adobe Illustrator 19.0.0, SVG Export Plug-In . SVG Version: 6.00 Build 0)  -->
<svg xmlns="http://www.w3.org/2000/svg" xmlns:xlink="http://www.w3.org/1999/xlink" version="1.1" id="Layer_1" x="0px" y="0px" viewBox="0 0 330 330" style="enable-background:new 0 0 330 330;" xml:space="preserve" width="512px" height="512px">
<g id="XMLID_103_">
	<path id="XMLID_104_" d="M45,15v300c0,8.284,6.716,15,15,15h210c8.283,0,15-6.716,15-15V15c0-8.284-6.717-15-15-15H60   C51.716,0,45,6.716,45,15z M210,270h-90c-8.285,0-15-6.716-15-15c0-8.284,6.715-15,15-15h90c8.283,0,15,6.716,15,15   C225,263.284,218.283,270,210,270z M165.092,139.335c-23.313,0-42.215-18.9-42.215-42.214c0-23.314,18.902-42.213,42.215-42.213   s42.215,18.898,42.215,42.213C207.307,120.436,188.404,139.335,165.092,139.335c36.266,0,65.664,29.396,65.664,65.665H99.428   C99.428,168.731,128.826,139.335,165.092,139.335z" fill="#FFFFFF"/>
</g>
<g>
</g>
<g>
</g>
<g>
</g>
<g>
</g>
<g>
</g>
<g>
</g>
<g>
</g>
<g>
</g>
<g>
</g>
<g>
</g>
<g>
</g>
<g>
</g>
<g>
</g>
<g>
</g>
<g>
</g>
</svg>
