<?xml version="1.0" encoding="UTF-8" standalone="no"?>
<!-- Generator: Adobe Illustrator 18.0.0, SVG Export Plug-In . SVG Version: 6.00 Build 0)  -->

<svg
   xmlns:dc="http://purl.org/dc/elements/1.1/"
   xmlns:cc="http://creativecommons.org/ns#"
   xmlns:rdf="http://www.w3.org/1999/02/22-rdf-syntax-ns#"
   xmlns:svg="http://www.w3.org/2000/svg"
   xmlns="http://www.w3.org/2000/svg"
   xmlns:sodipodi="http://sodipodi.sourceforge.net/DTD/sodipodi-0.dtd"
   xmlns:inkscape="http://www.inkscape.org/namespaces/inkscape"
   version="1.1"
   id="Capa_1"
   x="0px"
   y="0px"
   viewBox="0 0 60 60"
   style="enable-background:new 0 0 60 60;"
   xml:space="preserve"
   width="512px"
   height="512px"
   inkscape:version="0.91 r13725"
   sodipodi:docname="infografias.svg"><metadata
     id="metadata4302"><rdf:RDF><cc:Work
         rdf:about=""><dc:format>image/svg+xml</dc:format><dc:type
           rdf:resource="http://purl.org/dc/dcmitype/StillImage" /></cc:Work></rdf:RDF></metadata><defs
     id="defs4300" /><sodipodi:namedview
     pagecolor="#ffffff"
     bordercolor="#666666"
     borderopacity="1"
     objecttolerance="10"
     gridtolerance="10"
     guidetolerance="10"
     inkscape:pageopacity="0"
     inkscape:pageshadow="2"
     inkscape:window-width="1920"
     inkscape:window-height="993"
     id="namedview4298"
     showgrid="false"
     inkscape:zoom="1.1821942"
     inkscape:cx="-7.1054308"
     inkscape:cy="232.46338"
     inkscape:window-x="0"
     inkscape:window-y="24"
     inkscape:window-maximized="1"
     inkscape:current-layer="g4256" /><g
     id="g4256"><path
       d="m 58.810475,13.520678 0,-7.418513 -57.6209496,0 0,7.418513 1.9206983,0 0,37.092563 -0.9603492,0 c -0.5301127,0 -0.9603491,0.41451 -0.9603491,0.927314 0,0.512805 0.4302364,0.927314 0.9603491,0.927314 l 0.9603492,0 25.9294273,0 c 0.375672,1.338263 0.366603,1.858892 1.919455,1.644031 0.530005,-0.07334 0.0013,-1.064573 0.0012,-1.644031 l 25.929427,0 0.960349,0 c 0.530113,0 0.96035,-0.414509 0.96035,-0.927314 0,-0.512804 -0.430237,-0.927314 -0.96035,-0.927314 l -0.960349,0 0,-37.092563 z M 3.1102237,7.9567931 l 53.7795523,0 0,3.7092559 -53.7795523,0 z m 51.8588543,42.6564479 -49.938156,0 0,-37.092563 49.938156,0 z"
       id="path4258"
       inkscape:connector-curvature="0"
       style="fill:#ffffff"
       sodipodi:nodetypes="ccccccsssccsccsssccccccccccccc" /><path
       d="M55,26.974C55,19.269,48.731,13,41.026,13h-1v14.974H55V26.974z M42.026,25.974V15.041   c5.806,0.482,10.45,5.127,10.932,10.933H42.026z"
       fill="#FFFFFF"
       id="path4260" /><path
       d="M6,27h7.412l4.714,8.485c0.046,0.083,0.102,0.156,0.166,0.221c0.002,0.002,0.005,0.004,0.008,0.006   c0.08,0.079,0.174,0.137,0.274,0.185c0.027,0.013,0.054,0.024,0.083,0.034c0.11,0.041,0.224,0.069,0.342,0.069   c0.001,0,0.001,0,0.002,0h6.36c2.245,4.721,7.047,8,12.613,8c7.705,0,13.974-6.269,13.974-13.974v-1H38.974V16.053h-1   C30.269,16.053,24,22.321,24,30.026c0,1.381,0.209,2.713,0.584,3.974h-4.995l-4.714-8.485c-0.021-0.039-0.057-0.062-0.083-0.097   c-0.042-0.058-0.083-0.113-0.137-0.16c-0.048-0.042-0.1-0.072-0.155-0.104c-0.055-0.033-0.108-0.065-0.17-0.087   c-0.067-0.024-0.134-0.032-0.204-0.041C14.083,25.02,14.045,25,14,25H6c-0.552,0-1,0.447-1,1S5.448,27,6,27z M26,30.026   c0-6.266,4.838-11.422,10.974-11.933v12.933h12.932C49.396,37.162,44.239,42,37.974,42c-4.426,0-8.289-2.42-10.362-6H31   c0.552,0,1-0.447,1-1s-0.448-1-1-1h-4.308C26.252,32.754,26,31.421,26,30.026z"
       fill="#FFFFFF"
       id="path4262" /><path
       d="M8,23c0.552,0,1-0.447,1-1v-4c0-0.553-0.448-1-1-1s-1,0.447-1,1v4C7,22.553,7.448,23,8,23z"
       fill="#FFFFFF"
       id="path4264" /><path
       d="M11,23c0.552,0,1-0.447,1-1v-4c0-0.553-0.448-1-1-1s-1,0.447-1,1v4C10,22.553,10.448,23,11,23z"
       fill="#FFFFFF"
       id="path4266" /></g><g
     id="g4268" /><g
     id="g4270" /><g
     id="g4272" /><g
     id="g4274" /><g
     id="g4276" /><g
     id="g4278" /><g
     id="g4280" /><g
     id="g4282" /><g
     id="g4284" /><g
     id="g4286" /><g
     id="g4288" /><g
     id="g4290" /><g
     id="g4292" /><g
     id="g4294" /><g
     id="g4296" /></svg>