<?xml version="1.0" encoding="utf-8"?>
<!-- Generator: Adobe Illustrator 19.0.0, SVG Export Plug-In . SVG Version: 6.00 Build 0)  -->
<svg version="1.1" id="Capa_1" xmlns="http://www.w3.org/2000/svg" xmlns:xlink="http://www.w3.org/1999/xlink" x="0px" y="0px"
	 viewBox="0 54.5 360 143.5" style="enable-background:new 0 54.5 360 143.5;" xml:space="preserve">
<style type="text/css">
	.st0{fill:none;}
	.st1{enable-background:new    ;}
	.st2{fill:#FFFFFF;}
	.st3{opacity:0.8;fill:#FFFFFF;enable-background:new    ;}
	.st4{opacity:0.5;fill:#FFFFFF;enable-background:new    ;}
</style>
<rect id="XMLID_2_" x="41.8" y="145.8" class="st0" width="313.9" height="48.8"/>
<g class="st1">
	<path class="st2" d="M117,151.7c0-0.5-0.1-0.9-0.4-1.2c-0.3-0.3-0.7-0.4-1.2-0.4c-0.4,0-0.7,0.1-1,0.2c-0.3,0.1-0.6,0.3-0.8,0.5
		l-0.5-0.6c0.3-0.3,0.6-0.5,1-0.6c0.4-0.2,0.9-0.2,1.4-0.2c0.3,0,0.6,0,0.9,0.1c0.3,0.1,0.5,0.2,0.8,0.4s0.4,0.4,0.5,0.7
		c0.1,0.3,0.2,0.6,0.2,1v2.7c0,0.2,0,0.5,0,0.7c0,0.3,0,0.5,0.1,0.6h-0.8c0-0.1,0-0.3-0.1-0.5c0-0.2,0-0.3,0-0.5h0
		c-0.3,0.4-0.6,0.7-0.9,0.9c-0.4,0.2-0.8,0.3-1.3,0.3c-0.2,0-0.5,0-0.7-0.1c-0.2-0.1-0.5-0.2-0.7-0.3c-0.2-0.1-0.4-0.3-0.5-0.6
		s-0.2-0.5-0.2-0.9c0-0.5,0.1-0.8,0.4-1.1c0.2-0.3,0.6-0.5,1-0.6c0.4-0.1,0.9-0.2,1.4-0.3c0.5,0,1.1-0.1,1.6-0.1V151.7z
		 M116.8,152.6c-0.4,0-0.7,0-1.1,0s-0.7,0.1-1,0.2c-0.3,0.1-0.5,0.2-0.7,0.4c-0.2,0.2-0.3,0.4-0.3,0.7c0,0.2,0,0.4,0.1,0.5
		c0.1,0.1,0.2,0.3,0.3,0.4c0.1,0.1,0.3,0.2,0.5,0.2s0.3,0.1,0.5,0.1c0.3,0,0.6-0.1,0.8-0.2c0.2-0.1,0.4-0.3,0.6-0.4
		c0.2-0.2,0.3-0.4,0.4-0.6c0.1-0.2,0.1-0.5,0.1-0.8v-0.5H116.8z"/>
	<path class="st2" d="M121.5,156.9c0.2,0.3,0.6,0.6,1,0.8c0.4,0.2,0.9,0.3,1.3,0.3c0.4,0,0.8-0.1,1.1-0.2s0.5-0.3,0.7-0.5
		c0.2-0.2,0.3-0.5,0.4-0.8c0.1-0.3,0.1-0.6,0.1-0.9v-1.1h0c-0.2,0.4-0.6,0.7-1,0.9c-0.4,0.2-0.9,0.3-1.3,0.3c-0.5,0-0.9-0.1-1.3-0.2
		c-0.4-0.2-0.7-0.4-1-0.6c-0.3-0.3-0.5-0.6-0.6-1c-0.2-0.4-0.2-0.8-0.2-1.2c0-0.4,0.1-0.8,0.2-1.2s0.4-0.7,0.6-1s0.6-0.5,1-0.7
		c0.4-0.2,0.8-0.2,1.3-0.2c0.4,0,0.9,0.1,1.3,0.3c0.4,0.2,0.8,0.5,1,0.9h0v-1.1h0.9v6.1c0,0.3,0,0.7-0.1,1.1s-0.3,0.7-0.5,1
		c-0.2,0.3-0.6,0.6-1,0.8c-0.4,0.2-1,0.3-1.7,0.3c-0.6,0-1.1-0.1-1.6-0.3c-0.5-0.2-1-0.5-1.3-0.9L121.5,156.9z M121.6,152.6
		c0,0.3,0.1,0.6,0.2,0.9c0.1,0.3,0.3,0.5,0.5,0.8c0.2,0.2,0.4,0.4,0.7,0.5c0.3,0.1,0.6,0.2,1,0.2c0.3,0,0.7-0.1,0.9-0.2
		c0.3-0.1,0.5-0.3,0.7-0.5c0.2-0.2,0.4-0.5,0.5-0.8c0.1-0.3,0.2-0.6,0.2-1c0-0.3-0.1-0.6-0.2-0.9c-0.1-0.3-0.3-0.5-0.5-0.8
		c-0.2-0.2-0.5-0.4-0.7-0.5c-0.3-0.1-0.6-0.2-0.9-0.2c-0.4,0-0.7,0.1-1,0.2c-0.3,0.1-0.5,0.3-0.7,0.5c-0.2,0.2-0.3,0.5-0.5,0.8
		C121.7,151.9,121.6,152.2,121.6,152.6z"/>
	<path class="st2" d="M135.9,152.5c0,0.1,0,0.1,0,0.2c0,0.1,0,0.1,0,0.2h-5.1c0,0.3,0.1,0.6,0.2,0.9s0.3,0.5,0.5,0.7
		c0.2,0.2,0.4,0.4,0.7,0.5c0.3,0.1,0.6,0.2,0.9,0.2c0.5,0,0.9-0.1,1.2-0.3c0.3-0.2,0.6-0.5,0.8-0.7l0.7,0.5c-0.4,0.5-0.8,0.8-1.2,1
		c-0.4,0.2-0.9,0.3-1.4,0.3c-0.5,0-0.9-0.1-1.3-0.2c-0.4-0.2-0.7-0.4-1-0.7c-0.3-0.3-0.5-0.6-0.7-1c-0.2-0.4-0.2-0.8-0.2-1.3
		s0.1-0.9,0.2-1.3c0.2-0.4,0.4-0.7,0.7-1c0.3-0.3,0.6-0.5,1-0.7c0.4-0.2,0.8-0.2,1.2-0.2c0.5,0,0.9,0.1,1.3,0.2
		c0.4,0.2,0.7,0.4,0.9,0.7c0.2,0.3,0.4,0.6,0.6,1S135.9,152,135.9,152.5z M135,152.2c0-0.6-0.2-1-0.6-1.4c-0.3-0.4-0.8-0.6-1.5-0.6
		c-0.3,0-0.6,0.1-0.8,0.2c-0.3,0.1-0.5,0.3-0.7,0.4c-0.2,0.2-0.3,0.4-0.5,0.6c-0.1,0.2-0.2,0.5-0.2,0.8H135z"/>
	<path class="st2" d="M139.6,149.6c0,0.2,0,0.3,0,0.5s0,0.4,0,0.5h0c0.2-0.4,0.5-0.6,0.8-0.9c0.4-0.2,0.8-0.3,1.2-0.3
		c0.8,0,1.4,0.2,1.7,0.7c0.4,0.5,0.6,1.1,0.6,1.8v3.7h-0.9v-3.4c0-0.3,0-0.6-0.1-0.9s-0.1-0.5-0.3-0.7c-0.1-0.2-0.3-0.3-0.5-0.4
		c-0.2-0.1-0.5-0.2-0.8-0.2c-0.2,0-0.5,0-0.7,0.1s-0.4,0.2-0.6,0.4s-0.3,0.4-0.4,0.7c-0.1,0.3-0.2,0.7-0.2,1.1v3.1h-0.9v-4.8
		c0-0.2,0-0.4,0-0.6s0-0.5,0-0.7H139.6z"/>
	<path class="st2" d="M151.8,151c-0.1-0.2-0.4-0.4-0.6-0.6c-0.3-0.2-0.6-0.2-0.9-0.2c-0.4,0-0.7,0.1-1,0.2c-0.3,0.1-0.5,0.3-0.7,0.5
		c-0.2,0.2-0.4,0.5-0.5,0.8c-0.1,0.3-0.2,0.6-0.2,1s0.1,0.7,0.2,1c0.1,0.3,0.3,0.6,0.5,0.8c0.2,0.2,0.4,0.4,0.7,0.5
		c0.3,0.1,0.6,0.2,1,0.2c0.4,0,0.7-0.1,1-0.2c0.3-0.1,0.5-0.3,0.7-0.6l0.7,0.5c-0.3,0.3-0.6,0.6-1,0.8c-0.4,0.2-0.8,0.3-1.4,0.3
		c-0.5,0-0.9-0.1-1.3-0.2c-0.4-0.2-0.7-0.4-1-0.7c-0.3-0.3-0.5-0.6-0.7-1c-0.2-0.4-0.2-0.8-0.2-1.3s0.1-0.9,0.2-1.3
		c0.2-0.4,0.4-0.7,0.7-1c0.3-0.3,0.6-0.5,1-0.7c0.4-0.2,0.8-0.2,1.3-0.2c0.4,0,0.8,0.1,1.2,0.3c0.4,0.2,0.8,0.4,1,0.8L151.8,151z"/>
	<path class="st2" d="M156,147.2c0,0.2-0.1,0.3-0.2,0.5c-0.1,0.1-0.3,0.2-0.4,0.2c-0.2,0-0.3-0.1-0.4-0.2c-0.1-0.1-0.2-0.3-0.2-0.5
		s0.1-0.3,0.2-0.5s0.3-0.2,0.4-0.2c0.2,0,0.3,0.1,0.4,0.2S156,147.1,156,147.2z M155.8,155.7h-0.9v-6.1h0.9V155.7z"/>
	<path class="st2" d="M163,151.7c0-0.5-0.1-0.9-0.4-1.2c-0.3-0.3-0.7-0.4-1.2-0.4c-0.4,0-0.7,0.1-1,0.2c-0.3,0.1-0.6,0.3-0.8,0.5
		l-0.5-0.6c0.3-0.3,0.6-0.5,1-0.6c0.4-0.2,0.9-0.2,1.4-0.2c0.3,0,0.6,0,0.9,0.1c0.3,0.1,0.5,0.2,0.8,0.4s0.4,0.4,0.5,0.7
		c0.1,0.3,0.2,0.6,0.2,1v2.7c0,0.2,0,0.5,0,0.7c0,0.3,0,0.5,0.1,0.6h-0.8c0-0.1,0-0.3-0.1-0.5c0-0.2,0-0.3,0-0.5h0
		c-0.3,0.4-0.6,0.7-0.9,0.9c-0.4,0.2-0.8,0.3-1.3,0.3c-0.2,0-0.5,0-0.7-0.1c-0.2-0.1-0.5-0.2-0.7-0.3c-0.2-0.1-0.4-0.3-0.5-0.6
		s-0.2-0.5-0.2-0.9c0-0.5,0.1-0.8,0.4-1.1c0.2-0.3,0.6-0.5,1-0.6c0.4-0.1,0.9-0.2,1.4-0.3c0.5,0,1.1-0.1,1.6-0.1V151.7z
		 M162.7,152.6c-0.4,0-0.7,0-1.1,0s-0.7,0.1-1,0.2c-0.3,0.1-0.5,0.2-0.7,0.4c-0.2,0.2-0.3,0.4-0.3,0.7c0,0.2,0,0.4,0.1,0.5
		c0.1,0.1,0.2,0.3,0.3,0.4c0.1,0.1,0.3,0.2,0.5,0.2s0.3,0.1,0.5,0.1c0.3,0,0.6-0.1,0.8-0.2c0.2-0.1,0.4-0.3,0.6-0.4
		c0.2-0.2,0.3-0.4,0.4-0.6c0.1-0.2,0.1-0.5,0.1-0.8v-0.5H162.7z"/>
	<path class="st2" d="M176.4,154.7c-0.3,0.4-0.6,0.7-1,0.9s-0.8,0.3-1.3,0.3c-0.5,0-0.9-0.1-1.3-0.2c-0.4-0.2-0.7-0.4-1-0.7
		s-0.5-0.6-0.6-1c-0.2-0.4-0.2-0.8-0.2-1.3s0.1-0.9,0.2-1.3c0.2-0.4,0.4-0.7,0.6-1s0.6-0.5,1-0.7c0.4-0.2,0.8-0.2,1.3-0.2
		c0.4,0,0.9,0.1,1.3,0.3c0.4,0.2,0.8,0.5,1,0.9h0v-4.8h0.9v9.9h-0.9L176.4,154.7L176.4,154.7z M171.9,152.6c0,0.3,0.1,0.7,0.2,1
		c0.1,0.3,0.3,0.6,0.5,0.8s0.4,0.4,0.7,0.5c0.3,0.1,0.6,0.2,1,0.2c0.3,0,0.7-0.1,0.9-0.2c0.3-0.1,0.5-0.3,0.7-0.5
		c0.2-0.2,0.4-0.5,0.5-0.8c0.1-0.3,0.2-0.6,0.2-1s-0.1-0.7-0.2-1c-0.1-0.3-0.3-0.6-0.5-0.8c-0.2-0.2-0.5-0.4-0.7-0.5
		c-0.3-0.1-0.6-0.2-0.9-0.2c-0.4,0-0.7,0.1-1,0.2c-0.3,0.1-0.5,0.3-0.7,0.5s-0.3,0.5-0.5,0.8C171.9,152,171.9,152.3,171.9,152.6z"/>
	<path class="st2" d="M186.2,152.5c0,0.1,0,0.1,0,0.2c0,0.1,0,0.1,0,0.2h-5.1c0,0.3,0.1,0.6,0.2,0.9c0.1,0.3,0.3,0.5,0.5,0.7
		s0.4,0.4,0.7,0.5c0.3,0.1,0.6,0.2,0.9,0.2c0.5,0,0.9-0.1,1.2-0.3c0.3-0.2,0.6-0.5,0.8-0.7l0.7,0.5c-0.4,0.5-0.8,0.8-1.2,1
		s-0.9,0.3-1.4,0.3c-0.5,0-0.9-0.1-1.3-0.2c-0.4-0.2-0.7-0.4-1-0.7c-0.3-0.3-0.5-0.6-0.7-1c-0.2-0.4-0.2-0.8-0.2-1.3
		s0.1-0.9,0.2-1.3c0.2-0.4,0.4-0.7,0.7-1c0.3-0.3,0.6-0.5,1-0.7c0.4-0.2,0.8-0.2,1.2-0.2c0.5,0,0.9,0.1,1.3,0.2
		c0.4,0.2,0.7,0.4,0.9,0.7c0.2,0.3,0.4,0.6,0.6,1S186.2,152,186.2,152.5z M185.3,152.2c0-0.6-0.2-1-0.6-1.4
		c-0.3-0.4-0.8-0.6-1.5-0.6c-0.3,0-0.6,0.1-0.8,0.2c-0.3,0.1-0.5,0.3-0.7,0.4c-0.2,0.2-0.3,0.4-0.5,0.6s-0.2,0.5-0.2,0.8H185.3z"/>
	<path class="st2" d="M193.7,156.9c0.2,0.3,0.6,0.6,1,0.8c0.4,0.2,0.9,0.3,1.3,0.3c0.4,0,0.8-0.1,1.1-0.2c0.3-0.1,0.5-0.3,0.7-0.5
		c0.2-0.2,0.3-0.5,0.4-0.8c0.1-0.3,0.1-0.6,0.1-0.9v-1.1h0c-0.2,0.4-0.6,0.7-1,0.9c-0.4,0.2-0.9,0.3-1.3,0.3c-0.5,0-0.9-0.1-1.3-0.2
		c-0.4-0.2-0.7-0.4-1-0.6c-0.3-0.3-0.5-0.6-0.6-1c-0.2-0.4-0.2-0.8-0.2-1.2c0-0.4,0.1-0.8,0.2-1.2s0.4-0.7,0.6-1
		c0.3-0.3,0.6-0.5,1-0.7c0.4-0.2,0.8-0.2,1.3-0.2c0.4,0,0.9,0.1,1.3,0.3c0.4,0.2,0.8,0.5,1,0.9h0v-1.1h0.9v6.1c0,0.3,0,0.7-0.1,1.1
		c-0.1,0.4-0.3,0.7-0.5,1c-0.2,0.3-0.6,0.6-1,0.8c-0.4,0.2-1,0.3-1.7,0.3c-0.6,0-1.1-0.1-1.6-0.3c-0.5-0.2-1-0.5-1.3-0.9
		L193.7,156.9z M193.9,152.6c0,0.3,0.1,0.6,0.2,0.9c0.1,0.3,0.3,0.5,0.5,0.8c0.2,0.2,0.4,0.4,0.7,0.5s0.6,0.2,1,0.2
		c0.3,0,0.7-0.1,0.9-0.2s0.5-0.3,0.7-0.5c0.2-0.2,0.4-0.5,0.5-0.8s0.2-0.6,0.2-1c0-0.3-0.1-0.6-0.2-0.9s-0.3-0.5-0.5-0.8
		c-0.2-0.2-0.5-0.4-0.7-0.5c-0.3-0.1-0.6-0.2-0.9-0.2c-0.4,0-0.7,0.1-1,0.2c-0.3,0.1-0.5,0.3-0.7,0.5c-0.2,0.2-0.3,0.5-0.5,0.8
		S193.9,152.2,193.9,152.6z"/>
	<path class="st2" d="M208.7,152.6c0,0.5-0.1,0.9-0.2,1.3c-0.2,0.4-0.4,0.7-0.7,1c-0.3,0.3-0.6,0.5-1,0.7c-0.4,0.2-0.8,0.2-1.3,0.2
		c-0.5,0-0.9-0.1-1.3-0.2c-0.4-0.2-0.7-0.4-1-0.7c-0.3-0.3-0.5-0.6-0.7-1c-0.2-0.4-0.2-0.8-0.2-1.3s0.1-0.9,0.2-1.3s0.4-0.7,0.7-1
		c0.3-0.3,0.6-0.5,1-0.7c0.4-0.2,0.8-0.2,1.3-0.2c0.5,0,0.9,0.1,1.3,0.2c0.4,0.2,0.7,0.4,1,0.7c0.3,0.3,0.5,0.6,0.7,1
		S208.7,152.2,208.7,152.6z M207.7,152.6c0-0.3-0.1-0.7-0.2-1c-0.1-0.3-0.3-0.6-0.5-0.8c-0.2-0.2-0.4-0.4-0.7-0.5
		c-0.3-0.1-0.6-0.2-1-0.2c-0.4,0-0.7,0.1-1,0.2c-0.3,0.1-0.5,0.3-0.7,0.5c-0.2,0.2-0.4,0.5-0.5,0.8c-0.1,0.3-0.2,0.6-0.2,1
		s0.1,0.7,0.2,1c0.1,0.3,0.3,0.6,0.5,0.8c0.2,0.2,0.4,0.4,0.7,0.5s0.6,0.2,1,0.2c0.4,0,0.7-0.1,1-0.2s0.5-0.3,0.7-0.5
		c0.2-0.2,0.4-0.5,0.5-0.8C207.7,153.3,207.7,153,207.7,152.6z"/>
	<path class="st2" d="M212.5,154.7v1h-0.9v-9.9h0.9v4.8h0c0.3-0.4,0.6-0.7,1-0.9c0.4-0.2,0.8-0.3,1.3-0.3c0.5,0,0.9,0.1,1.3,0.2
		c0.4,0.2,0.7,0.4,1,0.7c0.3,0.3,0.5,0.6,0.6,1c0.2,0.4,0.2,0.8,0.2,1.3s-0.1,0.9-0.2,1.3c-0.2,0.4-0.4,0.7-0.6,1
		c-0.3,0.3-0.6,0.5-1,0.7c-0.4,0.2-0.8,0.2-1.3,0.2c-0.4,0-0.9-0.1-1.3-0.3C213.1,155.4,212.8,155.1,212.5,154.7L212.5,154.7z
		 M217,152.6c0-0.3-0.1-0.7-0.2-1s-0.3-0.6-0.5-0.8s-0.4-0.4-0.7-0.5c-0.3-0.1-0.6-0.2-1-0.2c-0.3,0-0.7,0.1-0.9,0.2
		c-0.3,0.1-0.5,0.3-0.7,0.5c-0.2,0.2-0.4,0.5-0.5,0.8c-0.1,0.3-0.2,0.6-0.2,1s0.1,0.7,0.2,1c0.1,0.3,0.3,0.6,0.5,0.8
		c0.2,0.2,0.5,0.4,0.7,0.5c0.3,0.1,0.6,0.2,0.9,0.2c0.4,0,0.7-0.1,1-0.2s0.5-0.3,0.7-0.5s0.3-0.5,0.5-0.8
		C217,153.3,217,153,217,152.6z"/>
	<path class="st2" d="M221.9,147.2c0,0.2-0.1,0.3-0.2,0.5c-0.1,0.1-0.3,0.2-0.4,0.2c-0.2,0-0.3-0.1-0.4-0.2
		c-0.1-0.1-0.2-0.3-0.2-0.5s0.1-0.3,0.2-0.5c0.1-0.1,0.3-0.2,0.4-0.2c0.2,0,0.3,0.1,0.4,0.2C221.9,146.9,221.9,147.1,221.9,147.2z
		 M221.8,155.7h-0.9v-6.1h0.9V155.7z"/>
	<path class="st2" d="M230.7,152.5c0,0.1,0,0.1,0,0.2c0,0.1,0,0.1,0,0.2h-5.1c0,0.3,0.1,0.6,0.2,0.9c0.1,0.3,0.3,0.5,0.5,0.7
		s0.4,0.4,0.7,0.5c0.3,0.1,0.6,0.2,0.9,0.2c0.5,0,0.9-0.1,1.2-0.3c0.3-0.2,0.6-0.5,0.8-0.7l0.7,0.5c-0.4,0.5-0.8,0.8-1.2,1
		s-0.9,0.3-1.4,0.3c-0.5,0-0.9-0.1-1.3-0.2c-0.4-0.2-0.7-0.4-1-0.7c-0.3-0.3-0.5-0.6-0.7-1c-0.2-0.4-0.2-0.8-0.2-1.3
		s0.1-0.9,0.2-1.3c0.2-0.4,0.4-0.7,0.7-1c0.3-0.3,0.6-0.5,1-0.7c0.4-0.2,0.8-0.2,1.2-0.2c0.5,0,0.9,0.1,1.3,0.2
		c0.4,0.2,0.7,0.4,0.9,0.7c0.2,0.3,0.4,0.6,0.6,1S230.7,152,230.7,152.5z M229.8,152.2c0-0.6-0.2-1-0.6-1.4
		c-0.3-0.4-0.8-0.6-1.5-0.6c-0.3,0-0.6,0.1-0.8,0.2c-0.3,0.1-0.5,0.3-0.7,0.4c-0.2,0.2-0.3,0.4-0.5,0.6s-0.2,0.5-0.2,0.8H229.8z"/>
	<path class="st2" d="M233.5,150.3c0-0.3,0-0.5,0-0.7h0.8c0,0.2,0,0.3,0,0.5s0,0.4,0,0.5h0c0.2-0.4,0.4-0.6,0.8-0.9s0.7-0.3,1.2-0.3
		c0.1,0,0.2,0,0.3,0c0.1,0,0.2,0,0.3,0.1l-0.1,0.8c-0.1,0-0.1,0-0.3-0.1s-0.2,0-0.4,0c-0.2,0-0.5,0-0.7,0.1
		c-0.2,0.1-0.4,0.2-0.6,0.4c-0.2,0.2-0.3,0.4-0.4,0.7c-0.1,0.3-0.2,0.6-0.2,1v3.1h-0.9v-4.8C233.6,150.8,233.6,150.6,233.5,150.3z"
		/>
	<path class="st2" d="M240,149.6c0,0.2,0,0.3,0,0.5s0,0.4,0,0.5h0c0.2-0.4,0.5-0.6,0.8-0.9c0.4-0.2,0.8-0.3,1.2-0.3
		c0.8,0,1.4,0.2,1.7,0.7c0.4,0.5,0.6,1.1,0.6,1.8v3.7h-0.9v-3.4c0-0.3,0-0.6-0.1-0.9c-0.1-0.3-0.1-0.5-0.3-0.7
		c-0.1-0.2-0.3-0.3-0.5-0.4c-0.2-0.1-0.5-0.2-0.8-0.2c-0.2,0-0.5,0-0.7,0.1s-0.4,0.2-0.6,0.4s-0.3,0.4-0.4,0.7s-0.2,0.7-0.2,1.1v3.1
		h-0.9v-4.8c0-0.2,0-0.4,0-0.6s0-0.5,0-0.7H240z"/>
	<path class="st2" d="M253.9,152.6c0,0.5-0.1,0.9-0.2,1.3c-0.2,0.4-0.4,0.7-0.7,1c-0.3,0.3-0.6,0.5-1,0.7c-0.4,0.2-0.8,0.2-1.3,0.2
		c-0.5,0-0.9-0.1-1.3-0.2c-0.4-0.2-0.7-0.4-1-0.7c-0.3-0.3-0.5-0.6-0.7-1c-0.2-0.4-0.2-0.8-0.2-1.3s0.1-0.9,0.2-1.3
		c0.2-0.4,0.4-0.7,0.7-1c0.3-0.3,0.6-0.5,1-0.7c0.4-0.2,0.8-0.2,1.3-0.2c0.5,0,0.9,0.1,1.3,0.2c0.4,0.2,0.7,0.4,1,0.7
		c0.3,0.3,0.5,0.6,0.7,1C253.8,151.8,253.9,152.2,253.9,152.6z M252.9,152.6c0-0.3-0.1-0.7-0.2-1c-0.1-0.3-0.3-0.6-0.5-0.8
		s-0.4-0.4-0.7-0.5c-0.3-0.1-0.6-0.2-1-0.2s-0.7,0.1-1,0.2c-0.3,0.1-0.5,0.3-0.7,0.5s-0.4,0.5-0.5,0.8s-0.2,0.6-0.2,1s0.1,0.7,0.2,1
		c0.1,0.3,0.3,0.6,0.5,0.8s0.4,0.4,0.7,0.5c0.3,0.1,0.6,0.2,1,0.2s0.7-0.1,1-0.2c0.3-0.1,0.5-0.3,0.7-0.5s0.4-0.5,0.5-0.8
		C252.9,153.3,252.9,153,252.9,152.6z"/>
	<path class="st2" d="M266.6,152.5c0,0.1,0,0.1,0,0.2c0,0.1,0,0.1,0,0.2h-5.1c0,0.3,0.1,0.6,0.2,0.9c0.1,0.3,0.3,0.5,0.5,0.7
		c0.2,0.2,0.4,0.4,0.7,0.5c0.3,0.1,0.6,0.2,0.9,0.2c0.5,0,0.9-0.1,1.2-0.3c0.3-0.2,0.6-0.5,0.8-0.7l0.7,0.5c-0.4,0.5-0.8,0.8-1.2,1
		c-0.4,0.2-0.9,0.3-1.4,0.3c-0.5,0-0.9-0.1-1.3-0.2c-0.4-0.2-0.7-0.4-1-0.7c-0.3-0.3-0.5-0.6-0.7-1c-0.2-0.4-0.2-0.8-0.2-1.3
		s0.1-0.9,0.2-1.3s0.4-0.7,0.7-1c0.3-0.3,0.6-0.5,1-0.7c0.4-0.2,0.8-0.2,1.2-0.2c0.5,0,0.9,0.1,1.3,0.2c0.4,0.2,0.7,0.4,0.9,0.7
		c0.2,0.3,0.4,0.6,0.6,1S266.6,152,266.6,152.5z M265.7,152.2c0-0.6-0.2-1-0.6-1.4c-0.3-0.4-0.8-0.6-1.5-0.6c-0.3,0-0.6,0.1-0.8,0.2
		s-0.5,0.3-0.7,0.4c-0.2,0.2-0.3,0.4-0.5,0.6c-0.1,0.2-0.2,0.5-0.2,0.8H265.7z"/>
	<path class="st2" d="M270.4,155.7h-0.9v-9.9h0.9V155.7z"/>
	<path class="st2" d="M279.3,152.5c0,0.1,0,0.1,0,0.2c0,0.1,0,0.1,0,0.2h-5.1c0,0.3,0.1,0.6,0.2,0.9c0.1,0.3,0.3,0.5,0.5,0.7
		s0.4,0.4,0.7,0.5c0.3,0.1,0.6,0.2,0.9,0.2c0.5,0,0.9-0.1,1.2-0.3c0.3-0.2,0.6-0.5,0.8-0.7l0.7,0.5c-0.4,0.5-0.8,0.8-1.2,1
		s-0.9,0.3-1.4,0.3c-0.5,0-0.9-0.1-1.3-0.2c-0.4-0.2-0.7-0.4-1-0.7c-0.3-0.3-0.5-0.6-0.7-1c-0.2-0.4-0.2-0.8-0.2-1.3
		s0.1-0.9,0.2-1.3c0.2-0.4,0.4-0.7,0.7-1c0.3-0.3,0.6-0.5,1-0.7c0.4-0.2,0.8-0.2,1.2-0.2c0.5,0,0.9,0.1,1.3,0.2
		c0.4,0.2,0.7,0.4,0.9,0.7c0.2,0.3,0.4,0.6,0.6,1S279.3,152,279.3,152.5z M278.4,152.2c0-0.6-0.2-1-0.6-1.4
		c-0.3-0.4-0.8-0.6-1.5-0.6c-0.3,0-0.6,0.1-0.8,0.2c-0.3,0.1-0.5,0.3-0.7,0.4c-0.2,0.2-0.3,0.4-0.5,0.6s-0.2,0.5-0.2,0.8H278.4z"/>
	<path class="st2" d="M286.6,151c-0.1-0.2-0.4-0.4-0.6-0.6c-0.3-0.2-0.6-0.2-0.9-0.2c-0.4,0-0.7,0.1-1,0.2c-0.3,0.1-0.5,0.3-0.7,0.5
		c-0.2,0.2-0.4,0.5-0.5,0.8c-0.1,0.3-0.2,0.6-0.2,1s0.1,0.7,0.2,1c0.1,0.3,0.3,0.6,0.5,0.8c0.2,0.2,0.4,0.4,0.7,0.5
		c0.3,0.1,0.6,0.2,1,0.2c0.4,0,0.7-0.1,1-0.2c0.3-0.1,0.5-0.3,0.7-0.6l0.7,0.5c-0.3,0.3-0.6,0.6-1,0.8c-0.4,0.2-0.8,0.3-1.4,0.3
		c-0.5,0-0.9-0.1-1.3-0.2c-0.4-0.2-0.7-0.4-1-0.7c-0.3-0.3-0.5-0.6-0.7-1c-0.2-0.4-0.2-0.8-0.2-1.3s0.1-0.9,0.2-1.3
		c0.2-0.4,0.4-0.7,0.7-1c0.3-0.3,0.6-0.5,1-0.7c0.4-0.2,0.8-0.2,1.3-0.2c0.4,0,0.8,0.1,1.2,0.3c0.4,0.2,0.8,0.4,1,0.8L286.6,151z"/>
	<path class="st2" d="M292.5,150.3h-1.7v3.6c0,0.2,0,0.4,0.1,0.6c0,0.1,0.1,0.3,0.2,0.3c0.1,0.1,0.2,0.1,0.3,0.2c0.1,0,0.2,0,0.4,0
		c0.1,0,0.2,0,0.4-0.1c0.1,0,0.3-0.1,0.4-0.1l0,0.8c-0.2,0.1-0.3,0.1-0.5,0.1s-0.4,0-0.6,0c-0.2,0-0.3,0-0.5-0.1
		c-0.2,0-0.4-0.1-0.5-0.2c-0.2-0.1-0.3-0.3-0.4-0.5s-0.1-0.5-0.1-0.8v-3.8h-1.3v-0.7h1.3v-1.7h0.9v1.7h1.7V150.3z"/>
	<path class="st2" d="M294.8,150.3c0-0.3,0-0.5,0-0.7h0.8c0,0.2,0,0.3,0,0.5c0,0.2,0,0.4,0,0.5h0c0.2-0.4,0.4-0.6,0.8-0.9
		s0.7-0.3,1.2-0.3c0.1,0,0.2,0,0.3,0c0.1,0,0.2,0,0.3,0.1l-0.1,0.8c-0.1,0-0.1,0-0.3-0.1c-0.1,0-0.2,0-0.4,0c-0.2,0-0.5,0-0.7,0.1
		c-0.2,0.1-0.4,0.2-0.6,0.4s-0.3,0.4-0.4,0.7c-0.1,0.3-0.2,0.6-0.2,1v3.1h-0.9v-4.8C294.8,150.8,294.8,150.6,294.8,150.3z"/>
	<path class="st2" d="M306.4,152.6c0,0.5-0.1,0.9-0.2,1.3c-0.2,0.4-0.4,0.7-0.7,1c-0.3,0.3-0.6,0.5-1,0.7c-0.4,0.2-0.8,0.2-1.3,0.2
		c-0.5,0-0.9-0.1-1.3-0.2c-0.4-0.2-0.7-0.4-1-0.7c-0.3-0.3-0.5-0.6-0.7-1c-0.2-0.4-0.2-0.8-0.2-1.3s0.1-0.9,0.2-1.3s0.4-0.7,0.7-1
		c0.3-0.3,0.6-0.5,1-0.7c0.4-0.2,0.8-0.2,1.3-0.2c0.5,0,0.9,0.1,1.3,0.2c0.4,0.2,0.7,0.4,1,0.7c0.3,0.3,0.5,0.6,0.7,1
		S306.4,152.2,306.4,152.6z M305.4,152.6c0-0.3-0.1-0.7-0.2-1c-0.1-0.3-0.3-0.6-0.5-0.8c-0.2-0.2-0.4-0.4-0.7-0.5
		c-0.3-0.1-0.6-0.2-1-0.2s-0.7,0.1-1,0.2c-0.3,0.1-0.5,0.3-0.7,0.5c-0.2,0.2-0.4,0.5-0.5,0.8c-0.1,0.3-0.2,0.6-0.2,1s0.1,0.7,0.2,1
		c0.1,0.3,0.3,0.6,0.5,0.8c0.2,0.2,0.4,0.4,0.7,0.5c0.3,0.1,0.6,0.2,1,0.2s0.7-0.1,1-0.2c0.3-0.1,0.5-0.3,0.7-0.5
		c0.2-0.2,0.4-0.5,0.5-0.8C305.4,153.3,305.4,153,305.4,152.6z M303.3,148.3h-0.8l1.3-1.9h1.2L303.3,148.3z"/>
	<path class="st2" d="M310.1,149.6c0,0.2,0,0.3,0,0.5c0,0.2,0,0.4,0,0.5h0c0.2-0.4,0.5-0.6,0.8-0.9c0.4-0.2,0.8-0.3,1.2-0.3
		c0.8,0,1.4,0.2,1.7,0.7c0.4,0.5,0.6,1.1,0.6,1.8v3.7h-0.9v-3.4c0-0.3,0-0.6-0.1-0.9c-0.1-0.3-0.1-0.5-0.3-0.7
		c-0.1-0.2-0.3-0.3-0.5-0.4s-0.5-0.2-0.8-0.2c-0.2,0-0.5,0-0.7,0.1s-0.4,0.2-0.6,0.4s-0.3,0.4-0.4,0.7c-0.1,0.3-0.2,0.7-0.2,1.1v3.1
		h-0.9v-4.8c0-0.2,0-0.4,0-0.6c0-0.3,0-0.5,0-0.7H310.1z"/>
	<path class="st2" d="M318.9,147.2c0,0.2-0.1,0.3-0.2,0.5c-0.1,0.1-0.3,0.2-0.4,0.2c-0.2,0-0.3-0.1-0.4-0.2
		c-0.1-0.1-0.2-0.3-0.2-0.5s0.1-0.3,0.2-0.5c0.1-0.1,0.3-0.2,0.4-0.2c0.2,0,0.3,0.1,0.4,0.2C318.8,146.9,318.9,147.1,318.9,147.2z
		 M318.7,155.7h-0.9v-6.1h0.9V155.7z"/>
	<path class="st2" d="M326.5,151c-0.1-0.2-0.4-0.4-0.6-0.6c-0.3-0.2-0.6-0.2-0.9-0.2c-0.4,0-0.7,0.1-1,0.2c-0.3,0.1-0.5,0.3-0.7,0.5
		s-0.4,0.5-0.5,0.8c-0.1,0.3-0.2,0.6-0.2,1s0.1,0.7,0.2,1c0.1,0.3,0.3,0.6,0.5,0.8c0.2,0.2,0.4,0.4,0.7,0.5c0.3,0.1,0.6,0.2,1,0.2
		c0.4,0,0.7-0.1,1-0.2c0.3-0.1,0.5-0.3,0.7-0.6l0.7,0.5c-0.3,0.3-0.6,0.6-1,0.8c-0.4,0.2-0.8,0.3-1.4,0.3c-0.5,0-0.9-0.1-1.3-0.2
		c-0.4-0.2-0.7-0.4-1-0.7c-0.3-0.3-0.5-0.6-0.7-1c-0.2-0.4-0.2-0.8-0.2-1.3s0.1-0.9,0.2-1.3c0.2-0.4,0.4-0.7,0.7-1
		c0.3-0.3,0.6-0.5,1-0.7c0.4-0.2,0.8-0.2,1.3-0.2c0.4,0,0.8,0.1,1.2,0.3c0.4,0.2,0.8,0.4,1,0.8L326.5,151z"/>
	<path class="st2" d="M335.7,152.6c0,0.5-0.1,0.9-0.2,1.3c-0.2,0.4-0.4,0.7-0.7,1c-0.3,0.3-0.6,0.5-1,0.7c-0.4,0.2-0.8,0.2-1.3,0.2
		c-0.5,0-0.9-0.1-1.3-0.2c-0.4-0.2-0.7-0.4-1-0.7c-0.3-0.3-0.5-0.6-0.7-1c-0.2-0.4-0.2-0.8-0.2-1.3s0.1-0.9,0.2-1.3s0.4-0.7,0.7-1
		c0.3-0.3,0.6-0.5,1-0.7c0.4-0.2,0.8-0.2,1.3-0.2c0.5,0,0.9,0.1,1.3,0.2c0.4,0.2,0.7,0.4,1,0.7c0.3,0.3,0.5,0.6,0.7,1
		S335.7,152.2,335.7,152.6z M334.7,152.6c0-0.3-0.1-0.7-0.2-1c-0.1-0.3-0.3-0.6-0.5-0.8c-0.2-0.2-0.4-0.4-0.7-0.5
		c-0.3-0.1-0.6-0.2-1-0.2s-0.7,0.1-1,0.2c-0.3,0.1-0.5,0.3-0.7,0.5c-0.2,0.2-0.4,0.5-0.5,0.8c-0.1,0.3-0.2,0.6-0.2,1s0.1,0.7,0.2,1
		c0.1,0.3,0.3,0.6,0.5,0.8c0.2,0.2,0.4,0.4,0.7,0.5c0.3,0.1,0.6,0.2,1,0.2s0.7-0.1,1-0.2c0.3-0.1,0.5-0.3,0.7-0.5
		c0.2-0.2,0.4-0.5,0.5-0.8C334.7,153.3,334.7,153,334.7,152.6z"/>
	<path class="st2" d="M344.9,154.7L344.9,154.7l1.9-5.2h1l-3,7.7c-0.2,0.5-0.4,0.8-0.7,1.1c-0.3,0.3-0.7,0.4-1.2,0.4
		c-0.3,0-0.5,0-0.8-0.1l0.1-0.8c0.2,0.1,0.4,0.1,0.7,0.1c0.3,0,0.5-0.1,0.7-0.3c0.2-0.2,0.3-0.5,0.5-0.8l0.5-1.3l-2.6-6.1h1
		L344.9,154.7z"/>
</g>
<g class="st1">
	<path class="st2" d="M56.5,167.7h-1.7v3.6c0,0.2,0,0.4,0.1,0.6c0,0.1,0.1,0.3,0.2,0.3c0.1,0.1,0.2,0.1,0.3,0.2c0.1,0,0.2,0,0.4,0
		c0.1,0,0.2,0,0.4-0.1c0.1,0,0.3-0.1,0.4-0.1l0,0.8c-0.2,0.1-0.3,0.1-0.5,0.1s-0.4,0-0.6,0c-0.2,0-0.3,0-0.5-0.1
		c-0.2,0-0.4-0.1-0.5-0.2c-0.2-0.1-0.3-0.3-0.4-0.5c-0.1-0.2-0.1-0.5-0.1-0.8v-3.8h-1.3V167h1.3v-1.7h0.9v1.7h1.7V167.7z"/>
	<path class="st2" d="M64.5,169.9c0,0.1,0,0.1,0,0.2c0,0.1,0,0.1,0,0.2h-5.1c0,0.3,0.1,0.6,0.2,0.9s0.3,0.5,0.5,0.7
		c0.2,0.2,0.4,0.4,0.7,0.5c0.3,0.1,0.6,0.2,0.9,0.2c0.5,0,0.9-0.1,1.2-0.3c0.3-0.2,0.6-0.5,0.8-0.7l0.7,0.5c-0.4,0.5-0.8,0.8-1.2,1
		c-0.4,0.2-0.9,0.3-1.4,0.3c-0.5,0-0.9-0.1-1.3-0.2c-0.4-0.2-0.7-0.4-1-0.7c-0.3-0.3-0.5-0.6-0.7-1c-0.2-0.4-0.2-0.8-0.2-1.3
		s0.1-0.9,0.2-1.3c0.2-0.4,0.4-0.7,0.7-1c0.3-0.3,0.6-0.5,1-0.7c0.4-0.2,0.8-0.2,1.2-0.2c0.5,0,0.9,0.1,1.3,0.2
		c0.4,0.2,0.7,0.4,0.9,0.7c0.2,0.3,0.4,0.6,0.6,1S64.5,169.4,64.5,169.9z M63.6,169.6c0-0.6-0.2-1-0.6-1.4c-0.3-0.4-0.8-0.6-1.5-0.6
		c-0.3,0-0.6,0.1-0.8,0.2c-0.3,0.1-0.5,0.3-0.7,0.4c-0.2,0.2-0.3,0.4-0.5,0.6c-0.1,0.2-0.2,0.5-0.2,0.8H63.6z"/>
	<path class="st2" d="M71.8,168.4c-0.1-0.2-0.4-0.4-0.6-0.6c-0.3-0.2-0.6-0.2-0.9-0.2c-0.4,0-0.7,0.1-1,0.2
		c-0.3,0.1-0.5,0.3-0.7,0.5c-0.2,0.2-0.4,0.5-0.5,0.8c-0.1,0.3-0.2,0.6-0.2,1s0.1,0.7,0.2,1c0.1,0.3,0.3,0.6,0.5,0.8
		c0.2,0.2,0.4,0.4,0.7,0.5c0.3,0.1,0.6,0.2,1,0.2c0.4,0,0.7-0.1,1-0.2c0.3-0.1,0.5-0.3,0.7-0.6l0.7,0.5c-0.3,0.3-0.6,0.6-1,0.8
		c-0.4,0.2-0.8,0.3-1.4,0.3c-0.5,0-0.9-0.1-1.3-0.2c-0.4-0.2-0.7-0.4-1-0.7c-0.3-0.3-0.5-0.6-0.7-1c-0.2-0.4-0.2-0.8-0.2-1.3
		s0.1-0.9,0.2-1.3c0.2-0.4,0.4-0.7,0.7-1c0.3-0.3,0.6-0.5,1-0.7c0.4-0.2,0.8-0.2,1.3-0.2c0.4,0,0.8,0.1,1.2,0.3
		c0.4,0.2,0.8,0.4,1,0.8L71.8,168.4z"/>
	<path class="st2" d="M75.7,167c0,0.2,0,0.3,0,0.5s0,0.4,0,0.5h0c0.2-0.4,0.5-0.6,0.8-0.9c0.4-0.2,0.8-0.3,1.2-0.3
		c0.8,0,1.4,0.2,1.7,0.7c0.4,0.5,0.6,1.1,0.6,1.8v3.7h-0.9v-3.4c0-0.3,0-0.6-0.1-0.9s-0.1-0.5-0.3-0.7c-0.1-0.2-0.3-0.3-0.5-0.4
		c-0.2-0.1-0.5-0.2-0.8-0.2c-0.2,0-0.5,0-0.7,0.1s-0.4,0.2-0.6,0.4s-0.3,0.4-0.4,0.7c-0.1,0.3-0.2,0.7-0.2,1.1v3.1h-0.9v-4.8
		c0-0.2,0-0.4,0-0.6s0-0.5,0-0.7H75.7z"/>
	<path class="st2" d="M89.5,170c0,0.5-0.1,0.9-0.2,1.3c-0.2,0.4-0.4,0.7-0.7,1c-0.3,0.3-0.6,0.5-1,0.7c-0.4,0.2-0.8,0.2-1.3,0.2
		c-0.5,0-0.9-0.1-1.3-0.2c-0.4-0.2-0.7-0.4-1-0.7c-0.3-0.3-0.5-0.6-0.7-1c-0.2-0.4-0.2-0.8-0.2-1.3s0.1-0.9,0.2-1.3
		c0.2-0.4,0.4-0.7,0.7-1c0.3-0.3,0.6-0.5,1-0.7c0.4-0.2,0.8-0.2,1.3-0.2c0.5,0,0.9,0.1,1.3,0.2c0.4,0.2,0.7,0.4,1,0.7
		c0.3,0.3,0.5,0.6,0.7,1C89.4,169.2,89.5,169.6,89.5,170z M88.6,170c0-0.3-0.1-0.7-0.2-1s-0.3-0.6-0.5-0.8c-0.2-0.2-0.4-0.4-0.7-0.5
		c-0.3-0.1-0.6-0.2-1-0.2c-0.4,0-0.7,0.1-1,0.2c-0.3,0.1-0.5,0.3-0.7,0.5c-0.2,0.2-0.4,0.5-0.5,0.8c-0.1,0.3-0.2,0.6-0.2,1
		s0.1,0.7,0.2,1c0.1,0.3,0.3,0.6,0.5,0.8c0.2,0.2,0.4,0.4,0.7,0.5c0.3,0.1,0.6,0.2,1,0.2c0.4,0,0.7-0.1,1-0.2
		c0.3-0.1,0.5-0.3,0.7-0.5c0.2-0.2,0.4-0.5,0.5-0.8C88.5,170.7,88.6,170.4,88.6,170z"/>
	<path class="st2" d="M93.3,173.1h-0.9v-9.9h0.9V173.1z"/>
	<path class="st2" d="M102.7,170c0,0.5-0.1,0.9-0.2,1.3c-0.2,0.4-0.4,0.7-0.7,1c-0.3,0.3-0.6,0.5-1,0.7c-0.4,0.2-0.8,0.2-1.3,0.2
		c-0.5,0-0.9-0.1-1.3-0.2c-0.4-0.2-0.7-0.4-1-0.7c-0.3-0.3-0.5-0.6-0.7-1c-0.2-0.4-0.2-0.8-0.2-1.3s0.1-0.9,0.2-1.3
		c0.2-0.4,0.4-0.7,0.7-1c0.3-0.3,0.6-0.5,1-0.7c0.4-0.2,0.8-0.2,1.3-0.2c0.5,0,0.9,0.1,1.3,0.2c0.4,0.2,0.7,0.4,1,0.7
		c0.3,0.3,0.5,0.6,0.7,1C102.7,169.2,102.7,169.6,102.7,170z M101.8,170c0-0.3-0.1-0.7-0.2-1s-0.3-0.6-0.5-0.8
		c-0.2-0.2-0.4-0.4-0.7-0.5c-0.3-0.1-0.6-0.2-1-0.2c-0.4,0-0.7,0.1-1,0.2c-0.3,0.1-0.5,0.3-0.7,0.5c-0.2,0.2-0.4,0.5-0.5,0.8
		c-0.1,0.3-0.2,0.6-0.2,1s0.1,0.7,0.2,1c0.1,0.3,0.3,0.6,0.5,0.8c0.2,0.2,0.4,0.4,0.7,0.5c0.3,0.1,0.6,0.2,1,0.2
		c0.4,0,0.7-0.1,1-0.2c0.3-0.1,0.5-0.3,0.7-0.5c0.2-0.2,0.4-0.5,0.5-0.8C101.7,170.7,101.8,170.4,101.8,170z"/>
	<path class="st2" d="M106,174.3c0.2,0.3,0.6,0.6,1,0.8c0.4,0.2,0.9,0.3,1.3,0.3c0.4,0,0.8-0.1,1.1-0.2s0.5-0.3,0.7-0.5
		c0.2-0.2,0.3-0.5,0.4-0.8c0.1-0.3,0.1-0.6,0.1-0.9v-1.1h0c-0.2,0.4-0.6,0.7-1,0.9c-0.4,0.2-0.9,0.3-1.3,0.3c-0.5,0-0.9-0.1-1.3-0.2
		c-0.4-0.2-0.7-0.4-1-0.6c-0.3-0.3-0.5-0.6-0.6-1c-0.2-0.4-0.2-0.8-0.2-1.2c0-0.4,0.1-0.8,0.2-1.2s0.4-0.7,0.6-1s0.6-0.5,1-0.7
		c0.4-0.2,0.8-0.2,1.3-0.2c0.4,0,0.9,0.1,1.3,0.3c0.4,0.2,0.8,0.5,1,0.9h0V167h0.9v6.1c0,0.3,0,0.7-0.1,1.1s-0.3,0.7-0.5,1
		c-0.2,0.3-0.6,0.6-1,0.8c-0.4,0.2-1,0.3-1.7,0.3c-0.6,0-1.1-0.1-1.6-0.3c-0.5-0.2-1-0.5-1.3-0.9L106,174.3z M106.1,170
		c0,0.3,0.1,0.6,0.2,0.9c0.1,0.3,0.3,0.5,0.5,0.8c0.2,0.2,0.4,0.4,0.7,0.5c0.3,0.1,0.6,0.2,1,0.2c0.3,0,0.7-0.1,0.9-0.2
		c0.3-0.1,0.5-0.3,0.7-0.5c0.2-0.2,0.4-0.5,0.5-0.8c0.1-0.3,0.2-0.6,0.2-1c0-0.3-0.1-0.6-0.2-0.9c-0.1-0.3-0.3-0.5-0.5-0.8
		c-0.2-0.2-0.5-0.4-0.7-0.5c-0.3-0.1-0.6-0.2-0.9-0.2c-0.4,0-0.7,0.1-1,0.2c-0.3,0.1-0.5,0.3-0.7,0.5c-0.2,0.2-0.3,0.5-0.5,0.8
		C106.2,169.3,106.1,169.6,106.1,170z"/>
	<path class="st2" d="M115.7,165.7h-0.8l1.3-1.9h1.2L115.7,165.7z M115.8,173.1h-0.9V167h0.9V173.1z"/>
	<path class="st2" d="M123,169.1c0-0.5-0.1-0.9-0.4-1.2c-0.3-0.3-0.7-0.4-1.2-0.4c-0.4,0-0.7,0.1-1,0.2c-0.3,0.1-0.6,0.3-0.8,0.5
		l-0.5-0.6c0.3-0.3,0.6-0.5,1-0.6c0.4-0.2,0.9-0.2,1.4-0.2c0.3,0,0.6,0,0.9,0.1c0.3,0.1,0.5,0.2,0.8,0.4s0.4,0.4,0.5,0.7
		c0.1,0.3,0.2,0.6,0.2,1v2.7c0,0.2,0,0.5,0,0.7c0,0.3,0,0.5,0.1,0.6h-0.8c0-0.1,0-0.3-0.1-0.5c0-0.2,0-0.3,0-0.5h0
		c-0.3,0.4-0.6,0.7-0.9,0.9c-0.4,0.2-0.8,0.3-1.3,0.3c-0.2,0-0.5,0-0.7-0.1c-0.2-0.1-0.5-0.2-0.7-0.3c-0.2-0.1-0.4-0.3-0.5-0.6
		s-0.2-0.5-0.2-0.9c0-0.5,0.1-0.8,0.4-1.1c0.2-0.3,0.6-0.5,1-0.6c0.4-0.1,0.9-0.2,1.4-0.3c0.5,0,1.1-0.1,1.6-0.1V169.1z M122.7,170
		c-0.4,0-0.7,0-1.1,0s-0.7,0.1-1,0.2c-0.3,0.1-0.5,0.2-0.7,0.4c-0.2,0.2-0.3,0.4-0.3,0.7c0,0.2,0,0.4,0.1,0.5
		c0.1,0.1,0.2,0.3,0.3,0.4c0.1,0.1,0.3,0.2,0.5,0.2s0.3,0.1,0.5,0.1c0.3,0,0.6-0.1,0.8-0.2c0.2-0.1,0.4-0.3,0.6-0.4
		c0.2-0.2,0.3-0.4,0.4-0.6c0.1-0.2,0.1-0.5,0.1-0.8V170H122.7z"/>
	<path class="st2" d="M130.3,168.4c-0.1-0.3-0.3-0.5-0.6-0.6s-0.6-0.2-0.9-0.2c-0.2,0-0.3,0-0.5,0.1c-0.2,0-0.3,0.1-0.4,0.2
		c-0.1,0.1-0.2,0.2-0.3,0.3c-0.1,0.1-0.1,0.3-0.1,0.4c0,0.3,0.1,0.5,0.4,0.7s0.6,0.3,1.1,0.4c0.7,0.1,1.3,0.4,1.6,0.6
		c0.3,0.3,0.5,0.7,0.5,1.1c0,0.3-0.1,0.6-0.2,0.9s-0.3,0.4-0.5,0.6c-0.2,0.2-0.5,0.3-0.7,0.3c-0.3,0.1-0.5,0.1-0.8,0.1
		c-0.5,0-0.9-0.1-1.3-0.3c-0.4-0.2-0.8-0.5-1.1-0.9l0.7-0.5c0.2,0.3,0.4,0.5,0.7,0.7c0.3,0.2,0.6,0.3,1,0.3c0.2,0,0.4,0,0.5-0.1
		c0.2,0,0.3-0.1,0.5-0.2s0.2-0.2,0.3-0.3c0.1-0.1,0.1-0.3,0.1-0.5c0-0.3-0.2-0.6-0.5-0.7c-0.3-0.2-0.8-0.3-1.3-0.4
		c-0.2,0-0.4-0.1-0.6-0.2c-0.2-0.1-0.4-0.2-0.6-0.3s-0.3-0.3-0.4-0.5c-0.1-0.2-0.2-0.4-0.2-0.7c0-0.3,0.1-0.6,0.2-0.8
		c0.1-0.2,0.3-0.4,0.5-0.5c0.2-0.1,0.4-0.3,0.7-0.3c0.3-0.1,0.5-0.1,0.8-0.1c0.4,0,0.8,0.1,1.2,0.3c0.4,0.2,0.7,0.5,0.9,0.8
		L130.3,168.4z"/>
	<path class="st2" d="M143.1,172.1c-0.3,0.4-0.6,0.7-1,0.9s-0.8,0.3-1.3,0.3c-0.5,0-0.9-0.1-1.3-0.2c-0.4-0.2-0.7-0.4-1-0.7
		s-0.5-0.6-0.6-1c-0.2-0.4-0.2-0.8-0.2-1.3s0.1-0.9,0.2-1.3c0.2-0.4,0.4-0.7,0.6-1s0.6-0.5,1-0.7c0.4-0.2,0.8-0.2,1.3-0.2
		c0.4,0,0.9,0.1,1.3,0.3c0.4,0.2,0.8,0.5,1,0.9h0v-4.8h0.9v9.9h-0.9L143.1,172.1L143.1,172.1z M138.6,170c0,0.3,0.1,0.7,0.2,1
		c0.1,0.3,0.3,0.6,0.5,0.8s0.4,0.4,0.7,0.5c0.3,0.1,0.6,0.2,1,0.2c0.3,0,0.7-0.1,0.9-0.2c0.3-0.1,0.5-0.3,0.7-0.5
		c0.2-0.2,0.4-0.5,0.5-0.8c0.1-0.3,0.2-0.6,0.2-1s-0.1-0.7-0.2-1c-0.1-0.3-0.3-0.6-0.5-0.8c-0.2-0.2-0.5-0.4-0.7-0.5
		c-0.3-0.1-0.6-0.2-0.9-0.2c-0.4,0-0.7,0.1-1,0.2c-0.3,0.1-0.5,0.3-0.7,0.5s-0.3,0.5-0.5,0.8C138.7,169.4,138.6,169.7,138.6,170z"/>
	<path class="st2" d="M153,169.9c0,0.1,0,0.1,0,0.2c0,0.1,0,0.1,0,0.2h-5.1c0,0.3,0.1,0.6,0.2,0.9s0.3,0.5,0.5,0.7
		c0.2,0.2,0.4,0.4,0.7,0.5c0.3,0.1,0.6,0.2,0.9,0.2c0.5,0,0.9-0.1,1.2-0.3c0.3-0.2,0.6-0.5,0.8-0.7l0.7,0.5c-0.4,0.5-0.8,0.8-1.2,1
		c-0.4,0.2-0.9,0.3-1.4,0.3c-0.5,0-0.9-0.1-1.3-0.2c-0.4-0.2-0.7-0.4-1-0.7c-0.3-0.3-0.5-0.6-0.7-1c-0.2-0.4-0.2-0.8-0.2-1.3
		s0.1-0.9,0.2-1.3c0.2-0.4,0.4-0.7,0.7-1c0.3-0.3,0.6-0.5,1-0.7c0.4-0.2,0.8-0.2,1.2-0.2c0.5,0,0.9,0.1,1.3,0.2
		c0.4,0.2,0.7,0.4,0.9,0.7c0.2,0.3,0.4,0.6,0.6,1S153,169.4,153,169.9z M152.1,169.6c0-0.6-0.2-1-0.6-1.4c-0.3-0.4-0.8-0.6-1.5-0.6
		c-0.3,0-0.6,0.1-0.8,0.2c-0.3,0.1-0.5,0.3-0.7,0.4c-0.2,0.2-0.3,0.4-0.5,0.6c-0.1,0.2-0.2,0.5-0.2,0.8H152.1z"/>
	<path class="st2" d="M161.2,164.6c0,0.2-0.1,0.3-0.2,0.5c-0.1,0.1-0.3,0.2-0.4,0.2c-0.2,0-0.3-0.1-0.4-0.2
		c-0.1-0.1-0.2-0.3-0.2-0.5s0.1-0.3,0.2-0.5s0.3-0.2,0.4-0.2c0.2,0,0.3,0.1,0.4,0.2S161.2,164.5,161.2,164.6z M161,173.1h-0.9V167
		h0.9V173.1z"/>
	<path class="st2" d="M165.2,167c0,0.2,0,0.3,0,0.5s0,0.4,0,0.5h0c0.2-0.4,0.5-0.6,0.8-0.9c0.4-0.2,0.8-0.3,1.2-0.3
		c0.8,0,1.4,0.2,1.7,0.7c0.4,0.5,0.6,1.1,0.6,1.8v3.7h-0.9v-3.4c0-0.3,0-0.6-0.1-0.9s-0.1-0.5-0.3-0.7c-0.1-0.2-0.3-0.3-0.5-0.4
		c-0.2-0.1-0.5-0.2-0.8-0.2c-0.2,0-0.5,0-0.7,0.1s-0.4,0.2-0.6,0.4s-0.3,0.4-0.4,0.7c-0.1,0.3-0.2,0.7-0.2,1.1v3.1h-0.9v-4.8
		c0-0.2,0-0.4,0-0.6s0-0.5,0-0.7H165.2z"/>
	<path class="st2" d="M175.5,167.7h-1.4v5.4h-0.9v-5.4h-1.3V167h1.3v-1.7c0-0.7,0.2-1.2,0.5-1.6c0.3-0.4,0.9-0.6,1.6-0.6
		c0.1,0,0.2,0,0.4,0c0.1,0,0.3,0,0.4,0.1l-0.2,0.8c-0.1,0-0.2,0-0.3-0.1c-0.1,0-0.2,0-0.3,0c-0.2,0-0.4,0-0.6,0.1
		c-0.2,0.1-0.3,0.2-0.4,0.3s-0.1,0.3-0.2,0.5c0,0.2,0,0.4,0,0.6v1.6h1.4V167.7z"/>
	<path class="st2" d="M183.8,170c0,0.5-0.1,0.9-0.2,1.3c-0.2,0.4-0.4,0.7-0.7,1c-0.3,0.3-0.6,0.5-1,0.7c-0.4,0.2-0.8,0.2-1.3,0.2
		c-0.5,0-0.9-0.1-1.3-0.2c-0.4-0.2-0.7-0.4-1-0.7c-0.3-0.3-0.5-0.6-0.7-1c-0.2-0.4-0.2-0.8-0.2-1.3s0.1-0.9,0.2-1.3
		c0.2-0.4,0.4-0.7,0.7-1c0.3-0.3,0.6-0.5,1-0.7c0.4-0.2,0.8-0.2,1.3-0.2c0.5,0,0.9,0.1,1.3,0.2c0.4,0.2,0.7,0.4,1,0.7
		c0.3,0.3,0.5,0.6,0.7,1C183.8,169.2,183.8,169.6,183.8,170z M182.9,170c0-0.3-0.1-0.7-0.2-1c-0.1-0.3-0.3-0.6-0.5-0.8
		s-0.4-0.4-0.7-0.5c-0.3-0.1-0.6-0.2-1-0.2s-0.7,0.1-1,0.2c-0.3,0.1-0.5,0.3-0.7,0.5c-0.2,0.2-0.4,0.5-0.5,0.8
		c-0.1,0.3-0.2,0.6-0.2,1s0.1,0.7,0.2,1c0.1,0.3,0.3,0.6,0.5,0.8c0.2,0.2,0.4,0.4,0.7,0.5c0.3,0.1,0.6,0.2,1,0.2s0.7-0.1,1-0.2
		c0.3-0.1,0.5-0.3,0.7-0.5s0.4-0.5,0.5-0.8C182.8,170.7,182.9,170.4,182.9,170z"/>
	<path class="st2" d="M186.7,167.7c0-0.3,0-0.5,0-0.7h0.8c0,0.2,0,0.3,0,0.5s0,0.4,0,0.5h0c0.2-0.4,0.4-0.6,0.8-0.9s0.7-0.3,1.2-0.3
		c0.1,0,0.2,0,0.3,0c0.1,0,0.2,0,0.3,0.1l-0.1,0.8c-0.1,0-0.1,0-0.3-0.1c-0.1,0-0.2,0-0.4,0c-0.2,0-0.5,0-0.7,0.1
		c-0.2,0.1-0.4,0.2-0.6,0.4s-0.3,0.4-0.4,0.7c-0.1,0.3-0.1,0.6-0.1,1v3.1h-0.9v-4.8C186.7,168.2,186.7,168,186.7,167.7z"/>
	<path class="st2" d="M194.1,167.2c0.4-0.2,0.8-0.3,1.2-0.3c0.2,0,0.3,0,0.5,0.1c0.2,0,0.4,0.1,0.5,0.2c0.2,0.1,0.3,0.2,0.5,0.4
		c0.1,0.2,0.3,0.4,0.4,0.6c0.2-0.4,0.5-0.7,0.9-1c0.4-0.2,0.8-0.3,1.3-0.3c0.8,0,1.4,0.2,1.7,0.7c0.4,0.5,0.6,1.1,0.6,1.8v3.7h-0.9
		v-3.4c0-0.6-0.1-1.2-0.4-1.6c-0.2-0.4-0.6-0.6-1.2-0.6c-0.3,0-0.6,0.1-0.8,0.2c-0.2,0.1-0.4,0.3-0.5,0.5s-0.2,0.5-0.3,0.7
		c-0.1,0.3-0.1,0.5-0.1,0.8v3.2h-0.9v-3.6c0-0.3,0-0.6-0.1-0.8c0-0.2-0.1-0.5-0.2-0.6c-0.1-0.2-0.3-0.3-0.4-0.4
		c-0.2-0.1-0.4-0.1-0.7-0.1c-0.2,0-0.4,0-0.6,0.1s-0.4,0.2-0.6,0.4c-0.2,0.2-0.3,0.4-0.4,0.7c-0.1,0.3-0.2,0.7-0.2,1.1v3.1h-0.9
		v-4.8c0-0.2,0-0.4,0-0.6s0-0.5,0-0.7h0.8c0,0.2,0,0.3,0,0.5s0,0.4,0,0.5h0C193.5,167.7,193.7,167.4,194.1,167.2z"/>
	<path class="st2" d="M208.8,169.1c0-0.5-0.1-0.9-0.4-1.2s-0.7-0.4-1.2-0.4c-0.4,0-0.7,0.1-1,0.2c-0.3,0.1-0.6,0.3-0.8,0.5l-0.5-0.6
		c0.3-0.3,0.6-0.5,1-0.6c0.4-0.2,0.9-0.2,1.4-0.2c0.3,0,0.6,0,0.9,0.1c0.3,0.1,0.5,0.2,0.8,0.4c0.2,0.2,0.4,0.4,0.5,0.7
		s0.2,0.6,0.2,1v2.7c0,0.2,0,0.5,0,0.7c0,0.3,0,0.5,0.1,0.6h-0.8c0-0.1,0-0.3-0.1-0.5c0-0.2,0-0.3,0-0.5h0c-0.3,0.4-0.6,0.7-0.9,0.9
		c-0.4,0.2-0.8,0.3-1.3,0.3c-0.2,0-0.5,0-0.7-0.1c-0.2-0.1-0.5-0.2-0.7-0.3s-0.4-0.3-0.5-0.6s-0.2-0.5-0.2-0.9
		c0-0.5,0.1-0.8,0.4-1.1c0.2-0.3,0.6-0.5,1-0.6c0.4-0.1,0.9-0.2,1.4-0.3s1.1-0.1,1.6-0.1V169.1z M208.5,170c-0.4,0-0.7,0-1.1,0
		c-0.4,0-0.7,0.1-1,0.2c-0.3,0.1-0.5,0.2-0.7,0.4s-0.3,0.4-0.3,0.7c0,0.2,0,0.4,0.1,0.5c0.1,0.1,0.2,0.3,0.3,0.4
		c0.1,0.1,0.3,0.2,0.5,0.2c0.2,0,0.3,0.1,0.5,0.1c0.3,0,0.6-0.1,0.8-0.2c0.2-0.1,0.4-0.3,0.6-0.4c0.2-0.2,0.3-0.4,0.4-0.6
		c0.1-0.2,0.1-0.5,0.1-0.8V170H208.5z"/>
	<path class="st2" d="M217.3,168.4c-0.1-0.2-0.4-0.4-0.6-0.6c-0.3-0.2-0.6-0.2-0.9-0.2c-0.4,0-0.7,0.1-1,0.2
		c-0.3,0.1-0.5,0.3-0.7,0.5c-0.2,0.2-0.4,0.5-0.5,0.8c-0.1,0.3-0.2,0.6-0.2,1s0.1,0.7,0.2,1c0.1,0.3,0.3,0.6,0.5,0.8
		c0.2,0.2,0.4,0.4,0.7,0.5c0.3,0.1,0.6,0.2,1,0.2c0.4,0,0.7-0.1,1-0.2c0.3-0.1,0.5-0.3,0.7-0.6l0.7,0.5c-0.3,0.3-0.6,0.6-1,0.8
		c-0.4,0.2-0.8,0.3-1.4,0.3c-0.5,0-0.9-0.1-1.3-0.2c-0.4-0.2-0.7-0.4-1-0.7c-0.3-0.3-0.5-0.6-0.7-1c-0.2-0.4-0.2-0.8-0.2-1.3
		s0.1-0.9,0.2-1.3c0.2-0.4,0.4-0.7,0.7-1c0.3-0.3,0.6-0.5,1-0.7c0.4-0.2,0.8-0.2,1.3-0.2c0.4,0,0.8,0.1,1.2,0.3
		c0.4,0.2,0.8,0.4,1,0.8L217.3,168.4z"/>
	<path class="st2" d="M221.5,164.6c0,0.2-0.1,0.3-0.2,0.5c-0.1,0.1-0.3,0.2-0.4,0.2s-0.3-0.1-0.4-0.2c-0.1-0.1-0.2-0.3-0.2-0.5
		s0.1-0.3,0.2-0.5c0.1-0.1,0.3-0.2,0.4-0.2s0.3,0.1,0.4,0.2C221.4,164.3,221.5,164.5,221.5,164.6z M221.3,173.1h-0.9V167h0.9V173.1z
		"/>
	<path class="st2" d="M230.7,170c0,0.5-0.1,0.9-0.2,1.3c-0.2,0.4-0.4,0.7-0.7,1c-0.3,0.3-0.6,0.5-1,0.7c-0.4,0.2-0.8,0.2-1.3,0.2
		c-0.5,0-0.9-0.1-1.3-0.2c-0.4-0.2-0.7-0.4-1-0.7c-0.3-0.3-0.5-0.6-0.7-1c-0.2-0.4-0.2-0.8-0.2-1.3s0.1-0.9,0.2-1.3
		c0.2-0.4,0.4-0.7,0.7-1c0.3-0.3,0.6-0.5,1-0.7c0.4-0.2,0.8-0.2,1.3-0.2c0.5,0,0.9,0.1,1.3,0.2c0.4,0.2,0.7,0.4,1,0.7
		c0.3,0.3,0.5,0.6,0.7,1C230.6,169.2,230.7,169.6,230.7,170z M229.8,170c0-0.3-0.1-0.7-0.2-1c-0.1-0.3-0.3-0.6-0.5-0.8
		s-0.4-0.4-0.7-0.5c-0.3-0.1-0.6-0.2-1-0.2s-0.7,0.1-1,0.2c-0.3,0.1-0.5,0.3-0.7,0.5s-0.4,0.5-0.5,0.8s-0.2,0.6-0.2,1s0.1,0.7,0.2,1
		c0.1,0.3,0.3,0.6,0.5,0.8s0.4,0.4,0.7,0.5c0.3,0.1,0.6,0.2,1,0.2s0.7-0.1,1-0.2c0.3-0.1,0.5-0.3,0.7-0.5s0.4-0.5,0.5-0.8
		C229.7,170.7,229.8,170.4,229.8,170z M227.7,165.7h-0.8l1.3-1.9h1.2L227.7,165.7z"/>
	<path class="st2" d="M234.4,167c0,0.2,0,0.3,0,0.5c0,0.2,0,0.4,0,0.5h0c0.2-0.4,0.5-0.6,0.8-0.9c0.4-0.2,0.8-0.3,1.2-0.3
		c0.8,0,1.4,0.2,1.7,0.7c0.4,0.5,0.6,1.1,0.6,1.8v3.7H238v-3.4c0-0.3,0-0.6-0.1-0.9c-0.1-0.3-0.1-0.5-0.3-0.7
		c-0.1-0.2-0.3-0.3-0.5-0.4s-0.5-0.2-0.8-0.2c-0.2,0-0.5,0-0.7,0.1s-0.4,0.2-0.6,0.4s-0.3,0.4-0.4,0.7c-0.1,0.3-0.2,0.7-0.2,1.1v3.1
		h-0.9v-4.8c0-0.2,0-0.4,0-0.6c0-0.3,0-0.5,0-0.7H234.4z"/>
	<path class="st2" d="M248.5,172.1L248.5,172.1l1.9-5.2h1l-3,7.7c-0.2,0.5-0.4,0.8-0.7,1.1c-0.3,0.3-0.7,0.4-1.2,0.4
		c-0.3,0-0.5,0-0.8-0.1l0.1-0.8c0.2,0.1,0.4,0.1,0.7,0.1c0.3,0,0.5-0.1,0.7-0.3c0.2-0.2,0.3-0.5,0.5-0.8l0.5-1.3l-2.6-6.1h1
		L248.5,172.1z"/>
	<path class="st2" d="M262.4,168.4c-0.1-0.2-0.4-0.4-0.6-0.6c-0.3-0.2-0.6-0.2-0.9-0.2c-0.4,0-0.7,0.1-1,0.2
		c-0.3,0.1-0.5,0.3-0.7,0.5s-0.4,0.5-0.5,0.8c-0.1,0.3-0.2,0.6-0.2,1s0.1,0.7,0.2,1c0.1,0.3,0.3,0.6,0.5,0.8
		c0.2,0.2,0.4,0.4,0.7,0.5c0.3,0.1,0.6,0.2,1,0.2c0.4,0,0.7-0.1,1-0.2c0.3-0.1,0.5-0.3,0.7-0.6l0.7,0.5c-0.3,0.3-0.6,0.6-1,0.8
		c-0.4,0.2-0.8,0.3-1.4,0.3c-0.5,0-0.9-0.1-1.3-0.2c-0.4-0.2-0.7-0.4-1-0.7c-0.3-0.3-0.5-0.6-0.7-1c-0.2-0.4-0.2-0.8-0.2-1.3
		s0.1-0.9,0.2-1.3c0.2-0.4,0.4-0.7,0.7-1c0.3-0.3,0.6-0.5,1-0.7c0.4-0.2,0.8-0.2,1.3-0.2c0.4,0,0.8,0.1,1.2,0.3
		c0.4,0.2,0.8,0.4,1,0.8L262.4,168.4z"/>
	<path class="st2" d="M271.6,170c0,0.5-0.1,0.9-0.2,1.3c-0.2,0.4-0.4,0.7-0.7,1c-0.3,0.3-0.6,0.5-1,0.7c-0.4,0.2-0.8,0.2-1.3,0.2
		c-0.5,0-0.9-0.1-1.3-0.2c-0.4-0.2-0.7-0.4-1-0.7c-0.3-0.3-0.5-0.6-0.7-1c-0.2-0.4-0.2-0.8-0.2-1.3s0.1-0.9,0.2-1.3s0.4-0.7,0.7-1
		c0.3-0.3,0.6-0.5,1-0.7c0.4-0.2,0.8-0.2,1.3-0.2c0.5,0,0.9,0.1,1.3,0.2c0.4,0.2,0.7,0.4,1,0.7c0.3,0.3,0.5,0.6,0.7,1
		S271.6,169.6,271.6,170z M270.7,170c0-0.3-0.1-0.7-0.2-1c-0.1-0.3-0.3-0.6-0.5-0.8c-0.2-0.2-0.4-0.4-0.7-0.5
		c-0.3-0.1-0.6-0.2-1-0.2s-0.7,0.1-1,0.2c-0.3,0.1-0.5,0.3-0.7,0.5c-0.2,0.2-0.4,0.5-0.5,0.8c-0.1,0.3-0.2,0.6-0.2,1s0.1,0.7,0.2,1
		c0.1,0.3,0.3,0.6,0.5,0.8c0.2,0.2,0.4,0.4,0.7,0.5c0.3,0.1,0.6,0.2,1,0.2s0.7-0.1,1-0.2c0.3-0.1,0.5-0.3,0.7-0.5
		c0.2-0.2,0.4-0.5,0.5-0.8C270.6,170.7,270.7,170.4,270.7,170z"/>
	<path class="st2" d="M276.2,167.2c0.4-0.2,0.8-0.3,1.2-0.3c0.2,0,0.3,0,0.5,0.1c0.2,0,0.4,0.1,0.5,0.2c0.2,0.1,0.3,0.2,0.5,0.4
		c0.1,0.2,0.3,0.4,0.4,0.6c0.2-0.4,0.5-0.7,0.9-1c0.4-0.2,0.8-0.3,1.3-0.3c0.8,0,1.4,0.2,1.7,0.7c0.4,0.5,0.6,1.1,0.6,1.8v3.7h-0.9
		v-3.4c0-0.6-0.1-1.2-0.4-1.6c-0.2-0.4-0.6-0.6-1.2-0.6c-0.3,0-0.6,0.1-0.8,0.2c-0.2,0.1-0.4,0.3-0.5,0.5s-0.2,0.5-0.3,0.7
		s-0.1,0.5-0.1,0.8v3.2h-0.9v-3.6c0-0.3,0-0.6-0.1-0.8c0-0.2-0.1-0.5-0.2-0.6c-0.1-0.2-0.3-0.3-0.5-0.4c-0.2-0.1-0.4-0.1-0.7-0.1
		c-0.2,0-0.4,0-0.6,0.1c-0.2,0.1-0.4,0.2-0.6,0.4s-0.3,0.4-0.4,0.7c-0.1,0.3-0.2,0.7-0.2,1.1v3.1h-0.9v-4.8c0-0.2,0-0.4,0-0.6
		c0-0.3,0-0.5,0-0.7h0.8c0,0.2,0,0.3,0,0.5c0,0.2,0,0.4,0,0.5h0C275.6,167.7,275.8,167.4,276.2,167.2z"/>
	<path class="st2" d="M291.4,173.1c0-0.2,0-0.3,0-0.5c0-0.2,0-0.4,0-0.5h0c-0.2,0.4-0.5,0.6-0.8,0.9c-0.4,0.2-0.8,0.3-1.2,0.3
		c-0.8,0-1.4-0.2-1.7-0.7c-0.4-0.5-0.6-1.1-0.6-1.8V167h0.9v3.4c0,0.3,0,0.6,0.1,0.9c0.1,0.3,0.1,0.5,0.3,0.7
		c0.1,0.2,0.3,0.3,0.5,0.4c0.2,0.1,0.5,0.2,0.8,0.2c0.2,0,0.5,0,0.7-0.1s0.4-0.2,0.6-0.4c0.2-0.2,0.3-0.4,0.4-0.7
		c0.1-0.3,0.2-0.7,0.2-1.1V167h0.9v4.8c0,0.2,0,0.4,0,0.6c0,0.3,0,0.5,0,0.7H291.4z"/>
	<path class="st2" d="M296.4,167c0,0.2,0,0.3,0,0.5c0,0.2,0,0.4,0,0.5h0c0.2-0.4,0.5-0.6,0.8-0.9c0.4-0.2,0.8-0.3,1.2-0.3
		c0.8,0,1.4,0.2,1.7,0.7c0.4,0.5,0.6,1.1,0.6,1.8v3.7H300v-3.4c0-0.3,0-0.6-0.1-0.9c-0.1-0.3-0.1-0.5-0.3-0.7
		c-0.1-0.2-0.3-0.3-0.5-0.4s-0.5-0.2-0.8-0.2c-0.2,0-0.5,0-0.7,0.1s-0.4,0.2-0.6,0.4s-0.3,0.4-0.4,0.7c-0.1,0.3-0.2,0.7-0.2,1.1v3.1
		h-0.9v-4.8c0-0.2,0-0.4,0-0.6c0-0.3,0-0.5,0-0.7H296.4z"/>
	<path class="st2" d="M305.2,164.6c0,0.2-0.1,0.3-0.2,0.5c-0.1,0.1-0.3,0.2-0.4,0.2c-0.2,0-0.3-0.1-0.4-0.2
		c-0.1-0.1-0.2-0.3-0.2-0.5s0.1-0.3,0.2-0.5c0.1-0.1,0.3-0.2,0.4-0.2c0.2,0,0.3,0.1,0.4,0.2C305.2,164.3,305.2,164.5,305.2,164.6z
		 M305,173.1h-0.9V167h0.9V173.1z"/>
	<path class="st2" d="M312.8,168.4c-0.1-0.2-0.4-0.4-0.6-0.6c-0.3-0.2-0.6-0.2-0.9-0.2c-0.4,0-0.7,0.1-1,0.2
		c-0.3,0.1-0.5,0.3-0.7,0.5s-0.4,0.5-0.5,0.8c-0.1,0.3-0.2,0.6-0.2,1s0.1,0.7,0.2,1c0.1,0.3,0.3,0.6,0.5,0.8
		c0.2,0.2,0.4,0.4,0.7,0.5c0.3,0.1,0.6,0.2,1,0.2c0.4,0,0.7-0.1,1-0.2c0.3-0.1,0.5-0.3,0.7-0.6l0.7,0.5c-0.3,0.3-0.6,0.6-1,0.8
		c-0.4,0.2-0.8,0.3-1.4,0.3c-0.5,0-0.9-0.1-1.3-0.2c-0.4-0.2-0.7-0.4-1-0.7c-0.3-0.3-0.5-0.6-0.7-1c-0.2-0.4-0.2-0.8-0.2-1.3
		s0.1-0.9,0.2-1.3c0.2-0.4,0.4-0.7,0.7-1c0.3-0.3,0.6-0.5,1-0.7c0.4-0.2,0.8-0.2,1.3-0.2c0.4,0,0.8,0.1,1.2,0.3
		c0.4,0.2,0.8,0.4,1,0.8L312.8,168.4z"/>
	<path class="st2" d="M319.8,169.1c0-0.5-0.1-0.9-0.4-1.2s-0.7-0.4-1.2-0.4c-0.4,0-0.7,0.1-1,0.2c-0.3,0.1-0.6,0.3-0.8,0.5l-0.5-0.6
		c0.3-0.3,0.6-0.5,1-0.6c0.4-0.2,0.9-0.2,1.4-0.2c0.3,0,0.6,0,0.9,0.1c0.3,0.1,0.5,0.2,0.8,0.4c0.2,0.2,0.4,0.4,0.5,0.7
		c0.1,0.3,0.2,0.6,0.2,1v2.7c0,0.2,0,0.5,0,0.7c0,0.3,0,0.5,0.1,0.6h-0.8c0-0.1,0-0.3-0.1-0.5s0-0.3,0-0.5h0
		c-0.3,0.4-0.6,0.7-0.9,0.9c-0.4,0.2-0.8,0.3-1.3,0.3c-0.2,0-0.5,0-0.7-0.1s-0.5-0.2-0.7-0.3s-0.4-0.3-0.5-0.6
		c-0.1-0.2-0.2-0.5-0.2-0.9c0-0.5,0.1-0.8,0.4-1.1s0.6-0.5,1-0.6c0.4-0.1,0.9-0.2,1.4-0.3c0.5,0,1.1-0.1,1.6-0.1V169.1z M319.5,170
		c-0.4,0-0.7,0-1.1,0s-0.7,0.1-1,0.2c-0.3,0.1-0.5,0.2-0.7,0.4s-0.3,0.4-0.3,0.7c0,0.2,0,0.4,0.1,0.5c0.1,0.1,0.2,0.3,0.3,0.4
		c0.1,0.1,0.3,0.2,0.5,0.2s0.3,0.1,0.5,0.1c0.3,0,0.6-0.1,0.8-0.2c0.2-0.1,0.4-0.3,0.6-0.4c0.2-0.2,0.3-0.4,0.4-0.6
		c0.1-0.2,0.1-0.5,0.1-0.8V170H319.5z"/>
	<path class="st2" d="M328.3,168.4c-0.1-0.2-0.4-0.4-0.6-0.6c-0.3-0.2-0.6-0.2-0.9-0.2c-0.4,0-0.7,0.1-1,0.2
		c-0.3,0.1-0.5,0.3-0.7,0.5s-0.4,0.5-0.5,0.8c-0.1,0.3-0.2,0.6-0.2,1s0.1,0.7,0.2,1c0.1,0.3,0.3,0.6,0.5,0.8
		c0.2,0.2,0.4,0.4,0.7,0.5c0.3,0.1,0.6,0.2,1,0.2c0.4,0,0.7-0.1,1-0.2c0.3-0.1,0.5-0.3,0.7-0.6l0.7,0.5c-0.3,0.3-0.6,0.6-1,0.8
		c-0.4,0.2-0.8,0.3-1.4,0.3c-0.5,0-0.9-0.1-1.3-0.2c-0.4-0.2-0.7-0.4-1-0.7c-0.3-0.3-0.5-0.6-0.7-1c-0.2-0.4-0.2-0.8-0.2-1.3
		s0.1-0.9,0.2-1.3c0.2-0.4,0.4-0.7,0.7-1c0.3-0.3,0.6-0.5,1-0.7c0.4-0.2,0.8-0.2,1.3-0.2c0.4,0,0.8,0.1,1.2,0.3
		c0.4,0.2,0.8,0.4,1,0.8L328.3,168.4z"/>
	<path class="st2" d="M332.5,164.6c0,0.2-0.1,0.3-0.2,0.5c-0.1,0.1-0.3,0.2-0.4,0.2c-0.2,0-0.3-0.1-0.4-0.2
		c-0.1-0.1-0.2-0.3-0.2-0.5s0.1-0.3,0.2-0.5c0.1-0.1,0.3-0.2,0.4-0.2c0.2,0,0.3,0.1,0.4,0.2C332.4,164.3,332.5,164.5,332.5,164.6z
		 M332.3,173.1h-0.9V167h0.9V173.1z"/>
	<path class="st2" d="M341.7,170c0,0.5-0.1,0.9-0.2,1.3c-0.2,0.4-0.4,0.7-0.7,1c-0.3,0.3-0.6,0.5-1,0.7c-0.4,0.2-0.8,0.2-1.3,0.2
		c-0.5,0-0.9-0.1-1.3-0.2c-0.4-0.2-0.7-0.4-1-0.7c-0.3-0.3-0.5-0.6-0.7-1c-0.2-0.4-0.2-0.8-0.2-1.3s0.1-0.9,0.2-1.3s0.4-0.7,0.7-1
		c0.3-0.3,0.6-0.5,1-0.7c0.4-0.2,0.8-0.2,1.3-0.2c0.5,0,0.9,0.1,1.3,0.2c0.4,0.2,0.7,0.4,1,0.7c0.3,0.3,0.5,0.6,0.7,1
		S341.7,169.6,341.7,170z M340.8,170c0-0.3-0.1-0.7-0.2-1c-0.1-0.3-0.3-0.6-0.5-0.8c-0.2-0.2-0.4-0.4-0.7-0.5
		c-0.3-0.1-0.6-0.2-1-0.2s-0.7,0.1-1,0.2c-0.3,0.1-0.5,0.3-0.7,0.5c-0.2,0.2-0.4,0.5-0.5,0.8c-0.1,0.3-0.2,0.6-0.2,1s0.1,0.7,0.2,1
		c0.1,0.3,0.3,0.6,0.5,0.8c0.2,0.2,0.4,0.4,0.7,0.5c0.3,0.1,0.6,0.2,1,0.2s0.7-0.1,1-0.2c0.3-0.1,0.5-0.3,0.7-0.5
		c0.2-0.2,0.4-0.5,0.5-0.8C340.7,170.7,340.8,170.4,340.8,170z M338.7,165.7h-0.8l1.3-1.9h1.2L338.7,165.7z"/>
	<path class="st2" d="M345.4,167c0,0.2,0,0.3,0,0.5c0,0.2,0,0.4,0,0.5h0c0.2-0.4,0.5-0.6,0.8-0.9c0.4-0.2,0.8-0.3,1.2-0.3
		c0.8,0,1.4,0.2,1.7,0.7c0.4,0.5,0.6,1.1,0.6,1.8v3.7H349v-3.4c0-0.3,0-0.6-0.1-0.9c-0.1-0.3-0.1-0.5-0.3-0.7
		c-0.1-0.2-0.3-0.3-0.5-0.4s-0.5-0.2-0.8-0.2c-0.2,0-0.5,0-0.7,0.1s-0.4,0.2-0.6,0.4s-0.3,0.4-0.4,0.7c-0.1,0.3-0.2,0.7-0.2,1.1v3.1
		h-0.9v-4.8c0-0.2,0-0.4,0-0.6c0-0.3,0-0.5,0-0.7H345.4z"/>
</g>
<rect id="XMLID_1_" x="112" y="65.8" class="st0" width="261" height="76.4"/>
<g class="st1">
	<path class="st2" d="M112.5,115.1l18.4-46.2h6.5l18.1,46.2h-7.1l-5-12.8h-19.6l-5.1,12.8H112.5z M125.6,97.4h15.7l-7.8-19.9
		L125.6,97.4z"/>
	<path class="st2" d="M199.8,113.9c-4,1.2-7,1.9-8.9,2.1c-1.9,0.2-3.8,0.3-5.8,0.3c-5.5,0-9.9-1-13.1-3c-3.2-2-5.6-4.9-7.2-8.7
		c-1.7-3.8-2.5-8-2.5-12.6c0-7.1,1.9-12.9,5.6-17.5c3.8-4.5,9.5-6.8,17.1-6.8c4.6,0,9.5,0.7,14.6,2.1v6.1c-4.7-1.6-7.9-2.5-9.7-2.8
		s-3.4-0.4-5-0.4c-5.6,0-9.6,1.9-12,5.7c-2.5,3.8-3.7,8.4-3.7,13.7c0,3.3,0.5,6.4,1.6,9.3c1.1,2.9,2.8,5.3,5.3,7.2
		c2.5,1.9,5.8,2.8,10,2.8c1.1,0,2.1-0.1,3-0.2c0.9-0.1,2.3-0.4,4.1-1V95.2h6.6V113.9z"/>
	<path class="st2" d="M214.2,115.1V68.9h25.9v4.9h-19.3v14.8H237v4.8h-16.2v16.7h20.7v4.9H214.2z"/>
	<path class="st2" d="M262.8,115.1V73.8h-16.4v-4.9h39.4v4.9h-16.4v41.3H262.8z"/>
	<path class="st2" d="M295.2,115.1V68.9h6.6v46.2H295.2z"/>
	<path class="st2" d="M351.3,112.8c-1.9,1-3.6,1.7-5.1,2.2c-1.5,0.5-3,0.8-4.6,1c-1.6,0.2-3.3,0.3-5.2,0.3c-7.8,0-13.5-2.3-17.1-6.9
		c-3.6-4.6-5.4-10.4-5.4-17.3c0-7.1,1.9-12.9,5.6-17.5c3.7-4.5,9.5-6.8,17.2-6.8c4.1,0,9,0.7,14.5,2v6.2c-4.7-1.6-7.9-2.6-9.6-2.8
		c-1.8-0.3-3.4-0.4-5-0.4c-5.5,0-9.6,1.9-12,5.6s-3.7,8.4-3.7,13.8c0,5.7,1.4,10.3,4.3,13.8c2.9,3.5,6.9,5.3,12.2,5.3
		c1.5,0,2.9-0.1,4.4-0.4c1.4-0.3,2.9-0.6,4.3-1.2c1.4-0.5,3.2-1.3,5.3-2.5V112.8z"/>
</g>
<path id="XMLID_94_" class="st2" d="M32.9,115.8c-0.9-0.3-1.5-1.3-1.2-2.2c0.3-1,1.3-1.5,2.2-1.2c0.9,0.3,1.5,1.3,1.2,2.2
	C34.8,115.6,33.8,116.1,32.9,115.8z"/>
<path id="XMLID_93_" class="st2" d="M28.4,114.6c-0.9-0.3-1.5-1.3-1.2-2.2c0.3-1,1.3-1.5,2.2-1.2c0.9,0.3,1.5,1.3,1.2,2.2
	C30.3,114.3,29.3,114.8,28.4,114.6z"/>
<path id="XMLID_92_" class="st2" d="M37.7,115.9c-0.9-0.3-1.5-1.3-1.2-2.2c0.3-1,1.3-1.5,2.2-1.2s1.5,1.3,1.2,2.2
	C39.6,115.6,38.6,116.2,37.7,115.9z"/>
<path id="XMLID_91_" class="st2" d="M42.1,114.5c-0.8-0.2-1.3-1-1-1.8c0.2-0.8,1-1.2,1.8-1c0.8,0.2,1.3,1,1.1,1.8
	C43.8,114.3,42.9,114.7,42.1,114.5z"/>
<path id="XMLID_90_" class="st2" d="M25,112c-0.8-0.2-1.3-1-1-1.8c0.2-0.8,1-1.2,1.8-1c0.8,0.2,1.3,1,1,1.8
	C26.6,111.8,25.8,112.2,25,112z"/>
<path id="XMLID_89_" class="st2" d="M22.5,109.4c-0.6-0.2-1-0.8-0.9-1.4c0.2-0.6,0.8-1,1.5-0.8c0.7,0.2,1,0.8,0.9,1.4
	C23.9,109.2,23.2,109.5,22.5,109.4z"/>
<path id="XMLID_88_" class="st2" d="M45.2,112.5c-0.7-0.2-1-0.8-0.9-1.4c0.2-0.6,0.8-1,1.5-0.8c0.7,0.2,1,0.8,0.9,1.4
	C46.5,112.4,45.8,112.7,45.2,112.5z"/>
<path id="XMLID_87_" class="st2" d="M21,106.7c-0.5-0.1-0.8-0.7-0.6-1.2c0.1-0.5,0.7-0.8,1.2-0.7c0.5,0.1,0.8,0.7,0.6,1.2
	C22,106.6,21.5,106.9,21,106.7z"/>
<ellipse id="XMLID_86_" class="st2" cx="48.2" cy="109.1" rx="0.9" ry="0.9"/>
<path id="XMLID_85_" class="st2" d="M20.2,104.3c-0.4-0.1-0.7-0.6-0.6-1c0.1-0.4,0.6-0.7,1-0.5c0.4,0.1,0.7,0.6,0.6,1
	C21.1,104.1,20.6,104.4,20.2,104.3z"/>
<path id="XMLID_84_" class="st2" d="M19.7,102c-0.4-0.1-0.6-0.5-0.5-0.8c0.1-0.3,0.5-0.5,0.8-0.4c0.4,0.1,0.6,0.5,0.5,0.8
	C20.4,101.9,20,102.1,19.7,102z"/>
<path id="XMLID_83_" class="st2" d="M49.2,107c-0.4-0.1-0.6-0.5-0.5-0.8c0.1-0.3,0.5-0.5,0.8-0.4c0.4,0.1,0.6,0.5,0.5,0.8
	C49.9,106.9,49.5,107.1,49.2,107z"/>
<path id="XMLID_82_" class="st3" d="M8.8,107.1c0,1.4-1.1,2.5-2.4,2.5S4,108.5,4,107.1s1.1-2.5,2.4-2.5
	C7.7,104.7,8.8,105.8,8.8,107.1z"/>
<path id="XMLID_81_" class="st3" d="M7.8,99.9c0,1.4-1.1,2.5-2.4,2.5S3,101.3,3,99.9s1.1-2.5,2.4-2.5S7.8,98.5,7.8,99.9z"/>
<path id="XMLID_80_" class="st3" d="M11.9,113.3c0,1.4-1.1,2.5-2.4,2.5s-2.4-1.1-2.4-2.5c0-1.4,1.1-2.5,2.4-2.5
	C10.9,110.9,11.9,112,11.9,113.3z"/>
<path id="XMLID_79_" class="st3" d="M15.4,118.2c0,1.2-0.9,2.1-2.1,2.1c-1.1,0-2.1-0.9-2.1-2.1c0-1.2,0.9-2.1,2.1-2.1
	C14.4,116.1,15.4,117,15.4,118.2z"/>
<path id="XMLID_78_" class="st3" d="M9.4,93.3c0,1.2-0.9,2.1-2.1,2.1c-1.1,0-2.1-0.9-2.1-2.1c0-1.2,0.9-2.1,2.1-2.1
	C8.4,91.2,9.4,92.2,9.4,93.3z"/>
<path id="XMLID_77_" class="st3" d="M19.1,122.1c0,1.1-0.8,1.9-1.9,1.9c-1,0-1.9-0.9-1.9-1.9c0-1.1,0.8-1.9,1.9-1.9
	C18.3,120.2,19.1,121.1,19.1,122.1z"/>
<path id="XMLID_76_" class="st3" d="M11.1,87.9c0,1.1-0.8,1.9-1.9,1.9c-1,0-1.9-0.9-1.9-1.9c0-1.1,0.8-1.9,1.9-1.9
	C10.2,86,11.1,86.9,11.1,87.9z"/>
<path id="XMLID_75_" class="st3" d="M24.4,124.3c0,1-0.8,1.7-1.7,1.7c-0.9,0-1.7-0.8-1.7-1.7c0-1,0.8-1.7,1.7-1.7
	C23.6,122.5,24.4,123.3,24.4,124.3z"/>
<path id="XMLID_74_" class="st3" d="M13.8,84.2c0,1-0.8,1.7-1.7,1.7s-1.7-0.8-1.7-1.7c0-1,0.8-1.7,1.7-1.7
	C13.1,82.5,13.8,83.3,13.8,84.2z"/>
<path id="XMLID_73_" class="st3" d="M29.1,125.5c0,0.7-0.5,1.3-1.2,1.3s-1.2-0.6-1.2-1.3c0-0.7,0.5-1.3,1.2-1.3
	S29.1,124.8,29.1,125.5z"/>
<path id="XMLID_72_" class="st3" d="M15.7,80.4c0,0.7-0.5,1.3-1.2,1.3s-1.2-0.6-1.2-1.3c0-0.7,0.5-1.3,1.2-1.3
	C15.1,79.2,15.7,79.8,15.7,80.4z"/>
<path id="XMLID_71_" class="st3" d="M33.1,125.6c0,0.6-0.5,1.1-1,1.1c-0.6,0-1-0.5-1-1.1s0.5-1.1,1-1.1
	C32.7,124.6,33.1,125,33.1,125.6z"/>
<path id="XMLID_70_" class="st3" d="M18.1,78.4c0,0.5-0.4,0.9-0.9,0.9s-0.9-0.4-0.9-0.9s0.4-0.9,0.9-0.9S18.1,77.9,18.1,78.4z"/>
<path id="XMLID_69_" class="st3" d="M20.6,76.8c0,0.5-0.4,0.9-0.9,0.9s-0.9-0.4-0.9-0.9s0.4-0.9,0.9-0.9
	C20.2,75.8,20.6,76.2,20.6,76.8z"/>
<path id="XMLID_68_" class="st4" d="M22.2,113.2c0.6,1,0.3,2.2-0.6,2.8s-2.2,0.3-2.8-0.7c-0.6-1-0.3-2.2,0.6-2.8
	C20.3,112,21.6,112.3,22.2,113.2z"/>
<path id="XMLID_67_" class="st4" d="M18.3,108.6c0.6,1,0.3,2.2-0.7,2.8c-0.9,0.6-2.2,0.3-2.8-0.7s-0.3-2.2,0.6-2.8
	C16.5,107.3,17.7,107.6,18.3,108.6z"/>
<path id="XMLID_66_" class="st4" d="M27.1,116.3c0.6,1,0.3,2.2-0.6,2.8s-2.2,0.3-2.8-0.7c-0.6-1-0.3-2.2,0.6-2.8
	S26.5,115.3,27.1,116.3z"/>
<path id="XMLID_65_" class="st4" d="M31.5,118.2c0.5,0.8,0.3,1.9-0.6,2.4c-0.8,0.5-1.9,0.2-2.4-0.6c-0.5-0.8-0.3-1.9,0.6-2.4
	S31.1,117.4,31.5,118.2z"/>
<path id="XMLID_64_" class="st4" d="M16.3,104.4c0.5,0.8,0.3,1.9-0.5,2.4c-0.8,0.5-1.9,0.2-2.4-0.6s-0.3-1.9,0.6-2.4
	C14.8,103.4,15.8,103.6,16.3,104.4z"/>
<path id="XMLID_63_" class="st4" d="M35.9,119.3c0.5,0.7,0.2,1.7-0.5,2.2s-1.7,0.2-2.2-0.5s-0.2-1.7,0.5-2.2
	C34.5,118.4,35.5,118.6,35.9,119.3z"/>
<path id="XMLID_62_" class="st4" d="M15.2,99.9c0.5,0.7,0.2,1.7-0.5,2.2c-0.7,0.4-1.7,0.2-2.2-0.5s-0.2-1.7,0.5-2.2
	C13.8,99,14.7,99.2,15.2,99.9z"/>
<path id="XMLID_61_" class="st4" d="M41.3,118.9c0.4,0.7,0.2,1.5-0.5,1.9s-1.5,0.2-1.9-0.5s-0.2-1.5,0.5-2
	C40,118,40.9,118.2,41.3,118.9z"/>
<path id="XMLID_60_" class="st4" d="M15.3,95.7c0.4,0.7,0.2,1.5-0.5,2c-0.7,0.4-1.5,0.2-1.9-0.5c-0.4-0.7-0.2-1.5,0.5-1.9
	C14,94.8,14.8,95,15.3,95.7z"/>
<path id="XMLID_59_" class="st4" d="M44.4,117.5c0.3,0.5,0.2,1.1-0.3,1.4s-1.1,0.1-1.4-0.4c-0.3-0.5-0.2-1.1,0.3-1.4
	C43.5,116.8,44.1,117,44.4,117.5z"/>
<path id="XMLID_58_" class="st4" d="M16.3,92.6c0.3,0.5,0.2,1.1-0.3,1.4c-0.5,0.3-1.1,0.1-1.4-0.4c-0.3-0.5-0.2-1.1,0.3-1.4
	C15.4,91.9,16,92.1,16.3,92.6z"/>
<path id="XMLID_57_" class="st4" d="M17.4,90.5c0.2,0.4,0.1,0.8-0.2,1c-0.3,0.2-0.8,0.1-1-0.3c-0.2-0.4-0.1-0.8,0.2-1
	C16.8,90,17.2,90.2,17.4,90.5z"/>
<path id="XMLID_56_" class="st4" d="M19.2,88.5c0.2,0.4,0.1,0.8-0.2,1c-0.3,0.2-0.8,0.1-1-0.3c-0.2-0.4-0.1-0.8,0.2-1
	C18.5,88,19,88.1,19.2,88.5z"/>
<path id="XMLID_55_" class="st2" d="M81.8,105.8c-0.2,2.4-2.4,4.1-4.8,3.9s-4.2-2.4-3.9-4.8c0.2-2.4,2.4-4.1,4.8-3.9
	S82.1,103.4,81.8,105.8z"/>
<path id="XMLID_54_" class="st2" d="M80.7,117.1c-0.2,2.4-2.4,4.1-4.8,3.9s-4.2-2.4-3.9-4.8c0.2-2.4,2.4-4.1,4.8-3.9
	C79.1,112.6,80.9,114.7,80.7,117.1z"/>
<path id="XMLID_53_" class="st2" d="M80,93.1c-0.2,2.4-2.4,4.1-4.8,3.9s-4.2-2.4-3.9-4.8c0.2-2.4,2.4-4.1,4.8-3.9
	C78.5,88.6,80.2,90.7,80,93.1z"/>
<path id="XMLID_52_" class="st2" d="M74,80.8c-0.2,2.3-2.2,3.9-4.3,3.7c-2.1-0.2-3.7-2.2-3.5-4.5s2.2-3.9,4.3-3.7
	C72.7,76.5,74.2,78.5,74,80.8z"/>
<path id="XMLID_51_" class="st2" d="M77.7,126.3c-0.2,2-1.9,3.5-3.9,3.3c-1.9-0.2-3.3-2-3.1-4c0.2-2,1.9-3.5,3.9-3.3
	C76.5,122.5,77.9,124.3,77.7,126.3z"/>
<path id="XMLID_50_" class="st2" d="M75,133.5c-0.2,1.7-1.6,2.9-3.1,2.7c-1.6-0.2-2.7-1.6-2.5-3.3c0.2-1.7,1.6-2.9,3.1-2.7
	C74.1,130.3,75.2,131.8,75,133.5z"/>
<path id="XMLID_49_" class="st2" d="M57.7,65.5c-0.2,1.7-1.6,2.9-3.1,2.7c-1.6-0.2-2.7-1.6-2.5-3.3c0.2-1.7,1.6-2.9,3.1-2.7
	C56.8,62.4,57.9,63.9,57.7,65.5z"/>
<path id="XMLID_48_" class="st2" d="M71.6,139.1c-0.1,1.3-1.3,2.2-2.5,2c-1.3-0.1-2.2-1.3-2.1-2.5c0.1-1.3,1.3-2.2,2.5-2
	C70.8,136.8,71.7,137.9,71.6,139.1z"/>
<path id="XMLID_47_" class="st2" d="M43.6,61.3c-0.1,1.3-1.3,2.2-2.5,2c-1.3-0.1-2.2-1.3-2.1-2.5c0.1-1.2,1.3-2.2,2.5-2
	C42.8,58.9,43.8,60,43.6,61.3z"/>
<path id="XMLID_46_" class="st2" d="M68.9,144.4c-0.1,1.1-1.1,1.9-2.1,1.8c-1.1-0.1-1.8-1.1-1.7-2.2c0.1-1.1,1.1-1.9,2.1-1.8
	C68.2,142.3,69,143.3,68.9,144.4z"/>
<path id="XMLID_45_" class="st2" d="M65.6,148.5c-0.1,0.9-0.9,1.6-1.8,1.5c-0.9-0.1-1.5-0.9-1.4-1.8s0.9-1.6,1.8-1.5
	C65.1,146.8,65.7,147.6,65.6,148.5z"/>
<path id="XMLID_44_" class="st2" d="M18.9,64.4c-0.1,0.9-0.9,1.6-1.8,1.5s-1.5-0.9-1.4-1.8c0.1-0.9,0.9-1.6,1.8-1.5
	C18.4,62.7,19,63.5,18.9,64.4z"/>
<ellipse id="XMLID_43_" class="st4" cx="66.7" cy="109.5" rx="2.4" ry="2.5"/>
<path id="XMLID_42_" class="st4" d="M67.7,115.8c0,1-0.8,1.9-1.9,1.9c-1,0-1.9-0.9-1.9-1.9c0-1.1,0.8-1.9,1.9-1.9
	C66.8,113.9,67.7,114.7,67.7,115.8z"/>
<path id="XMLID_41_" class="st2" d="M30.9,61.4c-0.3,1.2-1.6,1.9-2.8,1.6c-1.2-0.3-1.9-1.6-1.5-2.8c0.3-1.2,1.6-1.9,2.8-1.6
	C30.6,58.9,31.3,60.2,30.9,61.4z"/>
<path id="XMLID_40_" class="st2" d="M62.7,152.4c-0.1,0.9-0.9,1.6-1.8,1.5c-0.9-0.1-1.5-0.9-1.4-1.8c0.1-0.9,0.9-1.6,1.8-1.5
	C62.1,150.6,62.8,151.4,62.7,152.4z"/>
<path id="XMLID_39_" class="st2" d="M58.8,156c-0.1,0.7-0.7,1.2-1.3,1.1c-0.7-0.1-1.1-0.7-1.1-1.4c0.1-0.7,0.7-1.2,1.3-1.1
	C58.4,154.7,58.9,155.3,58.8,156z"/>
<path id="XMLID_38_" class="st2" d="M55.2,158.7c0,0.5-0.5,0.9-1,0.8s-0.8-0.5-0.8-1c0.1-0.5,0.5-0.9,1-0.8
	C54.9,157.7,55.3,158.2,55.2,158.7z"/>
<path id="XMLID_37_" class="st2" d="M65.6,71.6c-0.2,2.3-2.2,3.9-4.3,3.7c-2.1-0.2-3.7-2.2-3.5-4.5c0.2-2.3,2.2-3.9,4.3-3.7
	C64.2,67.3,65.8,69.3,65.6,71.6z"/>
<path id="XMLID_36_" class="st2" d="M50.7,62.7c-0.2,1.7-1.6,2.9-3.1,2.7c-1.6-0.2-2.7-1.6-2.5-3.3c0.2-1.6,1.6-2.8,3.1-2.6
	C49.8,59.6,50.9,61.1,50.7,62.7z"/>
<path id="XMLID_35_" class="st2" d="M37.4,60.7c-0.1,1.3-1.3,2.2-2.5,2c-1.3-0.1-2.2-1.2-2.1-2.5c0.1-1.3,1.3-2.2,2.5-2
	C36.6,58.3,37.6,59.4,37.4,60.7z"/>
<path id="XMLID_34_" class="st2" d="M24.5,62.8c-0.3,1.2-1.6,1.9-2.8,1.6c-1.2-0.3-1.9-1.6-1.5-2.8c0.3-1.2,1.6-1.9,2.8-1.6
	C24.2,60.4,24.9,61.6,24.5,62.8z"/>
<path id="XMLID_33_" class="st4" d="M68.6,95.4c0,1.8-1.3,3.2-3,3.2c-1.7,0-3-1.4-3-3.2s1.3-3.2,3-3.2
	C67.3,92.2,68.6,93.6,68.6,95.4z"/>
<path id="XMLID_32_" class="st4" d="M69.3,102.8c0,1.7-1.3,3-2.8,3c-1.6,0-2.8-1.4-2.8-3c0-1.7,1.3-3,2.8-3S69.3,101.1,69.3,102.8z"
	/>
<path id="XMLID_31_" class="st4" d="M53.7,74.1c0,1.4-1.1,2.5-2.4,2.5c-1.3,0-2.4-1.1-2.4-2.5s1.1-2.5,2.4-2.5
	C52.6,71.6,53.7,72.7,53.7,74.1z"/>
<path id="XMLID_30_" class="st4" d="M66.8,121c0,1.1-0.8,1.9-1.9,1.9c-1,0-1.9-0.9-1.9-1.9c0-1.1,0.8-1.9,1.9-1.9
	C66,119,66.8,119.9,66.8,121z"/>
<path id="XMLID_29_" class="st4" d="M65.3,125.5c0,1-0.8,1.7-1.7,1.7c-0.9,0-1.7-0.8-1.7-1.7c0-1,0.8-1.7,1.7-1.7
	C64.5,123.8,65.3,124.6,65.3,125.5z"/>
<path id="XMLID_28_" class="st4" d="M63.1,130.1c0,0.7-0.6,1.3-1.3,1.3s-1.3-0.6-1.3-1.3c0-0.7,0.6-1.3,1.3-1.3
	C62.6,128.8,63.1,129.4,63.1,130.1z"/>
<path id="XMLID_27_" class="st4" d="M59.2,79.4c0,1.8-1.3,3.2-3,3.2s-3-1.4-3-3.2c0-1.8,1.3-3.2,3-3.2
	C57.8,76.2,59.2,77.6,59.2,79.4z"/>
<path id="XMLID_26_" class="st4" d="M65.6,86.5c0,2.3-1.8,4.1-3.9,4.1c-2.2,0-3.9-1.8-3.9-4.1s1.7-4.1,3.9-4.1
	C63.8,82.4,65.6,84.3,65.6,86.5z"/>
<path id="XMLID_25_" class="st4" d="M48.1,70.8c0,1.1-0.8,1.9-1.9,1.9c-1,0-1.9-0.9-1.9-1.9c0-1.1,0.8-1.9,1.9-1.9
	C47.2,68.9,48.1,69.7,48.1,70.8z"/>
<path id="XMLID_24_" class="st4" d="M43.3,69c0,1-0.8,1.7-1.7,1.7s-1.7-0.8-1.7-1.7c0-1,0.8-1.7,1.7-1.7C42.6,67.2,43.3,68,43.3,69z
	"/>
<path id="XMLID_23_" class="st4" d="M38.8,68.1c0,0.7-0.6,1.3-1.3,1.3s-1.3-0.6-1.3-1.3c0-0.7,0.6-1.3,1.3-1.3S38.8,67.4,38.8,68.1z
	"/>
<path id="XMLID_22_" class="st4" d="M34.1,67.9c0,0.6-0.5,1.1-1.1,1.1s-1.1-0.5-1.1-1.1s0.5-1.1,1.1-1.1
	C33.7,66.8,34.1,67.3,34.1,67.9z"/>
<path id="XMLID_21_" class="st2" d="M13.7,67c-0.1,0.9-0.9,1.6-1.8,1.5c-0.9-0.1-1.5-0.9-1.4-1.8c0.1-0.9,0.9-1.6,1.8-1.5
	C13.2,65.3,13.8,66.1,13.7,67z"/>
<path id="XMLID_20_" class="st2" d="M9.3,70c-0.1,0.7-0.7,1.2-1.3,1.1c-0.7-0.1-1.1-0.7-1.1-1.4C7,69,7.6,68.5,8.2,68.6
	C8.9,68.7,9.3,69.4,9.3,70z"/>
<path id="XMLID_19_" class="st2" d="M5.7,74c-0.1,0.5-0.5,0.9-1,0.8c-0.5-0.1-0.8-0.5-0.8-1c0.1-0.5,0.5-0.9,1-0.8
	C5.4,73,5.7,73.5,5.7,74z"/>
<path id="XMLID_18_" class="st4" d="M60.8,133.2c0,0.4-0.3,0.8-0.8,0.8c-0.4,0-0.8-0.4-0.8-0.8s0.4-0.8,0.8-0.8
	C60.4,132.4,60.8,132.8,60.8,133.2z"/>
<path id="XMLID_17_" class="st4" d="M30.2,68.9c0,0.4-0.3,0.8-0.8,0.8c-0.4,0-0.8-0.4-0.8-0.8s0.3-0.8,0.8-0.8
	C29.8,68.1,30.2,68.5,30.2,68.9z"/>
<path id="XMLID_16_" class="st3" d="M35.5,126.1c-0.5-0.2-0.8-0.7-0.7-1.2s0.7-0.8,1.2-0.6c0.5,0.2,0.8,0.7,0.7,1.2
	C36.6,126,36.1,126.3,35.5,126.1z"/>
<path id="XMLID_15_" class="st3" d="M38.7,125.1c-0.4-0.1-0.7-0.5-0.6-0.9c0.1-0.4,0.5-0.6,1-0.5c0.4,0.1,0.7,0.5,0.6,0.9
	C39.5,125,39.1,125.2,38.7,125.1z"/>
<path id="XMLID_14_" class="st3" d="M59.3,105.6c0.2,1.1-0.5,2.2-1.6,2.4s-2.2-0.5-2.4-1.6s0.5-2.2,1.6-2.4
	C57.9,103.8,59,104.5,59.3,105.6z"/>
<path id="XMLID_13_" class="st3" d="M59.1,99.5c0,1.5-1.1,2.6-2.5,2.6s-2.5-1.2-2.5-2.7s1.1-2.6,2.5-2.6
	C58.1,96.8,59.2,98,59.1,99.5z"/>
<path id="XMLID_12_" class="st3" d="M48.3,81.9c0,1.2-1,2.1-2.1,2.1c-1.2,0-2.1-1-2.1-2.2c0-1.2,1-2.1,2.1-2.1S48.3,80.7,48.3,81.9z
	"/>
<path id="XMLID_11_" class="st3" d="M59,111.2c0.2,1-0.4,1.9-1.4,2.1s-1.9-0.4-2.1-1.4c-0.2-1,0.4-1.9,1.4-2.1
	C57.8,109.6,58.7,110.3,59,111.2z"/>
<ellipse id="XMLID_10_" class="st3" cx="56.3" cy="116.6" rx="1.3" ry="1.3"/>
<path id="XMLID_9_" class="st3" d="M55.7,120c0.1,0.5-0.2,1-0.7,1.1s-1-0.2-1.1-0.7s0.2-1,0.7-1.1C55.1,119.2,55.6,119.5,55.7,120z"
	/>
<path id="XMLID_8_" class="st3" d="M52.9,86.8c0,1.4-1.2,2.5-2.6,2.5c-1.4,0-2.6-1.2-2.5-2.5c0-1.4,1.2-2.5,2.6-2.5
	S52.9,85.4,52.9,86.8z"/>
<path id="XMLID_7_" class="st3" d="M57.1,92.4c0,1.6-1.3,2.9-2.8,2.9s-2.8-1.3-2.7-3c0-1.6,1.3-2.9,2.8-2.9
	C55.9,89.5,57.1,90.8,57.1,92.4z"/>
<path id="XMLID_6_" class="st3" d="M42.9,79.4c0,0.9-0.7,1.5-1.5,1.5s-1.5-0.7-1.5-1.6c0-0.9,0.7-1.5,1.5-1.5
	C42.2,77.9,42.9,78.6,42.9,79.4z"/>
<path id="XMLID_5_" class="st3" d="M38.1,78c0,0.7-0.6,1.3-1.3,1.3s-1.3-0.6-1.3-1.3s0.6-1.3,1.3-1.3S38.1,77.3,38.1,78z"/>
<path id="XMLID_4_" class="st3" d="M33.5,77.8c0,0.5-0.4,1-0.9,0.9c-0.5,0-0.9-0.4-0.9-1c0-0.5,0.4-1,0.9-0.9
	C33.1,76.8,33.5,77.2,33.5,77.8z"/>
</svg>
