<?xml version="1.0" encoding="UTF-8" standalone="no"?>
<!-- Generator: Adobe Illustrator 19.0.0, SVG Export Plug-In . SVG Version: 6.00 Build 0)  -->

<svg
   xmlns:dc="http://purl.org/dc/elements/1.1/"
   xmlns:cc="http://creativecommons.org/ns#"
   xmlns:rdf="http://www.w3.org/1999/02/22-rdf-syntax-ns#"
   xmlns:svg="http://www.w3.org/2000/svg"
   xmlns="http://www.w3.org/2000/svg"
   xmlns:sodipodi="http://sodipodi.sourceforge.net/DTD/sodipodi-0.dtd"
   xmlns:inkscape="http://www.inkscape.org/namespaces/inkscape"
   version="1.1"
   id="Capa_1"
   x="0px"
   y="0px"
   viewBox="0 54.5 360 143.5"
   style="enable-background:new 0 54.5 360 143.5;"
   xml:space="preserve"
   inkscape:version="0.91 r13725"
   sodipodi:docname="logoAgetic1.svg"><metadata
     id="metadata252"><rdf:RDF><cc:Work
         rdf:about=""><dc:format>image/svg+xml</dc:format><dc:type
           rdf:resource="http://purl.org/dc/dcmitype/StillImage" /><dc:title /></cc:Work></rdf:RDF></metadata><defs
     id="defs250" /><sodipodi:namedview
     pagecolor="#ffffff"
     bordercolor="#666666"
     borderopacity="1"
     objecttolerance="10"
     gridtolerance="10"
     guidetolerance="10"
     inkscape:pageopacity="0"
     inkscape:pageshadow="2"
     inkscape:window-width="1529"
     inkscape:window-height="831"
     id="namedview248"
     showgrid="false"
     inkscape:zoom="0.81666667"
     inkscape:cx="141.60913"
     inkscape:cy="107.2602"
     inkscape:window-x="10"
     inkscape:window-y="34"
     inkscape:window-maximized="0"
     inkscape:current-layer="g143" /><style
     type="text/css"
     id="style3">
	.st0{fill:none;}
	.st1{enable-background:new    ;}
	.st2{fill:#FFFFFF;}
	.st3{opacity:0.8;fill:#FFFFFF;enable-background:new    ;}
	.st4{opacity:0.5;fill:#FFFFFF;enable-background:new    ;}
</style><rect
     id="XMLID_2_"
     x="49.922447"
     y="145.8"
     class="st0"
     width="313.89999"
     height="48.799999"
     style="fill:none" /><rect
     id="XMLID_1_"
     x="120.12245"
     y="65.800003"
     class="st0"
     width="261"
     height="76.400002"
     style="fill:none" /><g
     class="st1"
     id="g143"
     transform="translate(6.122449,18)"
     style="enable-background:new"><path
       class="st2"
       d="m 114.5,115.1 18.4,-46.2 6.5,0 18.1,46.2 -7.1,0 -5,-12.8 -19.6,0 -5.1,12.8 -6.2,0 z m 13.1,-17.7 15.7,0 -7.8,-19.9 -7.9,19.9 z"
       id="path145"
       inkscape:connector-curvature="0"
       style="fill:#ffffff" /><path
       class="st2"
       d="m 201.8,113.9 c -4,1.2 -7,1.9 -8.9,2.1 -1.9,0.2 -3.8,0.3 -5.8,0.3 -5.5,0 -9.9,-1 -13.1,-3 -3.2,-2 -5.6,-4.9 -7.2,-8.7 -1.7,-3.8 -2.5,-8 -2.5,-12.6 0,-7.1 1.9,-12.9 5.6,-17.5 3.8,-4.5 9.5,-6.8 17.1,-6.8 4.6,0 9.5,0.7 14.6,2.1 l 0,6.1 c -4.7,-1.6 -7.9,-2.5 -9.7,-2.8 -1.8,-0.3 -3.4,-0.4 -5,-0.4 -5.6,0 -9.6,1.9 -12,5.7 -2.5,3.8 -3.7,8.4 -3.7,13.7 0,3.3 0.5,6.4 1.6,9.3 1.1,2.9 2.8,5.3 5.3,7.2 2.5,1.9 5.8,2.8 10,2.8 1.1,0 2.1,-0.1 3,-0.2 0.9,-0.1 2.3,-0.4 4.1,-1 l 0,-15 6.6,0 0,18.7 z"
       id="path147"
       inkscape:connector-curvature="0"
       style="fill:#ffffff" /><path
       class="st2"
       d="m 216.2,115.1 0,-46.2 25.9,0 0,4.9 -19.3,0 0,14.8 16.2,0 0,4.8 -16.2,0 0,16.7 20.7,0 0,4.9 -27.3,0 z"
       id="path149"
       inkscape:connector-curvature="0"
       style="fill:#ffffff" /><path
       class="st2"
       d="m 264.8,115.1 0,-41.3 -16.4,0 0,-4.9 39.4,0 0,4.9 -16.4,0 0,41.3 -6.6,0 z"
       id="path151"
       inkscape:connector-curvature="0"
       style="fill:#ffffff" /><path
       class="st2"
       d="m 297.2,115.1 0,-46.2 6.6,0 0,46.2 -6.6,0 z"
       id="path153"
       inkscape:connector-curvature="0"
       style="fill:#ffffff" /><path
       class="st2"
       d="m 353.3,112.8 c -1.9,1 -3.6,1.7 -5.1,2.2 -1.5,0.5 -3,0.8 -4.6,1 -1.6,0.2 -3.3,0.3 -5.2,0.3 -7.8,0 -13.5,-2.3 -17.1,-6.9 -3.6,-4.6 -5.4,-10.4 -5.4,-17.3 0,-7.1 1.9,-12.9 5.6,-17.5 3.7,-4.5 9.5,-6.8 17.2,-6.8 4.1,0 9,0.7 14.5,2 l 0,6.2 c -4.7,-1.6 -7.9,-2.6 -9.6,-2.8 -1.8,-0.3 -3.4,-0.4 -5,-0.4 -5.5,0 -9.6,1.9 -12,5.6 -2.4,3.7 -3.7,8.4 -3.7,13.8 0,5.7 1.4,10.3 4.3,13.8 2.9,3.5 6.9,5.3 12.2,5.3 1.5,0 2.9,-0.1 4.4,-0.4 1.4,-0.3 2.9,-0.6 4.3,-1.2 1.4,-0.5 3.2,-1.3 5.3,-2.5 l 0,5.6 z"
       id="path155"
       inkscape:connector-curvature="0"
       style="fill:#ffffff" /></g><path
     id="XMLID_94_"
     class="st2"
     d="m 41.022449,115.8 c -0.9,-0.3 -1.5,-1.3 -1.2,-2.2 0.3,-1 1.3,-1.5 2.2,-1.2 0.9,0.3 1.5,1.3 1.2,2.2 -0.3,1 -1.3,1.5 -2.2,1.2 z"
     inkscape:connector-curvature="0"
     style="fill:#ffffff" /><path
     id="XMLID_93_"
     class="st2"
     d="m 36.522449,114.6 c -0.9,-0.3 -1.5,-1.3 -1.2,-2.2 0.3,-1 1.3,-1.5 2.2,-1.2 0.9,0.3 1.5,1.3 1.2,2.2 -0.3,0.9 -1.3,1.4 -2.2,1.2 z"
     inkscape:connector-curvature="0"
     style="fill:#ffffff" /><path
     id="XMLID_92_"
     class="st2"
     d="m 45.822449,115.9 c -0.9,-0.3 -1.5,-1.3 -1.2,-2.2 0.3,-1 1.3,-1.5 2.2,-1.2 0.9,0.3 1.5,1.3 1.2,2.2 -0.3,0.9 -1.3,1.5 -2.2,1.2 z"
     inkscape:connector-curvature="0"
     style="fill:#ffffff" /><path
     id="XMLID_91_"
     class="st2"
     d="m 50.222449,114.5 c -0.8,-0.2 -1.3,-1 -1,-1.8 0.2,-0.8 1,-1.2 1.8,-1 0.8,0.2 1.3,1 1.1,1.8 -0.2,0.8 -1.1,1.2 -1.9,1 z"
     inkscape:connector-curvature="0"
     style="fill:#ffffff" /><path
     id="XMLID_90_"
     class="st2"
     d="m 33.122449,112 c -0.8,-0.2 -1.3,-1 -1,-1.8 0.2,-0.8 1,-1.2 1.8,-1 0.8,0.2 1.3,1 1,1.8 -0.2,0.8 -1,1.2 -1.8,1 z"
     inkscape:connector-curvature="0"
     style="fill:#ffffff" /><path
     id="XMLID_89_"
     class="st2"
     d="m 30.622449,109.4 c -0.6,-0.2 -1,-0.8 -0.9,-1.4 0.2,-0.6 0.8,-1 1.5,-0.8 0.7,0.2 1,0.8 0.9,1.4 -0.1,0.6 -0.8,0.9 -1.5,0.8 z"
     inkscape:connector-curvature="0"
     style="fill:#ffffff" /><path
     id="XMLID_88_"
     class="st2"
     d="m 53.322449,112.5 c -0.7,-0.2 -1,-0.8 -0.9,-1.4 0.2,-0.6 0.8,-1 1.5,-0.8 0.7,0.2 1,0.8 0.9,1.4 -0.2,0.7 -0.9,1 -1.5,0.8 z"
     inkscape:connector-curvature="0"
     style="fill:#ffffff" /><path
     id="XMLID_87_"
     class="st2"
     d="m 29.122449,106.7 c -0.5,-0.1 -0.8,-0.7 -0.6,-1.2 0.1,-0.5 0.7,-0.8 1.2,-0.7 0.5,0.1 0.8,0.7 0.6,1.2 -0.2,0.6 -0.7,0.9 -1.2,0.7 z"
     inkscape:connector-curvature="0"
     style="fill:#ffffff" /><ellipse
     id="XMLID_86_"
     class="st2"
     cx="56.322449"
     cy="109.1"
     style="fill:#ffffff"
     r="0.89999998" /><path
     id="XMLID_85_"
     class="st2"
     d="m 28.322449,104.3 c -0.4,-0.1 -0.7,-0.6 -0.6,-1 0.1,-0.4 0.6,-0.7 1,-0.5 0.4,0.1 0.7,0.6 0.6,1 -0.1,0.3 -0.6,0.6 -1,0.5 z"
     inkscape:connector-curvature="0"
     style="fill:#ffffff" /><path
     id="XMLID_84_"
     class="st2"
     d="m 27.822449,102 c -0.4,-0.1 -0.6,-0.5 -0.5,-0.8 0.1,-0.3 0.5,-0.5 0.8,-0.4 0.4,0.1 0.6,0.5 0.5,0.8 -0.1,0.3 -0.5,0.5 -0.8,0.4 z"
     inkscape:connector-curvature="0"
     style="fill:#ffffff" /><path
     id="XMLID_83_"
     class="st2"
     d="m 57.322449,107 c -0.4,-0.1 -0.6,-0.5 -0.5,-0.8 0.1,-0.3 0.5,-0.5 0.8,-0.4 0.4,0.1 0.6,0.5 0.5,0.8 -0.1,0.3 -0.5,0.5 -0.8,0.4 z"
     inkscape:connector-curvature="0"
     style="fill:#ffffff" /><path
     id="XMLID_82_"
     class="st3"
     d="m 16.922449,107.1 c 0,1.4 -1.1,2.5 -2.4,2.5 -1.3,0 -2.4,-1.1 -2.4,-2.5 0,-1.4 1.1,-2.5 2.4,-2.5 1.3,0.1 2.4,1.2 2.4,2.5 z"
     inkscape:connector-curvature="0"
     style="opacity:0.8;fill:#ffffff;enable-background:new" /><path
     id="XMLID_81_"
     class="st3"
     d="m 15.922449,99.9 c 0,1.4 -1.1,2.5 -2.4,2.5 -1.3,0 -2.4,-1.1 -2.4,-2.5 0,-1.4 1.1,-2.5 2.4,-2.5 1.3,0 2.4,1.1 2.4,2.5 z"
     inkscape:connector-curvature="0"
     style="opacity:0.8;fill:#ffffff;enable-background:new" /><path
     id="XMLID_80_"
     class="st3"
     d="m 20.022449,113.3 c 0,1.4 -1.1,2.5 -2.4,2.5 -1.3,0 -2.4,-1.1 -2.4,-2.5 0,-1.4 1.1,-2.5 2.4,-2.5 1.4,0.1 2.4,1.2 2.4,2.5 z"
     inkscape:connector-curvature="0"
     style="opacity:0.8;fill:#ffffff;enable-background:new" /><path
     id="XMLID_79_"
     class="st3"
     d="m 23.522449,118.2 c 0,1.2 -0.9,2.1 -2.1,2.1 -1.1,0 -2.1,-0.9 -2.1,-2.1 0,-1.2 0.9,-2.1 2.1,-2.1 1.1,0 2.1,0.9 2.1,2.1 z"
     inkscape:connector-curvature="0"
     style="opacity:0.8;fill:#ffffff;enable-background:new" /><path
     id="XMLID_78_"
     class="st3"
     d="m 17.522449,93.3 c 0,1.2 -0.9,2.1 -2.1,2.1 -1.1,0 -2.1,-0.9 -2.1,-2.1 0,-1.2 0.9,-2.1 2.1,-2.1 1.1,0 2.1,1 2.1,2.1 z"
     inkscape:connector-curvature="0"
     style="opacity:0.8;fill:#ffffff;enable-background:new" /><path
     id="XMLID_77_"
     class="st3"
     d="m 27.222449,122.1 c 0,1.1 -0.8,1.9 -1.9,1.9 -1,0 -1.9,-0.9 -1.9,-1.9 0,-1.1 0.8,-1.9 1.9,-1.9 1.1,0 1.9,0.9 1.9,1.9 z"
     inkscape:connector-curvature="0"
     style="opacity:0.8;fill:#ffffff;enable-background:new" /><path
     id="XMLID_76_"
     class="st3"
     d="m 19.222449,87.9 c 0,1.1 -0.8,1.9 -1.9,1.9 -1,0 -1.9,-0.9 -1.9,-1.9 0,-1.1 0.8,-1.9 1.9,-1.9 1,0 1.9,0.9 1.9,1.9 z"
     inkscape:connector-curvature="0"
     style="opacity:0.8;fill:#ffffff;enable-background:new" /><path
     id="XMLID_75_"
     class="st3"
     d="m 32.522449,124.3 c 0,1 -0.8,1.7 -1.7,1.7 -0.9,0 -1.7,-0.8 -1.7,-1.7 0,-1 0.8,-1.7 1.7,-1.7 0.9,-0.1 1.7,0.7 1.7,1.7 z"
     inkscape:connector-curvature="0"
     style="opacity:0.8;fill:#ffffff;enable-background:new" /><path
     id="XMLID_74_"
     class="st3"
     d="m 21.922449,84.2 c 0,1 -0.8,1.7 -1.7,1.7 -0.9,0 -1.7,-0.8 -1.7,-1.7 0,-1 0.8,-1.7 1.7,-1.7 1,0 1.7,0.8 1.7,1.7 z"
     inkscape:connector-curvature="0"
     style="opacity:0.8;fill:#ffffff;enable-background:new" /><path
     id="XMLID_73_"
     class="st3"
     d="m 37.222449,125.5 c 0,0.7 -0.5,1.3 -1.2,1.3 -0.7,0 -1.2,-0.6 -1.2,-1.3 0,-0.7 0.5,-1.3 1.2,-1.3 0.7,0 1.2,0.6 1.2,1.3 z"
     inkscape:connector-curvature="0"
     style="opacity:0.8;fill:#ffffff;enable-background:new" /><path
     id="XMLID_72_"
     class="st3"
     d="m 23.822449,80.4 c 0,0.7 -0.5,1.3 -1.2,1.3 -0.7,0 -1.2,-0.6 -1.2,-1.3 0,-0.7 0.5,-1.3 1.2,-1.3 0.6,0.1 1.2,0.7 1.2,1.3 z"
     inkscape:connector-curvature="0"
     style="opacity:0.8;fill:#ffffff;enable-background:new" /><path
     id="XMLID_71_"
     class="st3"
     d="m 41.222449,125.6 c 0,0.6 -0.5,1.1 -1,1.1 -0.6,0 -1,-0.5 -1,-1.1 0,-0.6 0.5,-1.1 1,-1.1 0.6,0.1 1,0.5 1,1.1 z"
     inkscape:connector-curvature="0"
     style="opacity:0.8;fill:#ffffff;enable-background:new" /><path
     id="XMLID_70_"
     class="st3"
     d="m 26.222449,78.4 c 0,0.5 -0.4,0.9 -0.9,0.9 -0.5,0 -0.9,-0.4 -0.9,-0.9 0,-0.5 0.4,-0.9 0.9,-0.9 0.5,0 0.9,0.4 0.9,0.9 z"
     inkscape:connector-curvature="0"
     style="opacity:0.8;fill:#ffffff;enable-background:new" /><path
     id="XMLID_69_"
     class="st3"
     d="m 28.722449,76.8 c 0,0.5 -0.4,0.9 -0.9,0.9 -0.5,0 -0.9,-0.4 -0.9,-0.9 0,-0.5 0.4,-0.9 0.9,-0.9 0.5,-0.1 0.9,0.3 0.9,0.9 z"
     inkscape:connector-curvature="0"
     style="opacity:0.8;fill:#ffffff;enable-background:new" /><path
     id="XMLID_68_"
     class="st4"
     d="m 30.322449,113.2 c 0.6,1 0.3,2.2 -0.6,2.8 -0.9,0.6 -2.2,0.3 -2.8,-0.7 -0.6,-1 -0.3,-2.2 0.6,-2.8 0.9,-0.5 2.2,-0.2 2.8,0.7 z"
     inkscape:connector-curvature="0"
     style="opacity:0.5;fill:#ffffff;enable-background:new" /><path
     id="XMLID_67_"
     class="st4"
     d="m 26.422449,108.6 c 0.6,1 0.3,2.2 -0.7,2.8 -0.9,0.6 -2.2,0.3 -2.8,-0.7 -0.6,-1 -0.3,-2.2 0.6,-2.8 1.1,-0.6 2.3,-0.3 2.9,0.7 z"
     inkscape:connector-curvature="0"
     style="opacity:0.5;fill:#ffffff;enable-background:new" /><path
     id="XMLID_66_"
     class="st4"
     d="m 35.222449,116.3 c 0.6,1 0.3,2.2 -0.6,2.8 -0.9,0.6 -2.2,0.3 -2.8,-0.7 -0.6,-1 -0.3,-2.2 0.6,-2.8 0.9,-0.6 2.2,-0.3 2.8,0.7 z"
     inkscape:connector-curvature="0"
     style="opacity:0.5;fill:#ffffff;enable-background:new" /><path
     id="XMLID_65_"
     class="st4"
     d="m 39.622449,118.2 c 0.5,0.8 0.3,1.9 -0.6,2.4 -0.8,0.5 -1.9,0.2 -2.4,-0.6 -0.5,-0.8 -0.3,-1.9 0.6,-2.4 0.9,-0.5 2,-0.2 2.4,0.6 z"
     inkscape:connector-curvature="0"
     style="opacity:0.5;fill:#ffffff;enable-background:new" /><path
     id="XMLID_64_"
     class="st4"
     d="m 24.422449,104.4 c 0.5,0.8 0.3,1.9 -0.5,2.4 -0.8,0.5 -1.9,0.2 -2.4,-0.6 -0.5,-0.8 -0.3,-1.9 0.6,-2.4 0.8,-0.4 1.8,-0.2 2.3,0.6 z"
     inkscape:connector-curvature="0"
     style="opacity:0.5;fill:#ffffff;enable-background:new" /><path
     id="XMLID_63_"
     class="st4"
     d="m 44.022449,119.3 c 0.5,0.7 0.2,1.7 -0.5,2.2 -0.7,0.5 -1.7,0.2 -2.2,-0.5 -0.5,-0.7 -0.2,-1.7 0.5,-2.2 0.8,-0.4 1.8,-0.2 2.2,0.5 z"
     inkscape:connector-curvature="0"
     style="opacity:0.5;fill:#ffffff;enable-background:new" /><path
     id="XMLID_62_"
     class="st4"
     d="m 23.322449,99.9 c 0.5,0.7 0.2,1.7 -0.5,2.2 -0.7,0.4 -1.7,0.2 -2.2,-0.5 -0.5,-0.7 -0.2,-1.7 0.5,-2.2 0.8,-0.4 1.7,-0.2 2.2,0.5 z"
     inkscape:connector-curvature="0"
     style="opacity:0.5;fill:#ffffff;enable-background:new" /><path
     id="XMLID_61_"
     class="st4"
     d="m 49.422449,118.9 c 0.4,0.7 0.2,1.5 -0.5,1.9 -0.7,0.4 -1.5,0.2 -1.9,-0.5 -0.4,-0.7 -0.2,-1.5 0.5,-2 0.6,-0.3 1.5,-0.1 1.9,0.6 z"
     inkscape:connector-curvature="0"
     style="opacity:0.5;fill:#ffffff;enable-background:new" /><path
     id="XMLID_60_"
     class="st4"
     d="m 23.422449,95.7 c 0.4,0.7 0.2,1.5 -0.5,2 -0.7,0.4 -1.5,0.2 -1.9,-0.5 -0.4,-0.7 -0.2,-1.5 0.5,-1.9 0.6,-0.5 1.4,-0.3 1.9,0.4 z"
     inkscape:connector-curvature="0"
     style="opacity:0.5;fill:#ffffff;enable-background:new" /><path
     id="XMLID_59_"
     class="st4"
     d="m 52.522449,117.5 c 0.3,0.5 0.2,1.1 -0.3,1.4 -0.5,0.3 -1.1,0.1 -1.4,-0.4 -0.3,-0.5 -0.2,-1.1 0.3,-1.4 0.5,-0.3 1.1,-0.1 1.4,0.4 z"
     inkscape:connector-curvature="0"
     style="opacity:0.5;fill:#ffffff;enable-background:new" /><path
     id="XMLID_58_"
     class="st4"
     d="m 24.422449,92.6 c 0.3,0.5 0.2,1.1 -0.3,1.4 -0.5,0.3 -1.1,0.1 -1.4,-0.4 -0.3,-0.5 -0.2,-1.1 0.3,-1.4 0.5,-0.3 1.1,-0.1 1.4,0.4 z"
     inkscape:connector-curvature="0"
     style="opacity:0.5;fill:#ffffff;enable-background:new" /><path
     id="XMLID_57_"
     class="st4"
     d="m 25.522449,90.5 c 0.2,0.4 0.1,0.8 -0.2,1 -0.3,0.2 -0.8,0.1 -1,-0.3 -0.2,-0.4 -0.1,-0.8 0.2,-1 0.4,-0.2 0.8,0 1,0.3 z"
     inkscape:connector-curvature="0"
     style="opacity:0.5;fill:#ffffff;enable-background:new" /><path
     id="XMLID_56_"
     class="st4"
     d="m 27.322449,88.5 c 0.2,0.4 0.1,0.8 -0.2,1 -0.3,0.2 -0.8,0.1 -1,-0.3 -0.2,-0.4 -0.1,-0.8 0.2,-1 0.3,-0.2 0.8,-0.1 1,0.3 z"
     inkscape:connector-curvature="0"
     style="opacity:0.5;fill:#ffffff;enable-background:new" /><path
     id="XMLID_55_"
     class="st2"
     d="m 89.922449,105.8 c -0.2,2.4 -2.4,4.1 -4.8,3.9 -2.4,-0.2 -4.2,-2.4 -3.9,-4.8 0.2,-2.4 2.4,-4.1 4.8,-3.9 2.4,0.2 4.2,2.4 3.9,4.8 z"
     inkscape:connector-curvature="0"
     style="fill:#ffffff" /><path
     id="XMLID_54_"
     class="st2"
     d="m 88.822449,117.1 c -0.2,2.4 -2.4,4.1 -4.8,3.9 -2.4,-0.2 -4.2,-2.4 -3.9,-4.8 0.2,-2.4 2.4,-4.1 4.8,-3.9 2.3,0.3 4.1,2.4 3.9,4.8 z"
     inkscape:connector-curvature="0"
     style="fill:#ffffff" /><path
     id="XMLID_53_"
     class="st2"
     d="m 88.122449,93.1 c -0.2,2.4 -2.4,4.1 -4.8,3.9 -2.4,-0.2 -4.2,-2.4 -3.9,-4.8 0.2,-2.4 2.4,-4.1 4.8,-3.9 2.4,0.3 4.1,2.4 3.9,4.8 z"
     inkscape:connector-curvature="0"
     style="fill:#ffffff" /><path
     id="XMLID_52_"
     class="st2"
     d="m 82.122449,80.8 c -0.2,2.3 -2.2,3.9 -4.3,3.7 -2.1,-0.2 -3.7,-2.2 -3.5,-4.5 0.2,-2.3 2.2,-3.9 4.3,-3.7 2.2,0.2 3.7,2.2 3.5,4.5 z"
     inkscape:connector-curvature="0"
     style="fill:#ffffff" /><path
     id="XMLID_51_"
     class="st2"
     d="m 85.822449,126.3 c -0.2,2 -1.9,3.5 -3.9,3.3 -1.9,-0.2 -3.3,-2 -3.1,-4 0.2,-2 1.9,-3.5 3.9,-3.3 1.9,0.2 3.3,2 3.1,4 z"
     inkscape:connector-curvature="0"
     style="fill:#ffffff" /><path
     id="XMLID_50_"
     class="st2"
     d="m 83.122449,133.5 c -0.2,1.7 -1.6,2.9 -3.1,2.7 -1.6,-0.2 -2.7,-1.6 -2.5,-3.3 0.2,-1.7 1.6,-2.9 3.1,-2.7 1.6,0.1 2.7,1.6 2.5,3.3 z"
     inkscape:connector-curvature="0"
     style="fill:#ffffff" /><path
     id="XMLID_49_"
     class="st2"
     d="m 65.822449,65.5 c -0.2,1.7 -1.6,2.9 -3.1,2.7 -1.6,-0.2 -2.7,-1.6 -2.5,-3.3 0.2,-1.7 1.6,-2.9 3.1,-2.7 1.6,0.2 2.7,1.7 2.5,3.3 z"
     inkscape:connector-curvature="0"
     style="fill:#ffffff" /><path
     id="XMLID_48_"
     class="st2"
     d="m 79.722449,139.1 c -0.1,1.3 -1.3,2.2 -2.5,2 -1.3,-0.1 -2.2,-1.3 -2.1,-2.5 0.1,-1.3 1.3,-2.2 2.5,-2 1.3,0.2 2.2,1.3 2.1,2.5 z"
     inkscape:connector-curvature="0"
     style="fill:#ffffff" /><path
     id="XMLID_47_"
     class="st2"
     d="m 51.722449,61.3 c -0.1,1.3 -1.3,2.2 -2.5,2 -1.3,-0.1 -2.2,-1.3 -2.1,-2.5 0.1,-1.2 1.3,-2.2 2.5,-2 1.3,0.1 2.3,1.2 2.1,2.5 z"
     inkscape:connector-curvature="0"
     style="fill:#ffffff" /><path
     id="XMLID_46_"
     class="st2"
     d="m 77.022449,144.4 c -0.1,1.1 -1.1,1.9 -2.1,1.8 -1.1,-0.1 -1.8,-1.1 -1.7,-2.2 0.1,-1.1 1.1,-1.9 2.1,-1.8 1,0.1 1.8,1.1 1.7,2.2 z"
     inkscape:connector-curvature="0"
     style="fill:#ffffff" /><path
     id="XMLID_45_"
     class="st2"
     d="m 73.722449,148.5 c -0.1,0.9 -0.9,1.6 -1.8,1.5 -0.9,-0.1 -1.5,-0.9 -1.4,-1.8 0.1,-0.9 0.9,-1.6 1.8,-1.5 0.9,0.1 1.5,0.9 1.4,1.8 z"
     inkscape:connector-curvature="0"
     style="fill:#ffffff" /><path
     id="XMLID_44_"
     class="st2"
     d="m 27.022449,64.4 c -0.1,0.9 -0.9,1.6 -1.8,1.5 -0.9,-0.1 -1.5,-0.9 -1.4,-1.8 0.1,-0.9 0.9,-1.6 1.8,-1.5 0.9,0.1 1.5,0.9 1.4,1.8 z"
     inkscape:connector-curvature="0"
     style="fill:#ffffff" /><ellipse
     id="XMLID_43_"
     class="st4"
     cx="74.822449"
     cy="109.5"
     rx="2.4000001"
     ry="2.5"
     style="opacity:0.5;fill:#ffffff;enable-background:new" /><path
     id="XMLID_42_"
     class="st4"
     d="m 75.822449,115.8 c 0,1 -0.8,1.9 -1.9,1.9 -1,0 -1.9,-0.9 -1.9,-1.9 0,-1.1 0.8,-1.9 1.9,-1.9 1,0 1.9,0.8 1.9,1.9 z"
     inkscape:connector-curvature="0"
     style="opacity:0.5;fill:#ffffff;enable-background:new" /><path
     id="XMLID_41_"
     class="st2"
     d="m 39.022449,61.4 c -0.3,1.2 -1.6,1.9 -2.8,1.6 -1.2,-0.3 -1.9,-1.6 -1.5,-2.8 0.3,-1.2 1.6,-1.9 2.8,-1.6 1.2,0.3 1.9,1.6 1.5,2.8 z"
     inkscape:connector-curvature="0"
     style="fill:#ffffff" /><path
     id="XMLID_40_"
     class="st2"
     d="m 70.822449,152.4 c -0.1,0.9 -0.9,1.6 -1.8,1.5 -0.9,-0.1 -1.5,-0.9 -1.4,-1.8 0.1,-0.9 0.9,-1.6 1.8,-1.5 0.8,0 1.5,0.8 1.4,1.8 z"
     inkscape:connector-curvature="0"
     style="fill:#ffffff" /><path
     id="XMLID_39_"
     class="st2"
     d="m 66.922449,156 c -0.1,0.7 -0.7,1.2 -1.3,1.1 -0.7,-0.1 -1.1,-0.7 -1.1,-1.4 0.1,-0.7 0.7,-1.2 1.3,-1.1 0.7,0.1 1.2,0.7 1.1,1.4 z"
     inkscape:connector-curvature="0"
     style="fill:#ffffff" /><path
     id="XMLID_38_"
     class="st2"
     d="m 63.322449,158.7 c 0,0.5 -0.5,0.9 -1,0.8 -0.5,-0.1 -0.8,-0.5 -0.8,-1 0.1,-0.5 0.5,-0.9 1,-0.8 0.5,0 0.9,0.5 0.8,1 z"
     inkscape:connector-curvature="0"
     style="fill:#ffffff" /><path
     id="XMLID_37_"
     class="st2"
     d="m 73.722449,71.6 c -0.2,2.3 -2.2,3.9 -4.3,3.7 -2.1,-0.2 -3.7,-2.2 -3.5,-4.5 0.2,-2.3 2.2,-3.9 4.3,-3.7 2.1,0.2 3.7,2.2 3.5,4.5 z"
     inkscape:connector-curvature="0"
     style="fill:#ffffff" /><path
     id="XMLID_36_"
     class="st2"
     d="m 58.822449,62.7 c -0.2,1.7 -1.6,2.9 -3.1,2.7 -1.6,-0.2 -2.7,-1.6 -2.5,-3.3 0.2,-1.6 1.6,-2.8 3.1,-2.6 1.6,0.1 2.7,1.6 2.5,3.2 z"
     inkscape:connector-curvature="0"
     style="fill:#ffffff" /><path
     id="XMLID_35_"
     class="st2"
     d="m 45.522449,60.7 c -0.1,1.3 -1.3,2.2 -2.5,2 -1.3,-0.1 -2.2,-1.2 -2.1,-2.5 0.1,-1.3 1.3,-2.2 2.5,-2 1.3,0.1 2.3,1.2 2.1,2.5 z"
     inkscape:connector-curvature="0"
     style="fill:#ffffff" /><path
     id="XMLID_34_"
     class="st2"
     d="m 32.622449,62.8 c -0.3,1.2 -1.6,1.9 -2.8,1.6 -1.2,-0.3 -1.9,-1.6 -1.5,-2.8 0.3,-1.2 1.6,-1.9 2.8,-1.6 1.2,0.4 1.9,1.6 1.5,2.8 z"
     inkscape:connector-curvature="0"
     style="fill:#ffffff" /><path
     id="XMLID_33_"
     class="st4"
     d="m 76.722449,95.4 c 0,1.8 -1.3,3.2 -3,3.2 -1.7,0 -3,-1.4 -3,-3.2 0,-1.8 1.3,-3.2 3,-3.2 1.7,0 3,1.4 3,3.2 z"
     inkscape:connector-curvature="0"
     style="opacity:0.5;fill:#ffffff;enable-background:new" /><path
     id="XMLID_32_"
     class="st4"
     d="m 77.422449,102.8 c 0,1.7 -1.3,3 -2.8,3 -1.6,0 -2.8,-1.4 -2.8,-3 0,-1.7 1.3,-3 2.8,-3 1.5,0 2.8,1.3 2.8,3 z"
     inkscape:connector-curvature="0"
     style="opacity:0.5;fill:#ffffff;enable-background:new" /><path
     id="XMLID_31_"
     class="st4"
     d="m 61.822449,74.1 c 0,1.4 -1.1,2.5 -2.4,2.5 -1.3,0 -2.4,-1.1 -2.4,-2.5 0,-1.4 1.1,-2.5 2.4,-2.5 1.3,0 2.4,1.1 2.4,2.5 z"
     inkscape:connector-curvature="0"
     style="opacity:0.5;fill:#ffffff;enable-background:new" /><path
     id="XMLID_30_"
     class="st4"
     d="m 74.922449,121 c 0,1.1 -0.8,1.9 -1.9,1.9 -1,0 -1.9,-0.9 -1.9,-1.9 0,-1.1 0.8,-1.9 1.9,-1.9 1.1,-0.1 1.9,0.8 1.9,1.9 z"
     inkscape:connector-curvature="0"
     style="opacity:0.5;fill:#ffffff;enable-background:new" /><path
     id="XMLID_29_"
     class="st4"
     d="m 73.422449,125.5 c 0,1 -0.8,1.7 -1.7,1.7 -0.9,0 -1.7,-0.8 -1.7,-1.7 0,-1 0.8,-1.7 1.7,-1.7 0.9,0 1.7,0.8 1.7,1.7 z"
     inkscape:connector-curvature="0"
     style="opacity:0.5;fill:#ffffff;enable-background:new" /><path
     id="XMLID_28_"
     class="st4"
     d="m 71.222449,130.1 c 0,0.7 -0.6,1.3 -1.3,1.3 -0.7,0 -1.3,-0.6 -1.3,-1.3 0,-0.7 0.6,-1.3 1.3,-1.3 0.8,0 1.3,0.6 1.3,1.3 z"
     inkscape:connector-curvature="0"
     style="opacity:0.5;fill:#ffffff;enable-background:new" /><path
     id="XMLID_27_"
     class="st4"
     d="m 67.322449,79.4 c 0,1.8 -1.3,3.2 -3,3.2 -1.7,0 -3,-1.4 -3,-3.2 0,-1.8 1.3,-3.2 3,-3.2 1.6,0 3,1.4 3,3.2 z"
     inkscape:connector-curvature="0"
     style="opacity:0.5;fill:#ffffff;enable-background:new" /><path
     id="XMLID_26_"
     class="st4"
     d="m 73.722449,86.5 c 0,2.3 -1.8,4.1 -3.9,4.1 -2.2,0 -3.9,-1.8 -3.9,-4.1 0,-2.3 1.7,-4.1 3.9,-4.1 2.1,0 3.9,1.9 3.9,4.1 z"
     inkscape:connector-curvature="0"
     style="opacity:0.5;fill:#ffffff;enable-background:new" /><path
     id="XMLID_25_"
     class="st4"
     d="m 56.222449,70.8 c 0,1.1 -0.8,1.9 -1.9,1.9 -1,0 -1.9,-0.9 -1.9,-1.9 0,-1.1 0.8,-1.9 1.9,-1.9 1,0 1.9,0.8 1.9,1.9 z"
     inkscape:connector-curvature="0"
     style="opacity:0.5;fill:#ffffff;enable-background:new" /><path
     id="XMLID_24_"
     class="st4"
     d="m 51.422449,69 c 0,1 -0.8,1.7 -1.7,1.7 -0.9,0 -1.7,-0.8 -1.7,-1.7 0,-1 0.8,-1.7 1.7,-1.7 1,-0.1 1.7,0.7 1.7,1.7 z"
     inkscape:connector-curvature="0"
     style="opacity:0.5;fill:#ffffff;enable-background:new" /><path
     id="XMLID_23_"
     class="st4"
     d="m 46.922449,68.1 c 0,0.7 -0.6,1.3 -1.3,1.3 -0.7,0 -1.3,-0.6 -1.3,-1.3 0,-0.7 0.6,-1.3 1.3,-1.3 0.7,0 1.3,0.6 1.3,1.3 z"
     inkscape:connector-curvature="0"
     style="opacity:0.5;fill:#ffffff;enable-background:new" /><path
     id="XMLID_22_"
     class="st4"
     d="m 42.222449,67.9 c 0,0.6 -0.5,1.1 -1.1,1.1 -0.6,0 -1.1,-0.5 -1.1,-1.1 0,-0.6 0.5,-1.1 1.1,-1.1 0.7,0 1.1,0.5 1.1,1.1 z"
     inkscape:connector-curvature="0"
     style="opacity:0.5;fill:#ffffff;enable-background:new" /><path
     id="XMLID_21_"
     class="st2"
     d="m 21.822449,67 c -0.1,0.9 -0.9,1.6 -1.8,1.5 -0.9,-0.1 -1.5,-0.9 -1.4,-1.8 0.1,-0.9 0.9,-1.6 1.8,-1.5 0.9,0.1 1.5,0.9 1.4,1.8 z"
     inkscape:connector-curvature="0"
     style="fill:#ffffff" /><path
     id="XMLID_20_"
     class="st2"
     d="m 17.422449,70 c -0.1,0.7 -0.7,1.2 -1.3,1.1 -0.7,-0.1 -1.1,-0.7 -1.1,-1.4 0.1,-0.7 0.7,-1.2 1.3,-1.1 0.7,0.1 1.1,0.8 1.1,1.4 z"
     inkscape:connector-curvature="0"
     style="fill:#ffffff" /><path
     id="XMLID_19_"
     class="st2"
     d="m 13.822449,74 c -0.1,0.5 -0.5,0.9 -1,0.8 -0.5,-0.1 -0.8,-0.5 -0.8,-1 0.1,-0.5 0.5,-0.9 1,-0.8 0.5,0 0.8,0.5 0.8,1 z"
     inkscape:connector-curvature="0"
     style="fill:#ffffff" /><path
     id="XMLID_18_"
     class="st4"
     d="m 68.922449,133.2 c 0,0.4 -0.3,0.8 -0.8,0.8 -0.4,0 -0.8,-0.4 -0.8,-0.8 0,-0.4 0.4,-0.8 0.8,-0.8 0.4,0 0.8,0.4 0.8,0.8 z"
     inkscape:connector-curvature="0"
     style="opacity:0.5;fill:#ffffff;enable-background:new" /><path
     id="XMLID_17_"
     class="st4"
     d="m 38.322449,68.9 c 0,0.4 -0.3,0.8 -0.8,0.8 -0.4,0 -0.8,-0.4 -0.8,-0.8 0,-0.4 0.3,-0.8 0.8,-0.8 0.4,0 0.8,0.4 0.8,0.8 z"
     inkscape:connector-curvature="0"
     style="opacity:0.5;fill:#ffffff;enable-background:new" /><path
     id="XMLID_16_"
     class="st3"
     d="m 43.622449,126.1 c -0.5,-0.2 -0.8,-0.7 -0.7,-1.2 0.1,-0.5 0.7,-0.8 1.2,-0.6 0.5,0.2 0.8,0.7 0.7,1.2 -0.1,0.5 -0.6,0.8 -1.2,0.6 z"
     inkscape:connector-curvature="0"
     style="opacity:0.8;fill:#ffffff;enable-background:new" /><path
     id="XMLID_15_"
     class="st3"
     d="m 46.822449,125.1 c -0.4,-0.1 -0.7,-0.5 -0.6,-0.9 0.1,-0.4 0.5,-0.6 1,-0.5 0.4,0.1 0.7,0.5 0.6,0.9 -0.2,0.4 -0.6,0.6 -1,0.5 z"
     inkscape:connector-curvature="0"
     style="opacity:0.8;fill:#ffffff;enable-background:new" /><path
     id="XMLID_14_"
     class="st3"
     d="m 67.422449,105.6 c 0.2,1.1 -0.5,2.2 -1.6,2.4 -1.1,0.2 -2.2,-0.5 -2.4,-1.6 -0.2,-1.1 0.5,-2.2 1.6,-2.4 1,-0.2 2.1,0.5 2.4,1.6 z"
     inkscape:connector-curvature="0"
     style="opacity:0.8;fill:#ffffff;enable-background:new" /><path
     id="XMLID_13_"
     class="st3"
     d="m 67.222449,99.5 c 0,1.5 -1.1,2.6 -2.5,2.6 -1.4,0 -2.5,-1.2 -2.5,-2.7 0,-1.5 1.1,-2.6 2.5,-2.6 1.5,0 2.6,1.2 2.5,2.7 z"
     inkscape:connector-curvature="0"
     style="opacity:0.8;fill:#ffffff;enable-background:new" /><path
     id="XMLID_12_"
     class="st3"
     d="m 56.422449,81.9 c 0,1.2 -1,2.1 -2.1,2.1 -1.2,0 -2.1,-1 -2.1,-2.2 0,-1.2 1,-2.1 2.1,-2.1 1.1,0 2.1,1 2.1,2.2 z"
     inkscape:connector-curvature="0"
     style="opacity:0.8;fill:#ffffff;enable-background:new" /><path
     id="XMLID_11_"
     class="st3"
     d="m 67.122449,111.2 c 0.2,1 -0.4,1.9 -1.4,2.1 -1,0.2 -1.9,-0.4 -2.1,-1.4 -0.2,-1 0.4,-1.9 1.4,-2.1 0.9,-0.2 1.8,0.5 2.1,1.4 z"
     inkscape:connector-curvature="0"
     style="opacity:0.8;fill:#ffffff;enable-background:new" /><ellipse
     id="XMLID_10_"
     class="st3"
     cx="64.422447"
     cy="116.6"
     style="opacity:0.8;fill:#ffffff;enable-background:new"
     r="1.3" /><path
     id="XMLID_9_"
     class="st3"
     d="m 63.822449,120 c 0.1,0.5 -0.2,1 -0.7,1.1 -0.5,0.1 -1,-0.2 -1.1,-0.7 -0.1,-0.5 0.2,-1 0.7,-1.1 0.5,-0.1 1,0.2 1.1,0.7 z"
     inkscape:connector-curvature="0"
     style="opacity:0.8;fill:#ffffff;enable-background:new" /><path
     id="XMLID_8_"
     class="st3"
     d="m 61.022449,86.8 c 0,1.4 -1.2,2.5 -2.6,2.5 -1.4,0 -2.6,-1.2 -2.5,-2.5 0,-1.4 1.2,-2.5 2.6,-2.5 1.4,0 2.5,1.1 2.5,2.5 z"
     inkscape:connector-curvature="0"
     style="opacity:0.8;fill:#ffffff;enable-background:new" /><path
     id="XMLID_7_"
     class="st3"
     d="m 65.222449,92.4 c 0,1.6 -1.3,2.9 -2.8,2.9 -1.5,0 -2.8,-1.3 -2.7,-3 0,-1.6 1.3,-2.9 2.8,-2.9 1.5,0.1 2.7,1.4 2.7,3 z"
     inkscape:connector-curvature="0"
     style="opacity:0.8;fill:#ffffff;enable-background:new" /><path
     id="XMLID_6_"
     class="st3"
     d="m 51.022449,79.4 c 0,0.9 -0.7,1.5 -1.5,1.5 -0.8,0 -1.5,-0.7 -1.5,-1.6 0,-0.9 0.7,-1.5 1.5,-1.5 0.8,0.1 1.5,0.8 1.5,1.6 z"
     inkscape:connector-curvature="0"
     style="opacity:0.8;fill:#ffffff;enable-background:new" /><path
     id="XMLID_5_"
     class="st3"
     d="m 46.222449,78 c 0,0.7 -0.6,1.3 -1.3,1.3 -0.7,0 -1.3,-0.6 -1.3,-1.3 0,-0.7 0.6,-1.3 1.3,-1.3 0.7,0 1.3,0.6 1.3,1.3 z"
     inkscape:connector-curvature="0"
     style="opacity:0.8;fill:#ffffff;enable-background:new" /><path
     id="XMLID_4_"
     class="st3"
     d="m 41.622449,77.8 c 0,0.5 -0.4,1 -0.9,0.9 -0.5,0 -0.9,-0.4 -0.9,-1 0,-0.5 0.4,-1 0.9,-0.9 0.5,0 0.9,0.4 0.9,1 z"
     inkscape:connector-curvature="0"
     style="opacity:0.8;fill:#ffffff;enable-background:new" /></svg>