<?xml version="1.0" encoding="iso-8859-1"?>
<!-- Generator: Adobe Illustrator 17.1.0, SVG Export Plug-In . SVG Version: 6.00 Build 0)  -->
<!DOCTYPE svg PUBLIC "-//W3C//DTD SVG 1.1//EN" "http://www.w3.org/Graphics/SVG/1.1/DTD/svg11.dtd">
<svg xmlns="http://www.w3.org/2000/svg" xmlns:xlink="http://www.w3.org/1999/xlink" version="1.1" id="Capa_1" x="0px" y="0px" viewBox="0 0 358.281 358.281" style="enable-background:new 0 0 358.281 358.281;" xml:space="preserve" width="512px" height="512px">
<path d="M325.503,280.321v-44.23c0-11.028-8.972-20-20-20H194.141v-33.239  c5.455,0.011,17.085,0.035,28.757,0.059c15.911,0.032,31.889,0.064,32.424,0.064c31.907,0,57.866-25.959,57.866-57.867  c0-31.907-25.959-57.866-57.866-57.866c-0.443,0-0.887,0.005-1.329,0.016C247.952,29.191,214.904,0,175.167,0  c-37.248,0-68.889,25.446-77.496,60.702C67.979,64.986,45.094,90.6,45.094,121.459c0,33.849,27.538,61.387,61.387,61.387h57.66  v33.245H52.778c-11.028,0-20,8.972-20,20v44.23C17.893,286.292,7.35,300.86,7.35,317.853c0,22.292,18.136,40.429,40.429,40.429  s40.429-18.137,40.429-40.429c0-16.993-10.544-31.561-25.429-37.531v-34.23h101.362v34.23  c-14.885,5.971-25.429,20.539-25.429,37.531c0,22.292,18.136,40.429,40.429,40.429c22.292,0,40.429-18.137,40.429-40.429  c0-16.993-10.544-31.561-25.429-37.531v-34.23h101.362v34.23c-14.885,5.971-25.429,20.539-25.429,37.531  c0,22.292,18.137,40.429,40.429,40.429s40.429-18.137,40.429-40.429C350.932,300.86,340.388,286.292,325.503,280.321z   M75.094,121.459c0-17.307,14.08-31.387,31.387-31.387h0.341c0.123,0,0.245-0.002,0.351-0.002c0.068,0,0.129,0.001,0.18,0.003  c0.516,0.045,1.037,0.067,1.548,0.067c7.287-0.001,15.64-4.919,16.766-15.752C128.398,49.083,149.679,30,175.167,30  c27.466,0,49.811,22.346,49.811,49.812l0.004,0.637c0.001,0.134,0.004,0.269,0.003,0.402c-0.439,4.915,1.065,9.551,4.249,13.077  c3.143,3.48,7.655,5.477,12.38,5.477c1.748,0,3.468-0.271,5.115-0.806c2.771-0.9,5.661-1.357,8.592-1.357  c15.365,0,27.866,12.501,27.866,27.866c0,15.366-12.501,27.867-27.866,27.867c-0.557,0-16.493-0.032-32.362-0.064  c-15.779-0.032-31.492-0.064-32.015-0.064H106.48C89.174,152.846,75.094,138.766,75.094,121.459z" fill="#FFFFFF"/>
<g>
</g>
<g>
</g>
<g>
</g>
<g>
</g>
<g>
</g>
<g>
</g>
<g>
</g>
<g>
</g>
<g>
</g>
<g>
</g>
<g>
</g>
<g>
</g>
<g>
</g>
<g>
</g>
<g>
</g>
</svg>
