<?xml version="1.0" encoding="UTF-8" standalone="no"?>
<!-- Generator: Adobe Illustrator 16.0.0, SVG Export Plug-In . SVG Version: 6.00 Build 0)  -->

<svg
   xmlns:dc="http://purl.org/dc/elements/1.1/"
   xmlns:cc="http://creativecommons.org/ns#"
   xmlns:rdf="http://www.w3.org/1999/02/22-rdf-syntax-ns#"
   xmlns:svg="http://www.w3.org/2000/svg"
   xmlns="http://www.w3.org/2000/svg"
   xmlns:sodipodi="http://sodipodi.sourceforge.net/DTD/sodipodi-0.dtd"
   xmlns:inkscape="http://www.inkscape.org/namespaces/inkscape"
   version="1.1"
   id="Capa_1"
   x="0px"
   y="0px"
   width="512px"
   height="512px"
   viewBox="0 0 510 510"
   style="enable-background:new 0 0 510 510;"
   xml:space="preserve"
   inkscape:version="0.91 r13725"
   sodipodi:docname="mas.svg"><metadata
     id="metadata4304"><rdf:RDF><cc:Work
         rdf:about=""><dc:format>image/svg+xml</dc:format><dc:type
           rdf:resource="http://purl.org/dc/dcmitype/StillImage" /><dc:title></dc:title></cc:Work></rdf:RDF></metadata><defs
     id="defs4302" /><sodipodi:namedview
     pagecolor="#ffffff"
     bordercolor="#666666"
     borderopacity="1"
     objecttolerance="10"
     gridtolerance="10"
     guidetolerance="10"
     inkscape:pageopacity="0"
     inkscape:pageshadow="2"
     inkscape:window-width="1920"
     inkscape:window-height="993"
     id="namedview4300"
     showgrid="false"
     inkscape:zoom="1.671875"
     inkscape:cx="256"
     inkscape:cy="256"
     inkscape:window-x="0"
     inkscape:window-y="24"
     inkscape:window-maximized="1"
     inkscape:current-layer="Capa_1" /><g
     id="g4265"><g
       id="add-circle"><path
         d="M255,0C114.75,0,0,114.75,0,255s114.75,255,255,255s255-114.75,255-255S395.25,0,255,0z M382.5,280.5h-102v102h-51v-102    h-102v-51h102v-102h51v102h102V280.5z"
         id="path4268"
         fill="#300024" /></g></g><g
     id="g4270" /><g
     id="g4272" /><g
     id="g4274" /><g
     id="g4276" /><g
     id="g4278" /><g
     id="g4280" /><g
     id="g4282" /><g
     id="g4284" /><g
     id="g4286" /><g
     id="g4288" /><g
     id="g4290" /><g
     id="g4292" /><g
     id="g4294" /><g
     id="g4296" /><g
     id="g4298" /><path
     style="fill:#ffffff;fill-opacity:1"
     d="m 230.63925,332.38131 0,-51.14019 -51.14018,0 -51.14019,0 0,-25.42056 0,-25.42056 51.14019,0 51.14018,0 0,-51.14019 0,-51.14018 25.42056,0 25.42056,0 0,51.14018 0,51.14019 51.14019,0 51.14019,0 0,25.42056 0,25.42056 -51.14019,0 -51.14019,0 0,51.14019 0,51.14019 -25.42056,0 -25.42056,0 0,-51.14019 z"
     id="path4308"
     inkscape:connector-curvature="0"
     transform="scale(0.99609369,0.99609369)" /></svg>