<?xml version="1.0" encoding="UTF-8" standalone="no"?>
<!-- Generator: Adobe Illustrator 19.1.0, SVG Export Plug-In . SVG Version: 6.00 Build 0)  -->

<svg
   xmlns:dc="http://purl.org/dc/elements/1.1/"
   xmlns:cc="http://creativecommons.org/ns#"
   xmlns:rdf="http://www.w3.org/1999/02/22-rdf-syntax-ns#"
   xmlns:svg="http://www.w3.org/2000/svg"
   xmlns="http://www.w3.org/2000/svg"
   xmlns:sodipodi="http://sodipodi.sourceforge.net/DTD/sodipodi-0.dtd"
   xmlns:inkscape="http://www.inkscape.org/namespaces/inkscape"
   version="1.1"
   id="Capa_1"
   x="0px"
   y="0px"
   viewBox="0 0 321.714 321.714"
   style="enable-background:new 0 0 321.714 321.714;"
   xml:space="preserve"
   width="512px"
   height="512px"
   inkscape:version="0.91 r13725"
   sodipodi:docname="participacion.svg"><metadata
     id="metadata5150"><rdf:RDF><cc:Work
         rdf:about=""><dc:format>image/svg+xml</dc:format><dc:type
           rdf:resource="http://purl.org/dc/dcmitype/StillImage" /></cc:Work></rdf:RDF></metadata><defs
     id="defs5148" /><sodipodi:namedview
     pagecolor="#ffffff"
     bordercolor="#666666"
     borderopacity="1"
     objecttolerance="10"
     gridtolerance="10"
     guidetolerance="10"
     inkscape:pageopacity="0"
     inkscape:pageshadow="2"
     inkscape:window-width="1920"
     inkscape:window-height="993"
     id="namedview5146"
     showgrid="false"
     inkscape:zoom="0.4609375"
     inkscape:cx="256"
     inkscape:cy="256"
     inkscape:window-x="0"
     inkscape:window-y="24"
     inkscape:window-maximized="1"
     inkscape:current-layer="Capa_1" /><g
     id="g5112"
     transform="matrix(0.92372905,0,0,0.93971854,12.268754,9.6967549)"><path
       d="m 222.079,169.476 c 0.726,0.315 1.485,0.578 2.783,1.035 0.611,0.231 1.208,0.463 1.857,0.668 4.852,1.53 9.955,2.301 15.154,2.301 1.742,0 3.445,-0.09 5.238,-0.27 0.54,-0.064 1.073,-0.141 1.607,-0.238 l 1.08,-0.154 c 0.733,-0.103 1.478,-0.199 2.339,-0.379 0.527,-0.116 1.035,-0.251 1.549,-0.392 l 0.688,-0.18 c 0.829,-0.186 1.645,-0.386 2.609,-0.675 l 2.172,-0.784 c 0.81,-0.276 1.62,-0.566 2.294,-0.855 0.398,-0.154 0.778,-0.347 1.388,-0.649 1.041,-0.476 2.114,-0.964 2.976,-1.433 0.321,-0.154 0.617,-0.334 0.925,-0.521 0.945,-0.54 1.902,-1.099 2.821,-1.697 l 1.048,-0.701 c 7.95,-5.476 14.158,-13.104 17.957,-22.07 2.513,-5.932 3.869,-12.121 4.03,-18.426 l 0.032,-1.343 c 0,-5.932 -1.06,-11.8 -3.136,-17.417 -7.269,-19.955 -26.414,-33.362 -47.636,-33.362 -22.398,0 -41.864,14.415 -48.433,35.868 -1.228,4.004 -1.947,7.834 -2.198,11.768 l -0.045,0.752 c -0.051,0.79 -0.103,1.581 -0.103,2.397 l 0.026,0.662 c 0.264,20.149 12.424,38.254 30.978,46.095 z m -18.059,-48.311 0.051,-0.848 c 0.18,-2.86 0.72,-5.726 1.652,-8.753 4.91,-16.022 19.428,-26.781 36.145,-26.781 15.842,0 30.129,10.013 35.573,24.936 1.446,3.908 2.23,7.95 2.333,12.031 l 0,1.009 c 0,5.013 -1.015,9.962 -3.033,14.705 -2.77,6.536 -7.23,12.115 -12.944,16.176 l -1.06,0.726 c -0.752,0.495 -1.523,0.938 -2.166,1.311 l -0.656,0.386 c -0.765,0.411 -1.575,0.771 -2.359,1.125 l -1.003,0.488 c -0.514,0.219 -1.054,0.398 -2.159,0.784 l -1.26,0.476 c -0.553,0.167 -1.105,0.289 -2.147,0.533 l -1.485,0.398 c -0.456,0.09 -0.925,0.148 -1.382,0.206 l -2.384,0.366 c -5.116,0.521 -10.354,0 -15.142,-1.51 -0.379,-0.122 -0.733,-0.264 -1.093,-0.405 l -1.003,-0.366 c -0.463,-0.161 -0.925,-0.308 -1.388,-0.508 -13.869,-5.868 -22.95,-19.383 -23.162,-34.936 -0.005,-0.527 0.033,-1.035 0.072,-1.549 z m 37.841,52.713 c -21.935,0 -42.514,8.965 -57.546,24.673 C 164.842,182.587 139.963,172.979 112.874,172.979 50.637,172.978 0,223.615 0,285.859 c 0,1.003 0.058,1.999 0.122,2.976 l 0.302,7.706 224.836,0 0.353,-7.513 c 0.064,-1.048 0.129,-2.095 0.129,-3.168 0,-7.796 -0.797,-15.412 -2.307,-22.77 l 97.804,0 0.373,-6.992 c 0.051,-0.791 0.103,-1.575 0.103,-2.371 -0.007,-44.032 -35.824,-79.849 -79.854,-79.849 z M 12.879,283.687 c 1.163,-54.159 45.573,-97.861 99.995,-97.861 26.241,0 50.091,10.232 67.951,26.819 1.382,1.279 2.712,2.603 4.01,3.946 0.527,0.553 1.041,1.118 1.555,1.677 3.946,4.287 7.494,8.888 10.617,13.76 0.514,0.803 1.028,1.613 1.523,2.442 0.887,1.472 1.748,2.95 2.551,4.46 0.405,0.746 0.758,1.51 1.138,2.269 1.472,2.95 2.809,5.964 3.985,9.043 0.264,0.688 0.546,1.369 0.797,2.063 0.617,1.742 1.183,3.503 1.703,5.276 2.461,8.323 3.959,17.044 4.152,26.106 l -199.977,0 z m 207.022,-33.452 c -0.026,-0.071 -0.058,-0.135 -0.084,-0.206 -1.253,-3.734 -2.712,-7.365 -4.332,-10.913 -0.276,-0.604 -0.578,-1.189 -0.861,-1.78 -1.472,-3.078 -3.072,-6.067 -4.807,-8.985 -0.405,-0.681 -0.816,-1.363 -1.24,-2.037 -1.812,-2.905 -3.753,-5.72 -5.816,-8.438 -0.386,-0.508 -0.752,-1.028 -1.144,-1.53 -2.5,-3.175 -5.122,-6.234 -7.931,-9.126 12.597,-13.079 29.853,-20.482 48.176,-20.482 35.765,0 65.085,28.182 66.903,63.504 l -88.864,0 0,-0.007 z M 85.515,161.063 c 0.733,0.302 1.485,0.578 2.243,0.848 l 2.166,0.797 c 0.643,0.244 1.285,0.488 2.012,0.72 6.78,2.114 13.869,3.188 21.086,3.201 l 0.013,0 c 2.429,0 4.82,-0.129 7.127,-0.373 0.778,-0.071 1.542,-0.193 2.314,-0.321 l 1.812,-0.27 c 0.99,-0.135 1.986,-0.283 2.886,-0.469 0.752,-0.154 1.485,-0.347 2.224,-0.546 l 1.356,-0.341 c 1.08,-0.257 2.159,-0.514 3.278,-0.861 0.514,-0.161 1.015,-0.353 1.51,-0.54 l 1.838,-0.662 c 1.041,-0.36 2.069,-0.726 3.078,-1.15 0.456,-0.193 0.893,-0.405 1.761,-0.835 1.478,-0.668 2.963,-1.343 4.435,-2.127 0.328,-0.174 0.643,-0.373 1.003,-0.611 1.652,-0.938 3.291,-1.902 4.872,-2.95 l 0.566,-0.405 c 19.171,-13.207 30.617,-34.917 30.643,-58.272 0,-38.992 -31.729,-70.721 -70.727,-70.721 -37.224,0 -68.189,29.107 -70.509,66.254 l -0.051,0.803 c -0.084,1.215 -0.167,2.436 -0.167,3.67 0.005,28.476 16.959,54.049 43.231,65.161 z m -30.238,-67.938 0.058,-0.88 c 1.896,-30.399 27.23,-54.217 57.681,-54.217 31.916,0 57.874,25.958 57.874,57.944 -0.019,19.171 -9.525,37.064 -25.013,47.591 l -0.919,0.604 c -1.183,0.765 -2.41,1.478 -3.721,2.224 l -0.643,0.405 c -1.189,0.623 -2.416,1.189 -3.702,1.761 l -1.44,0.694 c -0.752,0.321 -1.53,0.585 -2.314,0.855 l -3.014,1.086 c -0.765,0.238 -1.542,0.411 -2.314,0.598 l -1.787,0.45 c -0.456,0.129 -0.913,0.257 -1.459,0.366 -0.668,0.141 -1.362,0.231 -2.05,0.328 l -2.14,0.321 c -0.469,0.077 -0.938,0.161 -1.485,0.212 -1.934,0.206 -3.882,0.308 -5.855,0.308 -5.919,-0.013 -11.742,-0.893 -17.211,-2.596 -0.456,-0.148 -0.906,-0.321 -1.35,-0.488 l -2.397,-0.88 c -0.546,-0.199 -1.093,-0.392 -1.594,-0.598 -21.472,-9.081 -35.348,-30.007 -35.348,-53.317 0.008,-0.933 0.079,-1.852 0.143,-2.771 z"
       id="path5114"
       inkscape:connector-curvature="0"
       style="fill:#ffffff" /></g><g
     id="g5116" /><g
     id="g5118" /><g
     id="g5120" /><g
     id="g5122" /><g
     id="g5124" /><g
     id="g5126" /><g
     id="g5128" /><g
     id="g5130" /><g
     id="g5132" /><g
     id="g5134" /><g
     id="g5136" /><g
     id="g5138" /><g
     id="g5140" /><g
     id="g5142" /><g
     id="g5144" /></svg>