<?xml version="1.0" encoding="iso-8859-1"?>
<!-- Generator: Adobe Illustrator 19.0.0, SVG Export Plug-In . SVG Version: 6.00 Build 0)  -->
<svg version="1.1" id="Layer_1" xmlns="http://www.w3.org/2000/svg" xmlns:xlink="http://www.w3.org/1999/xlink" x="0px" y="0px"
	 viewBox="0 0 303.188 303.188" style="enable-background:new 0 0 303.188 303.188;" xml:space="preserve">
<g>
	<polygon style="fill:#E8E8E8;" points="219.821,0 32.842,0 32.842,303.188 270.346,303.188 270.346,50.525 	"/>
	<g>
		<g>
			<rect x="90.902" y="61.704" style="fill:#FFFFFF;" width="29.973" height="29.972"/>
			<rect x="120.875" y="61.704" style="fill:#D1D3D3;" width="29.972" height="29.972"/>
			<rect x="150.847" y="61.704" style="fill:#FFFFFF;" width="29.973" height="29.972"/>
			<rect x="180.819" y="61.704" style="fill:#D1D3D3;" width="29.973" height="29.972"/>
		</g>
		<g>
			<rect x="180.818" y="91.676" style="fill:#FFFFFF;" width="29.973" height="29.972"/>
			<rect x="150.847" y="91.676" style="fill:#D1D3D3;" width="29.972" height="29.972"/>
			<rect x="120.874" y="91.676" style="fill:#FFFFFF;" width="29.973" height="29.972"/>
			<rect x="90.901" y="91.676" style="fill:#D1D3D3;" width="29.973" height="29.972"/>
		</g>
		<g>
			<rect x="90.902" y="121.648" style="fill:#FFFFFF;" width="29.973" height="29.972"/>
			<rect x="120.875" y="121.648" style="fill:#D1D3D3;" width="29.972" height="29.972"/>
			<rect x="150.847" y="121.648" style="fill:#FFFFFF;" width="29.973" height="29.972"/>
			<rect x="180.819" y="121.648" style="fill:#D1D3D3;" width="29.973" height="29.972"/>
		</g>
		<g>
			<rect x="180.818" y="151.62" style="fill:#FFFFFF;" width="29.973" height="29.972"/>
			<rect x="150.847" y="151.62" style="fill:#D1D3D3;" width="29.972" height="29.972"/>
			<rect x="120.874" y="151.62" style="fill:#FFFFFF;" width="29.973" height="29.972"/>
			<rect x="90.901" y="151.62" style="fill:#D1D3D3;" width="29.973" height="29.972"/>
		</g>
		<polygon style="fill:#007934;" points="184.795,122.678 160.983,162.858 122.243,97.484 90.902,150.372 90.902,181.593 
			210.792,181.593 210.792,166.549 		"/>
	</g>
	<polygon style="fill:#38A3FF;" points="227.64,25.263 32.842,25.263 32.842,0 219.821,0 	"/>
	<g>
		<path style="fill:#A4A9AD;" d="M116.718,241.152c0,5.361-1.581,9.501-4.742,12.421c-3.162,2.921-7.652,4.381-13.472,4.381H94.86
			v15.917H81.897v-47.979h16.606c6.06,0,10.61,1.324,13.651,3.971C115.196,232.51,116.718,236.273,116.718,241.152z M94.86,247.387
			h2.363c1.947,0,3.495-0.546,4.645-1.641c1.148-1.094,1.723-2.604,1.723-4.529c0-3.238-1.795-4.857-5.383-4.857H94.86V247.387z"/>
		<path style="fill:#A4A9AD;" d="M170.046,273.871h-16.999l-17.524-33.802h-0.296c0.415,5.316,0.624,9.375,0.624,12.175v21.627
			h-11.486v-47.979h16.934l17.459,33.343h0.196c-0.307-4.835-0.459-8.718-0.459-11.65v-21.692h11.552L170.046,273.871
			L170.046,273.871z"/>
		<path style="fill:#A4A9AD;" d="M199.681,245.779h20.708v25.86c-5.623,1.925-11.804,2.888-18.542,2.888
			c-7.395,0-13.11-2.144-17.147-6.432c-4.036-4.288-6.055-10.403-6.055-18.345c0-7.745,2.21-13.772,6.629-18.083
			c4.419-4.309,10.611-6.465,18.575-6.465c3.019,0,5.868,0.285,8.549,0.853c2.68,0.569,5.016,1.292,7.007,2.166l-4.102,10.174
			c-3.457-1.707-7.253-2.56-11.388-2.56c-3.785,0-6.711,1.231-8.778,3.692c-2.068,2.461-3.102,5.979-3.102,10.551
			c0,4.485,0.936,7.904,2.806,10.256c1.871,2.352,4.566,3.528,8.09,3.528c1.925,0,3.697-0.186,5.316-0.558v-7.515h-8.565
			L199.681,245.779L199.681,245.779z"/>
	</g>
	<polygon style="fill:#D1D3D3;" points="219.821,50.525 270.346,50.525 219.821,0 	"/>
</g>
<g>
</g>
<g>
</g>
<g>
</g>
<g>
</g>
<g>
</g>
<g>
</g>
<g>
</g>
<g>
</g>
<g>
</g>
<g>
</g>
<g>
</g>
<g>
</g>
<g>
</g>
<g>
</g>
<g>
</g>
</svg>
