<?xml version="1.0" encoding="UTF-8" standalone="no"?>
<!-- Generator: Adobe Illustrator 19.0.0, SVG Export Plug-In . SVG Version: 6.00 Build 0)  -->

<svg
   xmlns:dc="http://purl.org/dc/elements/1.1/"
   xmlns:cc="http://creativecommons.org/ns#"
   xmlns:rdf="http://www.w3.org/1999/02/22-rdf-syntax-ns#"
   xmlns:svg="http://www.w3.org/2000/svg"
   xmlns="http://www.w3.org/2000/svg"
   xmlns:sodipodi="http://sodipodi.sourceforge.net/DTD/sodipodi-0.dtd"
   xmlns:inkscape="http://www.inkscape.org/namespaces/inkscape"
   version="1.1"
   id="Capa_1"
   x="0px"
   y="0px"
   viewBox="0 0 54 54"
   style="enable-background:new 0 0 54 54;"
   xml:space="preserve"
   width="512px"
   height="512px"
   inkscape:version="0.91 r13725"
   sodipodi:docname="seguridad.svg"><metadata
     id="metadata4290"><rdf:RDF><cc:Work
         rdf:about=""><dc:format>image/svg+xml</dc:format><dc:type
           rdf:resource="http://purl.org/dc/dcmitype/StillImage" /></cc:Work></rdf:RDF></metadata><defs
     id="defs4288" /><sodipodi:namedview
     pagecolor="#ffffff"
     bordercolor="#666666"
     borderopacity="1"
     objecttolerance="10"
     gridtolerance="10"
     guidetolerance="10"
     inkscape:pageopacity="0"
     inkscape:pageshadow="2"
     inkscape:window-width="1920"
     inkscape:window-height="993"
     id="namedview4286"
     showgrid="false"
     inkscape:zoom="1.671875"
     inkscape:cx="270.41071"
     inkscape:cy="258.39252"
     inkscape:window-x="0"
     inkscape:window-y="24"
     inkscape:window-maximized="1"
     inkscape:current-layer="Capa_1" /><g
     id="g4250"
     transform="matrix(0.87096431,0,0,0.85280374,3.4839635,3.9742991)"><path
       d="M 43,20.113 43,14.5 C 43,6.505 35.822,0 27,0 18.178,0 11,6.505 11,14.5 c 0,0.553 0.447,1 1,1 0.553,0 1,-0.447 1,-1 C 13,7.607 19.28,2 27,2 34.72,2 41,7.607 41,14.5 L 41,20 12.229,20 C 8.243,20 5,23.243 5,27.229 L 5,46.771 C 5,50.757 8.243,54 12.229,54 l 29.542,0 C 45.757,54 49,50.757 49,46.771 l 0,-19.542 c 0,-3.566 -2.599,-6.53 -6,-7.116 z m 4,26.658 C 47,49.654 44.654,52 41.771,52 L 12.229,52 C 9.346,52 7,49.654 7,46.771 L 7,27.229 C 7,24.346 9.346,22 12.229,22 l 29.542,0 C 44.654,22 47,24.346 47,27.229 l 0,19.542 z"
       id="path4252"
       inkscape:connector-curvature="0"
       style="fill:#ffffff" /><path
       d="m 27,28 c -2.206,0 -4,1.794 -4,4 l 0,6 c 0,2.206 1.794,4 4,4 2.206,0 4,-1.794 4,-4 l 0,-6 c 0,-2.206 -1.794,-4 -4,-4 z m 2,10 c 0,1.103 -0.897,2 -2,2 -1.103,0 -2,-0.897 -2,-2 l 0,-6 c 0,-1.103 0.897,-2 2,-2 1.103,0 2,0.897 2,2 l 0,6 z"
       id="path4254"
       inkscape:connector-curvature="0"
       style="fill:#ffffff" /></g><g
     id="g4256" /><g
     id="g4258" /><g
     id="g4260" /><g
     id="g4262" /><g
     id="g4264" /><g
     id="g4266" /><g
     id="g4268" /><g
     id="g4270" /><g
     id="g4272" /><g
     id="g4274" /><g
     id="g4276" /><g
     id="g4278" /><g
     id="g4280" /><g
     id="g4282" /><g
     id="g4284" /></svg>