<?xml version="1.0" encoding="UTF-8" standalone="no"?>
<!-- Generator: Adobe Illustrator 18.0.0, SVG Export Plug-In . SVG Version: 6.00 Build 0)  -->

<svg
   xmlns:dc="http://purl.org/dc/elements/1.1/"
   xmlns:cc="http://creativecommons.org/ns#"
   xmlns:rdf="http://www.w3.org/1999/02/22-rdf-syntax-ns#"
   xmlns:svg="http://www.w3.org/2000/svg"
   xmlns="http://www.w3.org/2000/svg"
   xmlns:sodipodi="http://sodipodi.sourceforge.net/DTD/sodipodi-0.dtd"
   xmlns:inkscape="http://www.inkscape.org/namespaces/inkscape"
   version="1.1"
   id="Capa_1"
   x="0px"
   y="0px"
   viewBox="0 0 490 490"
   style="enable-background:new 0 0 490 490;"
   xml:space="preserve"
   width="512px"
   height="512px"
   inkscape:version="0.91 r13725"
   sodipodi:docname="streaming.svg"><metadata
     id="metadata4470"><rdf:RDF><cc:Work
         rdf:about=""><dc:format>image/svg+xml</dc:format><dc:type
           rdf:resource="http://purl.org/dc/dcmitype/StillImage" /></cc:Work></rdf:RDF></metadata><defs
     id="defs4468" /><sodipodi:namedview
     pagecolor="#ffffff"
     bordercolor="#666666"
     borderopacity="1"
     objecttolerance="10"
     gridtolerance="10"
     guidetolerance="10"
     inkscape:pageopacity="0"
     inkscape:pageshadow="2"
     inkscape:window-width="1920"
     inkscape:window-height="993"
     id="namedview4466"
     showgrid="false"
     inkscape:zoom="0.4609375"
     inkscape:cx="256"
     inkscape:cy="256"
     inkscape:window-x="0"
     inkscape:window-y="24"
     inkscape:window-maximized="1"
     inkscape:current-layer="Capa_1" /><g
     id="g4424"
     transform="translate(0,17.226565)"><g
       id="g4426"><path
         d="m 464.979,334.57 -439.955,0 C 11.226,334.57 0,323.349 0,309.553 L 0,72.987 C 0,59.192 11.226,47.969 25.024,47.969 l 439.955,0 c 13.793,0 25.021,11.223 25.021,25.018 l 0,236.566 c 0,13.796 -11.228,25.017 -25.021,25.017 z M 25.024,68.178 c -2.654,0 -4.817,2.157 -4.817,4.809 l 0,236.566 c 0,2.652 2.163,4.81 4.817,4.81 l 439.955,0 c 2.653,0 4.813,-2.158 4.813,-4.81 l 0,-236.566 c 0,-2.652 -2.159,-4.809 -4.813,-4.809 l -439.955,0 z"
         id="path4428"
         inkscape:connector-curvature="0"
         style="fill:#ffffff" /></g><g
       id="g4430"><path
         d="m 192.69,268.058 c -3.318,-1.815 -5.476,-5.198 -5.476,-8.978 l 0,-135.619 c 0,-3.782 2.114,-7.245 5.476,-8.98 3.36,-1.734 7.404,-1.445 10.486,0.747 l 95.358,67.809 c 2.668,1.896 4.248,4.964 4.248,8.234 0,3.271 -1.58,6.339 -4.248,8.235 0,0 -71.522,50.854 -95.358,67.807 -1.742,1.239 -5.497,3.476 -10.486,0.745 z m 14.735,-125.013 0,96.451 67.817,-48.225 -67.817,-48.226 z"
         id="path4432"
         inkscape:connector-curvature="0"
         style="fill:#ffffff" /></g><path
       d="m 479.897,391.927 -193.13,0 c -4.485,-17.18 -20.137,-29.894 -38.702,-29.894 -18.563,0 -34.211,12.714 -38.697,29.894 l -199.264,0 C 4.525,391.927 0,396.452 0,402.031 c 0,5.581 4.525,10.104 10.104,10.104 l 199.265,0 c 4.486,17.18 20.135,29.896 38.697,29.896 18.565,0 34.217,-12.717 38.702,-29.896 l 193.129,0 c 5.575,0 10.103,-4.522 10.103,-10.104 0,-5.579 -4.528,-10.104 -10.103,-10.104 z m -231.832,29.894 c -10.908,0 -19.788,-8.878 -19.788,-19.791 0,-10.911 8.88,-19.788 19.788,-19.788 10.913,0 19.791,8.877 19.791,19.788 0,10.914 -8.878,19.791 -19.791,19.791 z"
       id="path4434"
       inkscape:connector-curvature="0"
       style="fill:#ffffff" /></g><g
     id="g4436" /><g
     id="g4438" /><g
     id="g4440" /><g
     id="g4442" /><g
     id="g4444" /><g
     id="g4446" /><g
     id="g4448" /><g
     id="g4450" /><g
     id="g4452" /><g
     id="g4454" /><g
     id="g4456" /><g
     id="g4458" /><g
     id="g4460" /><g
     id="g4462" /><g
     id="g4464" /></svg>