<?xml version="1.0" encoding="utf-8"?>
<!-- Generator: Adobe Illustrator 19.0.0, SVG Export Plug-In . SVG Version: 6.00 Build 0)  -->
<svg version="1.1" id="Capa_1" xmlns="http://www.w3.org/2000/svg" xmlns:xlink="http://www.w3.org/1999/xlink" x="0px" y="0px"
	 viewBox="-41 164.9 512 512" style="enable-background:new -41 164.9 512 512;" xml:space="preserve">
<style type="text/css">
	.st0{fill:#300024;}
</style>
<path class="st0" d="M344.4,396.6c-10.2,0-19.6,3.6-27,9.6V245.9c0-22.2-18.1-40.3-40.3-40.3c-9.2,0-17.7,3.1-24.5,8.3v-8.8
	c0-22.2-18.1-40.3-40.2-40.3s-40.3,18.1-40.3,40.3v18.5c-6.8-5.2-15.3-8.3-24.5-8.3c-22.2,0-40.3,18.1-40.3,40.3v33.6
	c-6.8-5.2-15.3-8.3-24.5-8.3c-22.2,0-40.3,18.1-40.3,40.3v220.5c0,48,16.7,95,46.9,132.4c1.6,1.9,3.8,2.9,6.1,2.9
	c1.7,0,3.5-0.6,5-1.8c3.4-2.7,3.9-7.7,1.2-11.1c-28-34.5-43.4-78-43.4-122.4V321.1c0-13.5,11-24.5,24.5-24.5s24.5,11,24.5,24.5
	v141.6c0,4.4,3.5,7.9,7.9,7.9c4.4,0,7.9-3.5,7.9-7.9V255.6c0-13.5,11-24.5,24.5-24.5s24.5,11,24.5,24.5v193.6c0,4.4,3.5,7.9,7.9,7.9
	s7.9-3.5,7.9-7.9V205.1c0-13.5,11-24.5,24.5-24.5s24.5,11,24.5,24.5v254.6c0,4.4,3.5,7.9,7.9,7.9s7.9-3.5,7.9-7.9V245.9
	c0-13.5,11-24.5,24.5-24.5s24.5,11,24.5,24.5v283.2c0,4.4,3.5,7.9,7.9,7.9c4.4,0,7.9-3.5,7.9-7.9v-89.7c0-14.9,12.1-27,27-27
	c14.9,0,27,12.1,27,27v113c0,25.4-8.8,50.2-24.8,69.9s-38.4,33.4-63.2,38.7c-4.3,0.9-7,5.1-6.1,9.4c0.8,3.7,4.1,6.3,7.7,6.3
	c0.5,0,1.1-0.1,1.6-0.2c28.3-6,54-21.7,72.2-44.2c18.2-22.5,28.3-50.8,28.3-79.8v-113C387.2,415.8,368,396.6,344.4,396.6z"/>
</svg>
